<svg width="400" height="400" viewBox="0 0 28768 19378" fill="none" xmlns="http://www.w3.org/2000/svg">
<path d="M20365.1 8367.63C19987.8 8265.22 19619.1 8133.4 19246.9 8013.35C19208.2 7923.51 19173.1 7831.54 19158.7 7729.13C19151.7 7680.73 19129 7633.94 19090.8 7597.31C19000.4 7510.42 18856.6 7513.62 18769.7 7604.26C18683 7694.64 18686 7838.49 18776.6 7925.38C18866.4 8011.48 18929 8111.48 18987.6 8213.35L18994.3 8225.12C19013.5 8258.27 19045.6 8283.94 19085.7 8293.83C19491 8393.56 19901.2 8475.91 20301.7 8592.49L20303.9 8593.03C20365.9 8609.87 20430.1 8573.24 20447.2 8510.94C20464 8448.64 20427.1 8384.47 20365.1 8367.63" fill="#2D2B2B"/>
<path d="M8403.18 8367.63C8780.32 8265.22 9149.11 8133.4 9521.25 8013.35C9560.13 7923.51 9595.02 7831.54 9609.64 7729.13C9616.57 7680.73 9639.19 7633.94 9677.37 7597.31C9767.93 7510.42 9911.7 7513.62 9998.49 7604.26C10085.3 7694.64 10082.2 7838.49 9991.62 7925.38C9901.81 8011.48 9839.24 8111.48 9780.61 8213.35L9773.89 8225.12C9754.69 8258.27 9722.53 8283.94 9682.4 8293.83C9277.13 8393.56 8866.95 8475.91 8466.42 8592.49L8464.36 8593.03C8402.2 8609.87 8338.05 8573.24 8321.15 8510.94C8304.28 8448.64 8340.99 8384.47 8403.18 8367.63" fill="#2D2B2B"/>
<path d="M27779.5 16524.5H990.95C503.495 16524.5 108.365 16129.3 108.365 15641.9V9572.94C108.365 9085.51 503.495 8690.33 990.95 8690.33H27779.5C28266.9 8690.33 28661.8 9085.51 28661.8 9572.94V15641.9C28661.8 16129.3 28266.9 16524.5 27779.5 16524.5" fill="#A6A8AB"/>
<path d="M989.617 8798.07C561.92 8798.07 214.116 9145.93 214.116 9573.47V15642.4C214.116 16069.9 561.92 16417.8 989.617 16417.8H27778.1C28205.7 16417.8 28553.5 16069.9 28553.5 15642.4V9573.47C28553.5 9145.93 28205.7 8798.07 27778.1 8798.07H989.617ZM27778.1 16632H989.617C443.9 16632 0 16188.1 0 15642.4V9573.47C0 9027.75 443.9 8583.9 989.617 8583.9H27778.1C28323.8 8583.9 28767.7 9027.75 28767.7 9573.47V15642.4C28767.7 16188.1 28323.8 16632 27778.1 16632Z" fill="#2D2B2B"/>
<path d="M8125.11 16524.5H989.62C502.165 16524.5 107.035 16129.3 107.035 15641.9V9572.94C107.035 9085.51 502.165 8690.33 989.62 8690.33H8125.11V16524.5" fill="#E5E6E7"/>
<path d="M989.616 8798.07C561.92 8798.07 214.116 9145.93 214.116 9573.47V15642.4C214.116 16069.9 561.92 16417.8 989.616 16417.8H8018.16V8798.07H989.616ZM8125.38 16632H989.616C443.9 16632 0 16188.1 0 15642.4V9573.47C0 9027.75 443.9 8583.9 989.616 8583.9H8125.38C8184.39 8583.9 8232.43 8632.03 8232.43 8691.12V16524.7C8232.43 16583.8 8184.39 16632 8125.38 16632Z" fill="#2D2B2B"/>
<path d="M20643.2 8691.11H27778.7C28266.1 8691.11 28661 9086.29 28661 9573.72V15642.6C28661 16130.1 28266.1 16525.3 27778.7 16525.3H20643.2V8691.11" fill="#E5E6E7"/>
<path d="M20750.1 16417.3H27778.1C28205.7 16417.3 28553.5 16069.5 28553.5 15641.9V9572.99C28553.5 9145.45 28205.7 8797.6 27778.1 8797.6H20750.1V16417.3ZM27778.1 16631.5H20642.9C20584.1 16631.5 20536 16583.3 20536 16524.3V8690.65C20536 8631.56 20584.1 8583.43 20642.9 8583.43H27778.1C28323.8 8583.43 28767.7 9027.27 28767.7 9572.99V15641.9C28767.7 16187.6 28323.8 16631.5 27778.1 16631.5" fill="#2D2B2B"/>
<path d="M20643.2 16524.5H8125.64V13848.3H20643.2V16524.5Z" fill="#F0F1F1"/>
<path d="M8232.33 16417.3H20535.7V13955.6H8232.33V16417.3ZM20642.6 16631.5H8125.38C8066.37 16631.5 8018.32 16583.3 8018.32 16524.3V13848.6C8018.32 13789.5 8066.37 13741.4 8125.38 13741.4H20642.6C20701.7 13741.4 20749.9 13789.5 20749.9 13848.6V16524.3C20749.9 16583.3 20701.7 16631.5 20642.6 16631.5Z" fill="#2D2B2B"/>
<path d="M8417.09 16233.9V14141.1H20350.7V16233.9H8417.09" fill="white"/>
<path d="M13326.7 14723.2C13326.7 14603.7 13423.4 14506.9 13542.8 14506.9H15225.1C15344.4 14506.9 15441.2 14603.7 15441.2 14723.2C15441.2 14756.4 15414.2 14783.6 15380.7 14783.6H13387.1C13353.7 14783.6 13326.7 14756.4 13326.7 14723.2Z" fill="#A6A8AB"/>
<path d="M3393.06 18759.2L3187.96 19271H2774.46L2911.47 18759.2H3393.06Z" fill="#2D2B2B"/>
<path d="M2913.93 19163.8H3115.75L3235.08 18865.9H2993.55L2913.93 19163.8ZM3188.1 19377.7H2774.49C2741.34 19377.7 2710 19362.2 2689.63 19336C2669.52 19309.5 2662.46 19275.5 2671.1 19242.9L2808.18 18731.2C2820.69 18684.4 2863.26 18652 2911.58 18652H3393.07C3428.58 18652 3461.73 18669.7 3481.57 18698.8C3501.41 18728.8 3505.61 18765.7 3492.27 18798.5L3287.29 19310.3C3271.12 19351.2 3231.68 19377.7 3188.1 19377.7" fill="#2D2B2B"/>
<path d="M4283.97 16524.5L3393.07 18759.2H2911.47L3505.58 16524.5H4283.97Z" fill="#BBBDBF"/>
<path d="M3050.56 18652H3320.29L4126.06 16631.4H3587.67L3050.56 18652ZM3392.89 18865.9H2911.39C2878.24 18865.9 2846.9 18850.4 2826.53 18824.2C2806.42 18797.5 2799.36 18763.5 2808 18731.2L3402 16496.7C3414.54 16450.2 3456.84 16417.3 3505.42 16417.3H4283.79C4319.29 16417.3 4352.45 16435.2 4372.29 16464.3C4392.15 16493.5 4396.33 16531.2 4383.01 16564.1L3492.08 18798.5C3475.91 18839.4 3436.74 18865.9 3392.89 18865.9Z" fill="#2D2B2B"/>
<path d="M25375.8 18759.2L25580.8 19271H25994.5L25857.3 18759.2H25375.8" fill="#2D2B2B"/>
<path d="M25651.1 19163.8H25852.5L25773.3 18865.9H25531.4L25651.1 19163.8ZM25992 19377.7H25578.4C25534.6 19377.7 25495.5 19351.2 25479.2 19310.3L25273.9 18798.5C25261 18765.7 25264.5 18728.8 25284.3 18698.8C25304.4 18669.7 25337.8 18652 25373.1 18652H25855.2C25903.8 18652 25946.1 18684.9 25958.6 18731.2L26095.5 19242.9C26103.8 19275.5 26097.1 19309.5 26076.5 19336C26056.8 19362.2 26025.5 19377.7 25992 19377.7Z" fill="#2D2B2B"/>
<path d="M24482.7 16524.5L25373.6 18759.2H25855.2L25261 16524.5H24482.7Z" fill="#BBBDBF"/>
<path d="M25447.9 18652H25718.5L25181.1 16631.4H24642.1L25447.9 18652ZM25857.3 18865.9H25375.2C25331.4 18865.9 25292.3 18839.4 25276 18798.5L24385.1 16564.1C24372.3 16531.2 24375.8 16493.5 24395.6 16464.3C24416.1 16435.2 24449 16417.3 24484.3 16417.3H25263.2C25311.6 16417.3 25353.8 16450.2 25366.4 16496.7L25960.8 18731.2C25969.1 18763.5 25962.4 18797.5 25942.1 18824.2C25922 18850.4 25890.7 18865.9 25857.3 18865.9" fill="#2D2B2B"/>
<path d="M10236.1 13541.4L9325.45 13847.5L8146.18 10337.9L9056.79 10031.8L10236.1 13541.4Z" fill="#F0F1F1"/>
<path d="M9300.78 10758L8390.17 11064.1L8295.31 10781.8L9205.91 10475.6L9300.78 10758Z" fill="#A6A8AB"/>
<path d="M10086.9 13097.5L9176.25 13403.7L9081.39 13121.3L9991.99 12815.2L10086.9 13097.5Z" fill="#A6A8AB"/>
<path d="M8281.8 10405L9393.1 13712.2L10100.7 13474L8989.42 10166.8L8281.8 10405ZM9325.72 13954.5C9309.28 13954.5 9293.1 13950.7 9278.21 13943C9252.62 13930.4 9233.29 13908.5 9224.41 13881.5L8044.99 10371.6C8026.19 10315.7 8056.22 10255 8112.34 10236.3L9022.84 9930.17C9049.74 9921.35 9078.99 9922.41 9104.31 9936.05C9129.9 9948.62 9149.23 9970.54 9158.1 9997.55L10337.5 13507.4C10356.3 13563.3 10326.3 13624 10270.2 13642.7L9359.68 13948.8C9348.72 13952.3 9337.22 13954.5 9325.72 13954.5" fill="#2D2B2B"/>
<path d="M9562.26 12720.5L9367.59 12786L8820.24 11157.2L9014.92 11091.6L9562.26 12720.5Z" fill="#A6A8AB"/>
<path d="M18552.3 13541.4L19463 13847.5L20642.4 10337.9L19731.7 10031.8L18552.3 13541.4Z" fill="#F0F1F1"/>
<path d="M19488.1 10758L20398.8 11064.1L20493.7 10781.8L19583 10475.6L19488.1 10758Z" fill="#A6A8AB"/>
<path d="M18702 13097.5L19612.7 13403.7L19707.6 13121.3L18796.9 12815.2L18702 13097.5Z" fill="#A6A8AB"/>
<path d="M18688.6 13474.5L19396.1 13712.8L20507.9 10405.6L19799.9 10167.3L18688.6 13474.5ZM19463.5 13955C19452 13955 19440.5 13952.9 19429.5 13949.4L18519.4 13643.2C18463.5 13624.5 18433.3 13563.8 18452 13508L19631.2 9998.09C19640 9971.08 19659.5 9949.16 19684.9 9936.59C19709.5 9922.96 19739.7 9921.89 19766.4 9930.71L20677.1 10236.9C20704.4 10245.7 20726.3 10264.9 20738.9 10290.6C20751.7 10316.3 20753.3 10345.4 20744.5 10372.2L19564.8 13882C19556 13909 19536.8 13930.9 19511.1 13943.5C19496.4 13951.3 19479.8 13955 19463.5 13955" fill="#2D2B2B"/>
<path d="M19226.1 12720.5L19420.7 12786L19968 11157.2L19773.4 11091.6L19226.1 12720.5Z" fill="#A6A8AB"/>
<path d="M17538.9 13541.4L18449.6 13847.5L19628.7 10337.9L18718.3 10031.8L17538.9 13541.4Z" fill="#F0F1F1"/>
<path d="M18474.7 10758L19385.4 11064.1L19480.1 10781.8L18569.7 10475.6L18474.7 10758Z" fill="#A6A8AB"/>
<path d="M17688.7 13097.5L18599.3 13403.7L18694 13121.3L17783.6 12815.2L17688.7 13097.5Z" fill="#A6A8AB"/>
<path d="M17672.6 13474.5L18380.6 13712.8L19491.8 10405.6L18783.8 10167.3L17672.6 13474.5ZM18448 13955C18436.5 13955 18425 13952.9 18414 13949.4L17503.4 13643.2C17447.5 13624.5 17417.3 13563.8 17436 13508L18615.1 9998.09C18623.9 9971.08 18643.5 9949.16 18668.9 9936.59C18693.5 9922.96 18723.7 9921.89 18750.4 9930.71L19661.1 10236.9C19717 10255.6 19747.2 10316.3 19728.5 10372.2L18549.3 13882C18540.5 13909 18521.3 13930.9 18495.6 13943.5C18480.9 13951.3 18464.3 13955 18448 13955" fill="#2D2B2B"/>
<path d="M18212.7 12720.5L18407.4 12786L18954.7 11157.2L18760 11091.6L18212.7 12720.5Z" fill="#A6A8AB"/>
<path d="M11196.7 13846.2H10236.1V10143.8H11196.7V13846.2Z" fill="#F0F1F1"/>
<path d="M11196.7 10910.4H10236.1V10612.5H11196.7V10910.4Z" fill="#A6A8AB"/>
<path d="M11196.7 13378.2H10236.1V13080.4H11196.7V13378.2Z" fill="#A6A8AB"/>
<path d="M10343.3 13739.2H11089.8V10251H10343.3V13739.2ZM11196.8 13953.4H10236.2C10177.2 13953.4 10129.2 13905.5 10129.2 13846.4V10143.8C10129.2 10085 10177.2 10036.8 10236.2 10036.8H11196.8C11255.9 10036.8 11303.9 10085 11303.9 10143.8V13846.4C11303.9 13905.5 11255.9 13953.4 11196.8 13953.4Z" fill="#2D2B2B"/>
<path d="M10819.2 12854.2H10613.8V11135.7H10819.2V12854.2Z" fill="#A6A8AB"/>
<path d="M12157.4 13846.2H11196.8V10143.8H12157.4V13846.2Z" fill="#F0F1F1"/>
<path d="M12157.4 10910.4H11196.8V10612.5H12157.4V10910.4Z" fill="#A6A8AB"/>
<path d="M12157.4 13378.2H11196.8V13080.4H12157.4V13378.2Z" fill="#A6A8AB"/>
<path d="M11303.7 13739.2H12050.2V10251H11303.7V13739.2ZM12157.3 13953.4H11196.6C11137.6 13953.4 11089.6 13905.5 11089.6 13846.4V10143.8C11089.6 10085 11137.6 10036.8 11196.6 10036.8H12157.3C12216.3 10036.8 12264.3 10085 12264.3 10143.8V13846.4C12264.3 13905.5 12216.3 13953.4 12157.3 13953.4Z" fill="#2D2B2B"/>
<path d="M11779.6 12854.2H11574.3V11135.7H11779.6V12854.2Z" fill="#A6A8AB"/>
<path d="M12730.7 13846.2V12885.5H16433.1V13846.2H12730.7Z" fill="#F0F1F1"/>
<path d="M15667.3 13846.2V12885.5H15965.1V13846.2H15667.3Z" fill="#A6A8AB"/>
<path d="M13198.9 13846.2V12885.5H13496.7V13846.2H13198.9Z" fill="#A6A8AB"/>
<path d="M12837.9 13739.2H16326.1V12992.7H12837.9V13739.2ZM16433.1 13953.4H12730.7C12671.7 13953.4 12623.6 13905.5 12623.6 13846.4V12885.5C12623.6 12826.4 12671.7 12778.5 12730.7 12778.5H16433.1C16492.2 12778.5 16540 12826.4 16540 12885.5V13846.4C16540 13905.5 16492.2 13953.4 16433.1 13953.4Z" fill="#2D2B2B"/>
<path d="M13722.7 13469.2V13263.8H15441V13469.2H13722.7Z" fill="#A6A8AB"/>
<path d="M13590 12883.6V11923.2H17292.4V12883.6H13590Z" fill="#F0F1F1"/>
<path d="M16525.6 12883.6V11923.2H16823.4V12883.6H16525.6Z" fill="#A6A8AB"/>
<path d="M14058.2 12883.6V11923.2H14356V12883.6H14058.2Z" fill="#A6A8AB"/>
<path d="M13697 12776.7H17185.2V12030.4H13697V12776.7ZM17292.1 12990.9H13589.8C13530.8 12990.9 13482.7 12942.7 13482.7 12883.6V11923.2C13482.7 11864.4 13530.8 11816.3 13589.8 11816.3H17292.1C17351.2 11816.3 17399.1 11864.4 17399.1 11923.2V12883.6C17399.1 12942.7 17351.2 12990.9 17292.1 12990.9Z" fill="#2D2B2B"/>
<path d="M14581.7 12506.6V12301.2H16300.2V12506.6H14581.7Z" fill="#A6A8AB"/>
<path d="M2372.23 8691.13V7730.44H6074.6V8691.13H2372.23Z" fill="#F0F1F1"/>
<path d="M5308.56 8691.13V7730.44H5606.37V8691.13H5308.56Z" fill="#A6A8AB"/>
<path d="M2840.41 8691.13V7730.44H3138.19V8691.13H2840.41Z" fill="#A6A8AB"/>
<path d="M2479.18 8584.2H5967.65V7837.41H2479.18V8584.2ZM6074.6 8798.36H2371.96C2312.95 8798.36 2264.9 8750.24 2264.9 8691.41V7730.46C2264.9 7671.37 2312.95 7623.24 2371.96 7623.24H6074.6C6133.61 7623.24 6181.63 7671.37 6181.63 7730.46V8691.41C6181.63 8750.24 6133.61 8798.36 6074.6 8798.36Z" fill="#2D2B2B"/>
<path d="M3364.2 8311.44V8105.82H5082.63V8311.44H3364.2Z" fill="#A6A8AB"/>
<path d="M21183.3 7314.16V7536.09C21183.3 7699.45 21049.1 7827.79 20891.6 7827.79H7877.79C7720.22 7827.79 7586 7699.45 7586 7536.09V7314.16H21183.2" fill="#A6A8AB"/>
<path d="M7692.23 7421.12V7535.83C7692.23 7637.7 7774.98 7720.32 7877.09 7720.32H20890.9C20992.7 7720.32 21075.6 7637.7 21075.6 7535.83V7421.12H7692.23ZM20890.8 7934.49H7876.99C7657.12 7934.49 7478.01 7755.88 7478.01 7535.83V7313.91C7478.01 7255.08 7526.05 7206.96 7585.06 7206.96H21182.8C21241.6 7206.96 21289.7 7255.08 21289.7 7313.91V7535.83C21289.7 7755.88 21110.6 7934.49 20890.8 7934.49" fill="#2D2B2B"/>
<path d="M21183.3 391.763V7312.82H7586.09V391.763C7586.09 234.278 7720.31 105.67 7877.88 105.67H20891.7C21049.1 105.67 21183.4 234.278 21183.4 391.763" fill="#F0F1F1"/>
<path d="M7692.23 7207.15H21075.5V393.047C21075.5 295.989 20991 214.17 20890.8 214.17H7876.99C7776.72 214.17 7692.12 295.989 7692.12 393.047L7692.23 7207.15ZM21182.7 7421.32H7585.01C7526 7421.32 7477.96 7373.19 7477.96 7314.1V393.047C7477.96 176.471 7657.07 0.00217254 7876.94 0.00217254H20890.7C21110.5 0.00217254 21289.6 176.471 21289.6 393.047V7314.1C21289.6 7373.19 21241.5 7421.32 21182.7 7421.32" fill="#2D2B2B"/>
<path d="M5260.7 7728.55H3186.12V7341.92H5260.7V7728.55Z" fill="#2D2B2B"/>
<path d="M3293.08 7621.62H5153.49V7448.9H3293.08V7621.62ZM5260.54 7835.79H3186.02C3127.01 7835.79 3078.96 7787.93 3078.96 7728.84V7341.95C3078.96 7282.86 3127.01 7234.73 3186.02 7234.73H5260.54C5319.55 7234.73 5367.6 7282.86 5367.6 7341.95V7728.84C5367.6 7787.93 5319.55 7835.79 5260.54 7835.79Z" fill="#2D2B2B"/>
<path d="M4223.27 7402.36C4164.26 7402.36 4116.21 7354.49 4116.21 7295.4V3532.87C4116.21 3473.78 4164.26 3425.66 4223.27 3425.66C4282.28 3425.66 4330.33 3473.78 4330.33 3532.87V7295.4C4330.33 7354.49 4282.28 7402.36 4223.27 7402.36Z" fill="#2D2B2B"/>
<path d="M6239.3 5806.12H2207.52L2559.04 3690.64H5887.89L6239.44 5806.12" fill="#BBBDBF"/>
<path d="M5940.91 4001.28H5939.44L5888.05 3691.92H5888.15L5940.91 4001.28V4001.28ZM2507.52 4001.28H2506.56L2542.81 3788.72L2507.52 4001.28" fill="white"/>
<path d="M5939.3 4001.28H2507.25L2542.55 3788.72L2559.1 3691.92H5887.94L5939.33 4001.28" fill="#DADCDD"/>
<path d="M2333.73 5699.2H6113.37L5797.17 3797.88H2649.6L2333.73 5699.2ZM6239.57 5913.36H2207.79C2176.45 5913.36 2146.43 5899.19 2126.32 5875.13C2105.95 5851.6 2097.07 5819.78 2102.28 5788.5L2453.75 3673.01C2462.36 3621.94 2507.01 3583.71 2559.23 3583.71H5887.81C5940.03 3583.71 5984.68 3621.94 5993.31 3673.01L6345.02 5788.5C6350.24 5819.78 6341.36 5851.33 6321.01 5875.13C6300.91 5899.19 6270.88 5913.36 6239.54 5913.36" fill="#2D2B2B"/>
<path d="M2739.07 6632.32C2680.06 6632.32 2632.04 6584.46 2632.04 6525.37V5806.39C2632.04 5747.3 2680.06 5699.17 2739.07 5699.17C2798.08 5699.17 2846.13 5747.3 2846.13 5806.39V6525.37C2846.13 6584.46 2798.08 6632.32 2739.07 6632.32Z" fill="#2D2B2B"/>
<path d="M2618.21 6843.59H2739.15V6508.56H2618.21V6843.59Z" fill="#2D2B2B"/>
<path d="M2739.07 6950.52H2618.19C2559.18 6950.52 2511.13 6902.39 2511.13 6843.3V6508.81C2511.13 6449.72 2559.18 6401.59 2618.19 6401.59H2739.07C2798.08 6401.59 2846.12 6449.72 2846.12 6508.81V6843.3C2846.12 6902.39 2798.08 6950.52 2739.07 6950.52Z" fill="#2D2B2B"/>
<path d="M989.887 16233.9C663.901 16233.9 398.902 15968.9 398.902 15643V9574.02C398.902 9248.09 663.901 8982.85 989.887 8982.85H7833.4V16233.9H989.887Z" fill="white"/>
<path d="M7273.78 13586.8H7263.38C7148.54 13586.8 7055.39 13493.5 7055.39 13378.8V11836C7055.39 11721.1 7148.54 11628 7263.38 11628H7273.78C7305.89 11628 7331.94 11654 7331.94 11686V13528.5C7331.94 13560.6 7305.89 13586.8 7273.78 13586.8" fill="#A6A8AB"/>
<path d="M27776.8 8982.61C28102.7 8982.61 28367.7 9247.85 28367.7 9573.78V15642.7C28367.7 15968.6 28102.7 16233.6 27776.8 16233.6H20933.3V8982.61H27776.8" fill="white"/>
<path d="M21493.4 11626.9H21503.9C21618.8 11626.9 21711.9 11720 21711.9 11835V13377.7C21711.9 13492.4 21618.8 13585.7 21503.9 13585.7H21493.4C21461.3 13585.7 21435.4 13559.5 21435.4 13527.5V11685C21435.4 11652.9 21461.3 11626.9 21493.4 11626.9" fill="#A6A8AB"/>
<path d="M13957.1 1712.61L11902.3 5271.67C11712.6 5600.27 11949.7 6010.96 12329.1 6010.96H16438.6C16818 6010.96 17055.2 5600.27 16865.6 5271.67L14810.6 1712.61C14621 1384.01 14146.7 1384.01 13957 1712.61" fill="#FFCC00"/>
<path d="M14049.7 1763.42L11995 5323.01C11925 5444.13 11925 5588.25 11994.7 5708.83C12064.4 5829.42 12189.2 5901.61 12329 5901.61H16439.1C16578.4 5901.61 16703.2 5829.42 16773.3 5708.83C16842.5 5588.25 16842.5 5444.13 16773.3 5323.01L14718.2 1763.42C14648.4 1642.83 14523.3 1570.9 14384 1570.9C14244.6 1570.9 14119.5 1642.83 14049.8 1763.42H14049.7ZM16438.9 6115.78H12328.8C12111.8 6115.78 11917.8 6003.48 11809.2 5815.52C11701.1 5627.82 11701.1 5404.02 11809.5 5216.33L13864.1 1657C13972.8 1469.03 14167 1356.74 14383.7 1356.74C14600.6 1356.74 14794.7 1469.03 14903.3 1657L16957.8 5216.33C17066.3 5404.02 17066.3 5627.82 16957.8 5816.05C16849.8 6003.48 16655.4 6115.78 16438.8 6115.78" fill="#2D2B2B"/>
<path d="M14576.4 4509.38H14241L14171.1 3166.61H14646.4L14576.4 4509.38ZM14165.3 4978.89C14165.3 4901.89 14186 4844.13 14227.3 4804.56C14268.4 4765.26 14328.5 4745.47 14407.1 4745.47C14483.1 4745.47 14541.9 4765.79 14583.6 4805.9C14625.3 4846.01 14646.4 4903.76 14646.4 4978.89C14646.4 5051.35 14625.3 5108.83 14583.1 5150.01C14541.1 5191.99 14482.5 5212.58 14407.1 5212.58C14330.4 5212.58 14270.6 5191.99 14228.6 5151.35C14186.7 5110.71 14165.3 5053.49 14165.3 4978.89Z" fill="#241F20"/>
<path d="M26833 8691.13H25207.8L25046.3 7206.92H26994.4L26833 8691.13" fill="#58595B"/>
<path d="M26859.7 7471.92H25184.3L25167.2 7314.17H26877.1L26859.7 7471.92Z" fill="#969798"/>
<path d="M25306.2 8584.2H26739.1L26877.6 7313.62H25167.7L25306.2 8584.2V8584.2ZM26835.1 8798.36H25210C25155.2 8798.36 25109.7 8757.19 25103.6 8702.91L24942.1 7218.17C24939.1 7187.95 24949 7158.01 24969.3 7135.01C24989.1 7112.55 25018.5 7099.45 25048.7 7099.45H26996.6C27026.8 7099.45 27056.2 7112.55 27076 7135.01C27096.3 7158.01 27106.2 7187.95 27103 7218.17L26941.8 8702.91C26935.4 8757.19 26890.2 8798.36 26835.1 8798.36" fill="#2D2B2B"/>
<path d="M26020.1 7311.49C25961.3 7311.49 25913.2 7263.63 25913.2 7204.54V4611.24C25913.2 4552.15 25961.3 4504.03 26020.1 4504.03C26079.2 4504.03 26127.3 4552.15 26127.3 4611.24V7204.54C26127.3 7263.63 26079.2 7311.49 26020.1 7311.49Z" fill="#2D2B2B"/>
<path d="M26581.6 6731.29C26376.8 6935.84 26022 6912.84 26022 6912.84C26022 6912.84 25999 6558.03 26203.8 6353.22C26408.4 6148.68 26763.2 6171.67 26763.2 6171.67C26763.2 6171.67 26786.2 6526.48 26581.6 6731.29" fill="#E5E6E7"/>
<path d="M26653.8 6282.09C26548.2 6291.45 26385.4 6323.27 26279.2 6429.95C26173.9 6535.3 26141.5 6698.13 26131.9 6803.75C26237 6794.92 26399.8 6762.57 26506 6656.42C26612.4 6550.54 26644.2 6387.44 26653.8 6282.09V6282.09ZM26055.7 7020.86C26032.2 7020.86 26017.7 7020.59 26014.5 7020.05C25961.3 7016.85 25918.5 6974.07 25915.3 6920.32C25914.2 6904.01 25891.8 6514.98 26127.9 6278.35C26365 6041.19 26755.9 6062.31 26770.1 6065.79C26823.9 6068.99 26866.9 6111.78 26869.8 6165.52C26870.9 6181.83 26893.4 6571.4 26657.3 6808.02C26462.6 7002.14 26164.5 7020.86 26055.7 7020.86Z" fill="#2D2B2B"/>
<path d="M25450.6 6405.08C25245.8 6200.54 25268.8 5845.73 25268.8 5845.73C25268.8 5845.73 25623.9 5822.73 25828.4 6027.28C26033.2 6232.09 26010.2 6586.89 26010.2 6586.89C26010.2 6586.89 25655.2 6609.89 25450.6 6405.08" fill="#E5E6E7"/>
<path d="M25378.4 5955.88C25387.8 6061.5 25420.1 6223.79 25526.3 6329.68C25631.6 6435.29 25794.7 6467.64 25900.1 6477C25890.7 6371.66 25858.4 6209.09 25752.2 6103.21C25646.9 5997.59 25484 5965.24 25378.4 5955.88ZM25976.8 6694.91C25869.3 6694.91 25570.1 6676.46 25374.7 6481.28C25138.9 6244.65 25161.3 5855.08 25162.1 5839.04C25165.3 5785.03 25208.1 5742.25 25261.9 5739.04C25277.6 5737.17 25666.7 5714.71 25903.8 5951.61C26139.9 6188.24 26117.5 6577.8 26116.4 6594.11C26113.2 6647.86 26070.4 6690.63 26016.7 6693.84C26014 6694.38 25999.8 6694.91 25976.8 6694.91" fill="#2D2B2B"/>
<path d="M26581.6 5696.5C26376.8 5901.04 26022 5878.05 26022 5878.05C26022 5878.05 25999 5523.24 26203.8 5318.69C26408.4 5113.88 26763.2 5136.88 26763.2 5136.88C26763.2 5136.88 26786.2 5491.69 26581.6 5696.5" fill="#E5E6E7"/>
<path d="M26653.8 5247.31C26548.2 5256.67 26385.4 5288.48 26279.2 5394.9C26172.8 5501.05 26141 5663.88 26131.6 5769.49C26237 5760.14 26399.8 5728.05 26506 5621.64C26612.4 5515.75 26644.2 5352.65 26653.8 5247.31V5247.31ZM26054.6 5986.61C26031.6 5986.61 26017.7 5986.07 26015 5985.53C25961.3 5982.59 25918.5 5939.81 25915.3 5885.8C25914.2 5869.76 25891.8 5480.19 26127.9 5243.56C26365 5006.4 26755.9 5027.79 26770.1 5031C26823.9 5034.21 26866.9 5076.99 26869.8 5130.73C26870.9 5147.04 26893.4 5536.61 26657.3 5772.97C26462.1 5968.42 26162.4 5986.61 26054.6 5986.61" fill="#2D2B2B"/>
<path d="M25450.6 5372.97C25245.8 5168.16 25268.8 4813.35 25268.8 4813.35C25268.8 4813.35 25623.9 4790.36 25828.4 4994.9C26033.2 5199.71 26010.2 5554.52 26010.2 5554.52C26010.2 5554.52 25655.2 5577.52 25450.6 5372.97Z" fill="#E5E6E7"/>
<path d="M25378.4 4921.15C25387.8 5026.5 25420.1 5189.06 25526.3 5294.94C25631.6 5400.56 25794.7 5432.91 25900.1 5442.27C25890.7 5336.92 25858.4 5174.35 25752.2 5068.47C25646.3 4962.32 25484 4930.51 25378.4 4921.15ZM25976.8 5660.18C25869.3 5660.18 25570.1 5641.73 25374.7 5446.54C25138.9 5209.92 25161.3 4820.88 25162.1 4804.57C25165.3 4750.83 25208.1 4708.05 25261.9 4704.84C25277.1 4702.43 25666.7 4680.24 25903.8 4916.87C26139.9 5153.5 26117.5 5543.07 26116.4 5559.38C26113.2 5613.12 26070.4 5655.9 26016.7 5659.11C26014 5659.64 25999.8 5660.18 25976.8 5660.18" fill="#2D2B2B"/>
<path d="M24838.3 8691.13H22731.9L22522.6 6767.35H25047.4L24838.3 8691.13Z" fill="#A6A8AB"/>
<path d="M25009.4 7105.62L25046.1 6766.85H22522L22521.8 6765.24H25048.7L25014.3 7104.01L25009.4 7105.62" fill="white"/>
<path d="M25014.8 7108.28H25010L25010.5 7104.54L25015.3 7102.93L25014.8 7108.28Z" fill="#6B6969"/>
<path d="M22560.3 7108.28H22558.7L22534.9 6873.52L22560.3 7108.28Z" fill="white"/>
<path d="M25009.4 7108.28H22558.9L22533.5 6873.53L22522.6 6765.77H25046.6L25010 7104.54L25009.4 7108.28" fill="#CECFD1"/>
<path d="M22827.6 8584.2H24742.1L24928.7 6874.59H22641.8L22827.6 8584.2ZM24838.3 8798.36H22731.7C22676.8 8798.36 22631.4 8757.19 22625 8702.91L22416.2 6778.87C22412.9 6748.65 22422.8 6718.97 22443.4 6695.98C22463.2 6673.52 22492.4 6660.42 22522.6 6660.42H25047.7C25077.9 6660.42 25107 6673.52 25127.1 6695.98C25147.4 6718.97 25157.3 6748.65 25154.1 6778.87L24944.7 8702.91C24938.6 8757.19 24893.1 8798.36 24838.3 8798.36" fill="#2D2B2B"/>
<path d="M23784.9 6872.96C23725.8 6872.96 23677.9 6824.84 23677.9 6765.75V3404.28C23677.9 3345.19 23725.8 3297.33 23784.9 3297.33C23843.9 3297.33 23892.1 3345.19 23892.1 3404.28V6765.75C23892.1 6824.84 23843.9 6872.96 23784.9 6872.96Z" fill="#2D2B2B"/>
<path d="M24512.1 6151.03C24246.9 6416.54 23787 6386.59 23787 6386.59C23787 6386.59 23757.1 5926.7 24022.3 5661.47C24287.5 5395.96 24747.7 5425.91 24747.7 5425.91C24747.7 5425.91 24777.4 5885.79 24512.1 6151.03" fill="#58595B"/>
<path d="M24637.8 5536.08C24500.4 5543.84 24253.3 5581.54 24096.1 5739.29C23938.3 5896.51 23900.9 6143.3 23892.9 6280.73C24030.3 6272.98 24277.4 6235.28 24434.6 6077.52C24592.3 5920.31 24629.8 5673.52 24637.8 5536.08ZM23828.2 6497.04C23799.6 6497.04 23781.6 6495.97 23778.2 6495.43C23724.4 6492.22 23681.4 6449.44 23678.4 6395.7C23676.8 6374.85 23648.5 5883.94 23944.7 5587.69C24240.7 5292.24 24732.2 5318.71 24752.5 5321.38C24806.2 5324.59 24849.3 5367.37 24852.2 5421.11C24853.8 5441.97 24882.2 5932.87 24585.9 6229.13C24341.5 6473.51 23964.5 6497.04 23828.2 6497.04Z" fill="#2D2B2B"/>
<path d="M23046.9 5728.6C22781.6 5463.09 22811.3 5003.21 22811.3 5003.21C22811.3 5003.21 23271.5 4973.53 23536.7 5238.76C23802 5504 23772.3 5963.89 23772.3 5963.89C23772.3 5963.89 23312.1 5993.84 23046.9 5728.6" fill="#58595B"/>
<path d="M22918.6 5113.61C22926.3 5251.04 22964 5497.83 23121.8 5655.05C23279 5812.8 23525.8 5849.97 23663.2 5857.72C23655.4 5720.29 23617.7 5473.77 23460 5316.82C23302.8 5159.07 23056 5121.37 22918.6 5113.61ZM23726.8 6074.03C23589.7 6074.03 23214 6050.5 22970.2 5806.65C22674.2 5510.4 22702.2 5019.5 22703.8 4998.64C22707.1 4944.9 22749.8 4902.12 22803.6 4898.91C22823.9 4896.24 23315.3 4869.23 23611.6 5165.22C23907.6 5461.47 23879.5 5952.11 23877.9 5972.69C23874.7 6026.44 23831.9 6069.22 23778.2 6072.43C23774.4 6072.96 23756.2 6074.03 23726.8 6074.03Z" fill="#2D2B2B"/>
<path d="M24512.1 4811.52C24246.9 5076.76 23787 5047.08 23787 5047.08C23787 5047.08 23757.1 4586.93 24022.3 4321.69C24287.5 4056.45 24747.7 4086.4 24747.7 4086.4C24747.7 4086.4 24777.4 4546.29 24512.1 4811.52" fill="#58595B"/>
<path d="M24637.8 4193.89C24500.4 4201.91 24253.3 4239.34 24096.1 4397.1C23938.3 4554.31 23900.9 4801.37 23892.9 4938.53C24030.3 4930.78 24277.4 4893.08 24434.6 4735.59C24592.3 4578.38 24629.8 4331.32 24637.8 4193.89ZM23828.2 5154.84C23799.6 5154.84 23781.6 5153.77 23778.2 5153.24C23724.4 5150.03 23681.4 5107.25 23678.4 5053.51C23676.8 5032.65 23648.5 4541.75 23944.7 4245.76C24240.7 3949.51 24732.2 3977.32 24752.5 3979.19C24806.2 3982.4 24849.3 4025.18 24852.2 4079.19C24853.8 4100.04 24882.2 4590.95 24585.9 4886.93C24341.5 5131.31 23964.5 5154.84 23828.2 5154.84Z" fill="#2D2B2B"/>
<path d="M23046.9 4389.06C22781.6 4123.82 22811.3 3663.93 22811.3 3663.93C22811.3 3663.93 23271.5 3633.99 23536.7 3899.22C23802 4164.73 23772.3 4624.62 23772.3 4624.62C23772.3 4624.62 23312.1 4654.3 23046.9 4389.06" fill="#58595B"/>
<path d="M22918.6 3771.42C22926.3 3908.86 22964 4155.91 23121.8 4313.13C23279 4470.61 23525.8 4508.32 23663.2 4516.07C23655.4 4378.91 23617.7 4131.85 23460 3974.63C23302.8 3816.88 23056 3779.45 22918.6 3771.42ZM23727.9 4732.38C23592.1 4732.38 23214.5 4708.85 22970.2 4464.47C22674.2 4168.48 22702.2 3677.58 22703.8 3656.45C22707.1 3602.71 22749.8 3559.93 22803.6 3556.72C22823.9 3553.78 23315.3 3527.04 23611.6 3823.03C23907.6 4119.28 23879.5 4610.19 23877.9 4631.04C23874.7 4684.78 23831.9 4727.56 23778.2 4730.77C23774.4 4731.31 23756.8 4732.38 23727.9 4732.38" fill="#2D2B2B"/>
<path d="M26763.4 19377.7H1389.62C1330.61 19377.7 1282.56 19329.8 1282.56 19270.7C1282.56 19211.6 1330.61 19163.8 1389.62 19163.8H26763.4C26822.3 19163.8 26870.4 19211.6 26870.4 19270.7C26870.4 19329.8 26822.3 19377.7 26763.4 19377.7Z" fill="#2D2B2B"/>
<path d="M27635.1 19377.7H27200.1C27141 19377.7 27092.8 19329.8 27092.8 19270.7C27092.8 19211.6 27141 19163.8 27200.1 19163.8H27635.1C27693.9 19163.8 27742 19211.6 27742 19270.7C27742 19329.8 27693.9 19377.7 27635.1 19377.7Z" fill="#2D2B2B"/>
</svg>
