<svg width="400" height="400" viewBox="0 0 21009 15230" fill="none" xmlns="http://www.w3.org/2000/svg">
<path fill-rule="evenodd" clip-rule="evenodd" d="M9328.82 7806.97C9388.51 7834.39 9443.75 7869.04 9494.43 7910.9L9476.65 7916.46L9467.76 7920.91L9463.31 7927.03V7935.37L9454.97 7995.38C9463.53 8040.21 9493.77 8067.08 9545.56 8075.97L9697.28 8109.32C9732.52 8146.38 9770.09 8186.94 9810.1 8231.04C9840.11 8264.02 9871.79 8299.02 9905.13 8336.08C10001.5 8297.18 10091.5 8256.79 10175.2 8214.92L10176.9 8213.26L11147.2 8423.89C11213.6 8439.46 11269.7 8443.35 11315.6 8435.58C11321.2 8434.45 11327 8432.98 11332.9 8431.12L13022.4 8203.25C12979.8 8239.2 12933.1 8270.31 12882.3 8296.63C12574.4 8454.46 12255.3 8585.07 11924.7 8688.46C11795.5 8728.47 11664.5 8764.41 11531.8 8796.27C11451 8817.02 11369.8 8837.95 11287.9 8859.07C11041.1 8923.55 10793 8990.8 10543.7 9060.84C10588.6 9106.77 10634 9153.09 10679.9 9199.78C10711.8 9232.01 10743.8 9265.17 10776 9299.26C10910.5 9442.65 11036.7 9595.12 11154.5 9756.69C11200.5 9820.05 11241.9 9885.74 11279 9954C11363.9 10106.9 11425.7 10270.2 11464.6 10443.6C11480.1 10514 11483.5 10582.7 11474.6 10649.8C11454.2 10807.7 11462 10960.6 11497.9 11108.9C11546.8 11310.4 11604.9 11511.1 11671.9 11710.8C11683.8 11744.2 11695.4 11777.9 11706.9 11812C11789.9 12045.8 11888.5 12274.7 12002.6 12498.9C12113.7 12715.4 12236 12921 12369.4 13115.9C12373.1 13127.3 12376 13139.3 12378.2 13152C12395.7 13322.7 12311.4 13427.1 12125.4 13464.9C12082.4 13405.5 12040.9 13346.7 12000.9 13288.2C11876.1 13099.9 11773.8 12902.6 11694.1 12696.2C11610.4 12476.2 11539.3 12249.5 11480.7 12016.5C11458.1 11931.7 11435.7 11846.8 11413.5 11762C11383.1 11640.5 11352.3 11518.2 11321.2 11395.1C11262.6 11149.8 11180.5 10909.2 11074.4 10673.2C10977.1 10459.8 10862.5 10257.6 10731 10066.8C10725.8 10059 10720.4 10051.6 10714.9 10044.6C10591.2 9863.4 10458.6 9692.89 10316.9 9533.25C10149.6 9342.05 9972.83 9160.69 9786.76 8989.13C9670.83 8881.31 9553.34 8776.63 9434.41 8675.11C9364.05 8615.82 9293.25 8557.28 9222.11 8499.49C9050.94 8360.16 8874.21 8223.81 8691.92 8090.42C8674.14 8077.83 8656.58 8065.22 8639.13 8052.63C8561.32 7994.09 8483.96 7934.06 8406.82 7872.55C8583.22 7909.6 8782.51 7864.77 9004.81 7738.07L9327.71 7821.43C9328.48 7816.61 9328.82 7811.78 9328.82 7806.97ZM11610.7 7623.01C11622.3 7614.11 11634.4 7606.14 11647.4 7599.11L11635.8 7618.57L11610.7 7623.01ZM11559.6 3262.87C11558.5 3265.42 11557.1 3267.87 11555.2 3270.09C11426.6 3129.7 11288.9 2993.09 11141.7 2860.48C10997.2 2731.2 10870.5 2627.94 10761.6 2550.91C10803.5 2441.64 10867.7 2333.93 10954.4 2227.99C11108.6 2485.1 11293.2 2729.09 11508.5 2959.96C11546.3 3001.87 11586.2 3042.78 11628 3082.79C11617.6 3094.69 11609 3110.8 11601.9 3131.15C11593 3154.49 11580.7 3193.06 11565.2 3246.75C11563.4 3251.53 11561.5 3256.98 11559.6 3262.87ZM11225.1 1977.89C11382.9 1870.85 11551.8 1815.27 11731.9 1811.15C12097.3 1872.62 12414.4 2081.27 12683.4 2436.97C12903.9 2723.42 13062.7 3059.12 13160.2 3444.05C13151.3 3454.84 13143 3464.39 13135.2 3472.95C13056.3 3432.94 12968.1 3387.7 12870.6 3337.34C12281.2 3018.65 11841.8 2727.31 11552.4 2463.09C11469.5 2387.84 11387.9 2280.57 11307.9 2141.29C11277.8 2087.94 11250.3 2033.47 11225.1 1977.89Z" fill="#00558C"/>
<path fill-rule="evenodd" clip-rule="evenodd" d="M11145 14206.3C11128.4 14185.5 11113.2 14164 11099.5 14141.8C10992.4 13968.4 11017.2 13807 11173.9 13657.7C11123.2 13859.7 11197.3 14021.5 11396.2 14143.5C11418.5 14156 11441.8 14168.7 11466.3 14181.3C11495.6 14196.8 11605.7 14241.6 11796.9 14315.8C11933.3 14369.1 12032.6 14419.7 12094.8 14467.5C12317.1 14677.3 12552.4 14821.9 12800.6 14901.6C13088.2 15001.2 13357.7 14999.4 13609.2 14896C13439.5 15028.6 13229.1 15080.3 12977.9 15051.1C12773.1 15020.6 12565.4 14944.1 12354.9 14821.5C12301.6 14791.2 12237.9 14746.7 12163.7 14688.2C12059.2 14601.5 11995 14550.3 11970.9 14534.8C11819.7 14425.8 11680.2 14390.3 11552.4 14428C11379 14403.9 11243.3 14330 11145 14206.3ZM7603.2 8930.77C7523.17 8914.47 7456.48 8938.93 7403.13 9004.13C7378.68 9037.11 7356.26 9074.54 7335.88 9116.41C7321.07 9145.67 7309.38 9178.84 7300.87 9215.89C7257.9 9361.14 7196.39 9493.59 7116.36 9613.27C7042.26 9584.37 6976.5 9543.61 6919.07 9491C6806.06 9383.56 6714.92 9252.39 6645.64 9097.5C6619.33 9036 6595.06 8974.12 6572.83 8911.87C6557.27 8865.19 6542.63 8817.94 6528.93 8770.15C6493.74 8648.24 6467.42 8525.04 6450.01 8400.55C6443.34 8369.06 6441.86 8340.16 6445.56 8313.85C6454.46 8248.63 6473.54 8188.79 6502.81 8134.33C6503.54 8132.48 6505.03 8130.07 6507.25 8127.11C6670.64 7952.59 6822.55 7812.71 6962.97 7707.5C7013.73 7670.44 7062.45 7637.27 7109.14 7608C7120.99 7601.33 7132.29 7595.03 7143.04 7589.1C7146 7587.99 7148.4 7586.51 7150.26 7584.66C7196.94 7558.36 7243.63 7535.94 7290.31 7517.41C7394.79 7471.83 7498.16 7444.04 7600.42 7434.04C7711.57 7423.3 7820.13 7432.56 7926.07 7461.83C7929.07 7476.66 7934.41 7489.81 7942.19 7501.29C8071.9 7711.01 8226.4 7834.76 8405.69 7872.55C8482.83 7934.06 8560.19 7994.09 8637.99 8052.63C8655.45 8065.22 8673.01 8077.83 8690.79 8090.42C8873.08 8223.81 9049.81 8360.15 9220.98 8499.49C9292.12 8557.28 9362.92 8615.82 9433.28 8675.11C9552.21 8776.63 9669.7 8881.3 9785.63 8989.13C9971.7 9160.69 10148.4 9342.05 10315.8 9533.25C10457.4 9692.88 10590 9863.4 10713.7 10044.6C10719.3 10051.6 10724.6 10059 10729.9 10066.8C10861.3 10257.6 10975.9 10459.8 11073.3 10673.2C11179.4 10909.2 11261.5 11149.8 11320.1 11395.1C11351.2 11518.2 11382 11640.5 11412.3 11762C11434.6 11846.8 11457 11931.7 11479.6 12016.5C11538.1 12249.5 11609.3 12476.1 11693 12696.2C11772.7 12902.5 11874.9 13099.9 11999.8 13288.2C12039.8 13346.7 12081.2 13405.5 12124.2 13464.9C12084.2 13482.7 12037.4 13501.8 11983.6 13522.1C11978.9 13525 11972 13528.4 11963.1 13532.1C11860.8 13561.4 11757.7 13553.6 11653.5 13508.8C11557.9 13466.9 11468.9 13396.8 11386.2 13298.2C11206.9 13069.2 11061.6 12890.4 10950.5 12761.8C10784.9 12575.9 10617.8 12420.3 10449.2 12295.5C10345.8 12195.1 10267.9 12069.9 10215.2 11919.8C10184.1 11827.5 10162.3 11726.2 10149.6 11615.8C10137.9 11499.7 10139.6 11243.1 10155.2 10845.5C10079.3 10791 10009 10743.8 9944.57 10703.7C9864.99 10652.2 9796.41 10609.9 9738.95 10577C9640.47 10514.4 9435.17 10368.6 9123.17 10139.6C8946.88 10009.9 8736.03 9853.62 8490.72 9670.54C8486.72 9667.54 8483.72 9666.1 8481.83 9666.1C8374.46 9577.53 8250.63 9452.27 8110.58 9290.36C8056.9 9231.82 8005.77 9173.84 7957.2 9116.41C7930.96 9103.81 7905.53 9091.77 7881.08 9080.29C7789.57 9035.43 7696.95 8985.61 7603.2 8930.77ZM10175.8 8213.26L10174.1 8214.92C10090.4 8256.79 10000.4 8297.17 9904.03 8336.08C9870.68 8299.02 9839 8264.01 9808.99 8231.03C9768.98 8186.94 9731.41 8146.38 9696.17 8109.32L10175.8 8213.26ZM12346 8866.85C12230.1 8895.75 12116.2 8927.81 12004.2 8963C11964.2 8970.79 11911.1 8983.57 11844.7 9001.35C11832.2 9005.07 11818.6 9008.96 11804.2 9013.02C11714.5 9033.41 11624.3 9055.82 11533.5 9080.29C11442 9109.18 11372.9 9130.12 11326.2 9143.08C11176.9 9180.14 10993.2 9232.19 10774.9 9299.25C10742.7 9265.16 10710.6 9232 10678.7 9199.78C10632.8 9153.08 10587.5 9106.76 10542.6 9060.83C10791.9 8990.79 11040 8923.54 11286.7 8859.07C11368.7 8837.95 11449.9 8817.02 11530.7 8796.27C11663.4 8764.41 11794.4 8728.46 11923.6 8688.46C12254.2 8585.07 12573.3 8454.46 12881.2 8296.63C12932 8270.31 12978.7 8239.19 13021.3 8203.24L13049 8199.91C13050.2 8202.14 13050.7 8204.53 13050.7 8207.14C13062.6 8379.81 13013.9 8519.68 12904.5 8626.75C12811.2 8704.94 12688.9 8769.22 12537.7 8819.61C12473.3 8834.43 12409.4 8850.18 12346 8866.85ZM9493.32 7910.9C9442.64 7869.04 9387.4 7834.39 9327.71 7806.97C9338.49 7746.58 9350.72 7676.36 9364.39 7596.33C9368.5 7593.37 9372.06 7590.96 9374.95 7589.1C9412.74 7578.35 9450.75 7568.17 9488.88 7558.53C9719.74 7495.92 9944.26 7420.89 10162.5 7333.44C10397.4 7307.14 10657.1 7311.4 10941.6 7346.22C11000.2 7418.48 11039.1 7481.47 11058.3 7535.19C11090.6 7583.73 11131.1 7610.41 11180 7615.22C11222.6 7617.45 11270.3 7601.89 11322.9 7568.54C11345.5 7581.13 11380.7 7607.08 11428.5 7646.36L9507.77 7906.46L9493.32 7910.9ZM11579.1 7431.26C11624.6 7437.19 11674.3 7443.12 11728 7449.04L11646.3 7599.11C11633.3 7606.14 11621.2 7614.11 11609.6 7623L11598 7624.13C11591 7552.24 11585.1 7497.22 11580.2 7459.05C11579.5 7449.42 11579.1 7440.15 11579.1 7431.26ZM10723.8 2966.07L10713.8 2939.4C10700.1 2807.12 10715.7 2677.62 10760.4 2550.9C10869.4 2627.93 10996.1 2731.2 11140.6 2860.48C11287.7 2993.09 11425.5 3129.7 11554.1 3270.09C11541.5 3301.21 11527.4 3322.56 11511.8 3334C11393.7 3373.24 11249 3389.92 11077.8 3384.03C11050.3 3339.23 11043.5 3273.42 11057.2 3186.72C11068.8 3091.13 11066.7 3024.21 11051.1 2986.08C11026 2944.18 10995.8 2929.73 10960.5 2942.73C10940.2 2947.51 10908.1 2967.41 10864.4 3002.2C10826.2 3034.44 10799.3 3050.55 10783.8 3050.55C10756.4 3052.44 10736.3 3024.21 10723.8 2966.07ZM4950.03 6939.61C4992 6909.33 5033.87 6878.48 5075.63 6847.07C5089.91 6836.12 5103.89 6824.91 5117.59 6813.45C5227.86 6722.13 5320.39 6616.99 5395.19 6498.04C5378.51 6449.13 5366.84 6394.85 5360.17 6335.19C5369.8 6204.03 5397.59 6097.32 5443.54 6015.06C5447.61 5988.75 5485.41 5938.36 5556.91 5863.89C5635.1 5782.74 5719.19 5707.53 5809.22 5638.24C5913.71 5556.78 5997.8 5506.32 6061.54 5487.09C6137.85 5463.41 6176.02 5488.2 6176.02 5561.56C6176.02 5572.34 6163.24 5610.45 6137.68 5676.03C6125.08 5705.3 6112.3 5734.21 6099.33 5762.73C6107.49 5756.81 6114.89 5750.88 6121.56 5744.95C6226.41 5664.91 6310.52 5615.08 6373.87 5595.46C6450.2 5572.12 6488.36 5596.57 6488.36 5668.8C6488.36 5680.67 6475.57 5718.83 6450.01 5783.3C6424.81 5847.02 6397.58 5907.62 6368.31 5965.04C6452.42 6021 6521.7 6091.39 6576.17 6176.24C6712.14 6390.77 6679.91 6548.8 6479.46 6650.32C6376.83 6702.2 6281.98 6743.33 6194.92 6773.71C6234.19 6845.23 6250.86 6941.55 6244.94 7062.72C6231.22 7362.11 6209.73 7661.49 6180.47 7960.87C6174.81 8018.62 6168.69 8076.43 6162.13 8134.27C6149.64 8246.87 6135.55 8359.7 6119.89 8472.75C6110.12 8550.09 6099.38 8627.72 6087.66 8705.62C6083.03 8737.08 6078.22 8768.57 6073.21 8800.1C6067.27 8838.27 6047.64 8869.58 6014.3 8894.04C5942.05 8946.65 5864.42 8987.77 5781.44 9017.42C5419.45 9142.29 5066.74 9134.88 4723.28 8995.18C4724.39 8998.89 4725.31 9003.34 4726.06 9008.52C4740.67 9105.47 4751.69 9189.78 4759.13 9261.41C4770.6 9373.2 4773.28 9454.15 4767.18 9504.28C4761.25 9558.02 4747.54 9619.71 4726.06 9689.38C4708.64 9748.96 4688.27 9804.76 4664.93 9856.67C4645.28 9897.47 4624.17 9936.49 4601.57 9973.95C4583.78 10002.1 4565.63 10028.4 4547.11 10052.9C4398.54 10244.8 4200.5 10325.5 3953 10295.2C3667.35 10261.1 3503.03 10157.9 3460.05 9985.62C3445.22 9931.82 3444.3 9873.68 3457.27 9811.1C3471.72 9758.08 3483.39 9718.95 3492.28 9693.83C3501.17 9669.37 3514.89 9636.92 3533.41 9596.54C3551.19 9557.64 3582.5 9513.74 3627.33 9464.82C3671.42 9415.91 3749.6 9381.64 3861.86 9362C3974.49 9341.26 4040.62 9345.7 4060.26 9375.34C4079.9 9403.51 4089.72 9433.7 4089.72 9465.94C4088.61 9497.44 4065.63 9523.37 4020.81 9543.75C3973.76 9564.5 3926.69 9595.43 3879.64 9636.58C3831.85 9678.49 3805.54 9739.07 3800.73 9818.33C3793.69 9897.58 3847.41 9944.49 3961.9 9958.94C4075.27 9973.72 4174.56 9923.37 4259.78 9807.77C4327.22 9716.95 4373.15 9640.81 4397.61 9579.32C4403.53 9562.64 4408.34 9547.46 4412.06 9533.74C4422.06 9477.05 4427.06 9447.59 4427.06 9445.37C4434.94 9378.93 4439.11 9317.6 4439.57 9261.41C4439.92 9193.52 4434.82 9133.13 4424.28 9080.23C4411.31 9018.71 4384.27 8951.28 4343.14 8877.91C4325.73 8845.68 4311.09 8816.23 4299.24 8789.54C4285.57 8759.6 4275.11 8733.29 4267.84 8710.63C4265.84 8704.43 4264.07 8698.51 4262.56 8692.84C4252.92 8657.64 4247 8619.11 4244.77 8577.24C4229.21 8533.88 4218.1 8488.86 4211.43 8442.18C4211.18 8440.38 4210.91 8438.62 4210.6 8436.91C4171.69 8152.3 4195.41 7898.4 4281.73 7675.19C4291.76 7649.4 4302.6 7624.03 4314.24 7599.05C4337.95 7548.26 4365.1 7499.16 4395.66 7451.77C4442.36 7379.51 4497.1 7311.15 4559.89 7246.68C4582.94 7223.04 4607.12 7199.88 4632.41 7177.21C4659.09 7153.3 4686.97 7129.96 4716.05 7107.18C4743.34 7085.94 4771.67 7065.18 4801.09 7044.93C4850.87 7010.61 4900.52 6975.5 4950.03 6939.61ZM11626.9 3082.79C11585.1 3042.77 11545.2 3001.87 11507.4 2959.96C11292.1 2729.09 11107.5 2485.1 10953.3 2227.99C10965.2 2212.1 10977.7 2197.42 10991.1 2184.08C10993.3 2181.86 10995.4 2180.42 10997.2 2179.64C11068.3 2099.6 11143.9 2032.35 11223.9 1977.89C11249.2 2033.47 11276.7 2087.93 11306.8 2141.29C11386.8 2280.57 11468.4 2387.83 11551.3 2463.09C11840.7 2727.31 12280.1 3018.65 12869.5 3337.34C12967 3387.69 13055.2 3432.93 13134.1 3472.95C13067 3548.2 12995.4 3605.78 12919 3645.8C12812 3702.16 12713 3712.27 12622.2 3676.37C12497.7 3608.23 12348.8 3514.08 12175.4 3394.03C11905.3 3203.17 11760.7 3101.91 11741.4 3090.01C11692.4 3047 11654.3 3044.66 11626.9 3082.79Z" fill="#003151"/>
<path fill-rule="evenodd" clip-rule="evenodd" d="M14335.4 4109.86L15010.6 3991.39C15039.2 3986.65 15064.6 3984.62 15086.8 3985.29C15100.5 3987.55 15113.1 3990.49 15124.5 3994.22C15187.2 4012.74 15218.5 4068.3 15218.5 4160.91V4847.9C15218.5 4988.39 15149.3 5071.17 15010.6 5096.36L14335.4 5214.71C14298.3 5221.49 14266.6 5222.39 14240.3 5217.54C14210.2 5210.87 14186.1 5196.19 14167.4 5173.6C14143.1 5143.68 14130.9 5098.84 14130.9 5039.1V4352.11C14130.9 4213.99 14199.1 4133.13 14335.4 4109.86ZM14277 3092.09V3522.37C14277 3608.99 14233.6 3660.49 14146.9 3676.87L13724.5 3750.16C13702 3755.02 13682 3755.92 13664.5 3752.99C13646.1 3748.13 13631 3738.87 13619.5 3725.2C13604.7 3706.68 13597.3 3678.9 13597.3 3641.86V3212.14C13597.3 3125.51 13639.7 3074.92 13724.5 3060.46L14146.9 2985.36C14164.4 2982.76 14180 2981.86 14193.6 2982.65C14202.6 2983.78 14210.8 2985.81 14218.6 2988.75C14257.6 2999.48 14277 3033.92 14277 3092.09ZM14658.2 2183.41V2476.81C14658.2 2537.23 14629.2 2572.81 14570.9 2583.54L14281.4 2634.7C14265.9 2637.63 14252.1 2638.2 14240.3 2636.39C14226.6 2633.34 14215.9 2627.13 14208.1 2617.42C14198.5 2604.88 14193.6 2585.8 14193.6 2560.16V2265.06C14193.6 2205.77 14223 2171.1 14281.4 2161.16L14570.9 2110C14582.6 2108.19 14593.1 2107.74 14602.7 2108.87C14608.6 2108.87 14614 2109.77 14618.8 2111.69C14645.1 2119.48 14658.2 2143.31 14658.2 2183.41" fill="#D1D1D1"/>
<path fill-rule="evenodd" clip-rule="evenodd" d="M11011.2 4210.1C10957.5 4220.83 10917.5 4228.54 10891.2 4233.35C10840.5 4240.06 10808.3 4225.41 10794.4 4189.54C10666.9 3947.92 10585.7 3773.36 10550.5 3665.96C10484.2 3459.54 10483.2 3273.02 10547.7 3106.28C10600.3 3067.38 10659.2 3020.67 10724.5 2966.13C10737 3024.36 10757.1 3052.52 10784.5 3050.62C10800 3050.62 10826.9 3034.53 10865 3002.34C10908.7 2967.47 10940.8 2947.69 10961.2 2942.77C10996.5 2929.92 11026.6 2944.34 11051.8 2986.14C10918.4 2995.08 10840.5 3073.08 10817.8 3220.16C10809.3 3284.64 10816.1 3343.54 10838.3 3396.96C10862.8 3458.42 10902.8 3502.01 10958.4 3527.49C10868.8 3613.1 10839.5 3726.19 10870.6 3866.56C10884.3 3928.81 10931.2 4043.36 11011.2 4210.1V4210.1ZM9004.28 7738.29C8782 7865 8582.75 7909.82 8406.3 7872.78C8227.05 7834.98 8072.5 7711.23 7942.79 7501.49C7935 7490.02 7929.67 7476.86 7926.66 7462.03C7921.13 7442.78 7917.79 7423.88 7916.68 7405.34C7897.01 6888.9 7924.8 6372.38 8000.08 5855.71H8526.65C8514.14 5966.51 8503.63 6076.55 8495.25 6185.85C8483.74 6340.75 8472.12 6496.74 8460.16 6653.84C8448.76 6810.58 8447.31 6967.51 8455.8 7124.6C8462.84 7237.62 8513.02 7325.25 8606.33 7387.5C8706.91 7457.53 8822.46 7470.12 8953.21 7425.3C9102.17 7375.65 9251.58 7326 9401.67 7276.34C9410.61 7273.39 9419.32 7270.41 9427.81 7267.45C9433.85 7265.6 9439.1 7263.75 9443.91 7261.89C9601.14 7212.24 9756.14 7162.03 9909.13 7111.27C10064 7060.51 10218.3 7008.81 10372.1 6956.2C10483.2 6915.45 10594.9 6874.49 10707.1 6833.36C10750.8 6817.06 10794.3 6801.13 10837.2 6785.57C10839.2 6779.36 10841.8 6772.59 10845 6765.28C10843.8 6768.37 10842.6 6771.33 10841.5 6774.17C10844.8 6774.96 10848.3 6775.81 10851.7 6776.67C10970.4 6806.5 11070.6 6828.18 11152.1 6841.7C11148.6 6848.66 11144.9 6855.7 11141.3 6862.82C11075 6988.44 10990.7 7128.31 10888.4 7282.45C10878.3 7270.6 10868.1 7258.38 10857.2 7245.77C10796.9 7182.4 10748.7 7124.98 10712.7 7073.47L10709.9 7079.03V7080.69C10532.6 7174.07 10350.3 7258.38 10163.1 7333.59C9944.89 7421.04 9720.38 7496.07 9489.5 7558.69C9451.39 7568.33 9413.4 7578.51 9375.52 7589.26C9372.72 7590.36 9369.7 7591.3 9366.69 7592.04L9007.07 7737.1C9005.95 7737.84 9005.06 7738.23 9004.28 7738.23V7738.29ZM11599.8 7358.66C11585.3 7261.94 11583.5 7194.7 11594.2 7156.9C11677.3 7196.55 11748.3 7246.58 11807.7 7306.97L11762.1 7390.34C11735 7347.73 11701.5 7315.68 11661.5 7294.18C11659.6 7297.16 11656.7 7299.56 11652.6 7301.4C11638.9 7310.3 11627.2 7320.49 11617.6 7331.98C11611.7 7340.87 11605.7 7349.76 11599.8 7358.66V7358.66ZM14096.9 7937.25C14144.3 7927.61 14181.8 7898.35 14209.1 7849.44L14589.3 7158.01C14671.8 7188.41 14751.4 7220.64 14827.7 7254.72C14903.7 7288.82 14969.9 7322.35 15026.1 7355.32C14952 7416.84 14873.7 7463.15 14791 7494.28C14565 7765.14 14603 7964.85 14905 8093.43C14916.4 8096.38 14927.5 8099.92 14938.3 8103.99C14790.4 8122.52 14585 8119.01 14322 8093.43C14208.5 8082.69 14098.5 8069.52 13991.3 8053.97L14010.2 8046.75L14053 8007.28L14092.4 7944.47L14096.9 7937.25ZM11899.9 7140.77C11888.1 7119.3 11875.7 7097.25 11863.2 7074.64C11844.8 7043.51 11826.8 7013.87 11809.3 6985.71C11755.6 6894.19 11713.1 6823.05 11682.1 6772.28L11294.6 6004.72L12237 5256.57C12269.5 5325.19 12302.3 5395.82 12335 5468.35C12410.3 5638.81 12509.8 5873.18 12633.5 6171.46L12489 6194.8C12438.3 6202.58 12399.2 6231.86 12371.8 6282.62L11899.9 7140.77ZM12524 3819.79C12302.8 3753.52 12069.9 3636.96 11825.4 3470.21C11725.8 3403.16 11637 3334.09 11559.2 3262.9C11561 3256.98 11562.9 3251.62 11564.7 3246.81C11580.4 3193.06 11592.5 3154.5 11601.5 3131.14C11608.5 3110.8 11617.2 3094.71 11627.5 3082.86C11655 3044.64 11693.1 3047.1 11742.1 3090.02C11761.4 3101.97 11906 3203.23 12176.1 3394.11C12349.5 3514.13 12498.4 3608.23 12622.9 3676.41C12591.8 3727.93 12559 3775.76 12524 3819.79" fill="#F18D69"/>
<path fill-rule="evenodd" clip-rule="evenodd" d="M11104.1 6611.69C11111.8 6616.52 11119.1 6622.25 11125.8 6628.93C11153.2 6653.38 11184.9 6676.72 11220.8 6698.95C11262.6 6726.38 11227.7 6698.21 11115.8 6614.47C11111.6 6613.36 11107.8 6612.44 11104.1 6611.69V6611.69ZM11807.1 7306.97C11747.9 7246.58 11676.7 7196.56 11593.6 7156.91C11583 7194.7 11584.8 7261.95 11599.2 7358.65C11586.6 7379.78 11579.9 7404.05 11579.2 7431.46C11579.2 7440.36 11579.7 7449.62 11580.3 7459.25C11585.2 7497.42 11591.1 7552.45 11598 7624.33C11598.9 7631.35 11599.7 7638.76 11600.9 7646.56C11561.9 7696.18 11513.3 7703.43 11454.8 7668.22C11445.8 7660.46 11437.1 7653.21 11428.5 7646.56C11380.8 7607.28 11345.7 7581.33 11323 7568.74C11270.5 7602.08 11222.8 7617.64 11180.1 7615.42C11131.2 7610.6 11090.7 7583.93 11058.4 7535.39C11039.2 7481.67 11000.4 7418.67 10941.7 7346.42C10925 7326.05 10907.2 7304.75 10887.8 7282.52C10990.1 7128.37 11074.5 6988.51 11140.7 6862.9C11144.4 6855.79 11148.1 6848.74 11151.6 6841.78C11070 6828.26 10969.9 6806.58 10851.1 6776.75C10847.7 6775.88 10844.2 6775.05 10841 6774.26C10842.1 6771.41 10843.3 6768.46 10844.5 6765.37C10841.2 6772.68 10838.7 6779.45 10836.7 6785.65C10793.8 6801.22 10750.4 6817.14 10706.7 6833.45C10594.4 6874.57 10482.7 6915.52 10371.6 6956.28C10217.8 7008.88 10063.6 7060.58 9908.63 7111.34C9755.7 7162.1 9600.62 7212.31 9443.52 7261.95C9438.63 7263.8 9433.39 7265.66 9427.31 7267.51C9418.96 7270.48 9410.14 7273.45 9401.2 7276.4C9251.13 7326.05 9101.66 7375.7 8952.78 7425.35C8822.02 7470.18 8706.44 7457.58 8605.97 7387.55C8512.6 7325.31 8462.48 7237.68 8455.36 7124.68C8446.91 6967.58 8448.35 6810.66 8459.81 6653.94C8471.69 6496.84 8483.36 6340.86 8494.82 6185.97C8503.27 6076.67 8513.71 5966.63 8526.27 5855.84L9290.59 5856.12C9279.14 5889.3 9268.3 5922.75 9257.81 5956.43C9209.41 6114.27 9168.05 6274.16 9133.96 6436.07C9123.23 6488.68 9112.5 6541.86 9101.66 6595.57C9226.22 6575.94 9352.93 6563.72 9481.78 6558.9C9505.98 6557.05 9529.82 6556.12 9553.54 6556.12H9565.22C9725.66 6551.3 9881.93 6527.77 10034.3 6485.54C10228.1 6432.92 10423.8 6392.54 10621.7 6364.38C10793.8 6328.9 10924.9 6355.29 11014.6 6443.58C11060.7 6446.18 11260.6 6591.32 11614.2 6879.02C11721.4 6956.83 11809.8 7054.84 11879.8 7173.03L11807.1 7306.97ZM14937.5 8103.95C14926.8 8099.88 14915.7 8096.34 14904.2 8093.38C14602.3 7964.81 14564.3 7765.12 14790.3 7494.26C14873 7463.14 14951.2 7416.84 15025.3 7355.32C15040.1 7342.73 15054.8 7329.58 15069.2 7315.86C15167.9 7219.53 15242.3 7147.46 15292.7 7099.67C15476 6937.01 15660.8 6868.84 15846.7 6895.14C15870.1 6953.69 15861.4 7000.93 15820.6 7036.86C15796.2 7057.24 15745.9 7084.1 15670 7117.44C15593 7145.61 15540.3 7172.84 15512.1 7199.15C15469.2 7239.91 15455.5 7294.93 15471 7364.21C15526.7 7447.95 15649.5 7524.47 15839.5 7593.75C16044 7666.74 16177.6 7736.95 16240.2 7804.38C16190.5 7869.6 16100 7878.85 15968.4 7832.17C15812.5 7776.6 15711.6 7758.07 15665.6 7776.6C15708.6 7838.85 15795.2 7877.74 15925.6 7893.31C16079.8 7908.87 16175.4 7929.43 16212.4 7955.01C16211.4 7970.56 16209 7986.12 16205.2 8001.68C15995.6 8004.64 15885.8 8107.84 15876.2 8311.24C15832.1 8341.64 15796.9 8370.91 15770.6 8399.06C15655.8 8376.83 15462.1 8309.03 15189.4 8195.65C15098.5 8158.97 15014.7 8128.4 14937.5 8103.95V8103.95ZM11146.3 4433.63L11080.7 4329.68L11010.6 4210.24C10930.6 4043.47 10883.8 3929.03 10870.1 3866.81C10839 3726.38 10868.3 3613.38 10957.8 3527.79C10902.3 3502.16 10862.3 3458.65 10837.8 3397.14C10815.6 3343.73 10808.7 3284.85 10817.3 3220.36C10839.9 3073.26 10917.9 2995.3 11051.3 2986.36C11066.8 3024.62 11068.9 3091.5 11057.3 3187.1C11043.6 3273.76 11050.4 3339.56 11078 3384.38C11249.1 3390.34 11393.8 3373.65 11512 3334.32C11527.5 3322.87 11541.6 3301.54 11554.2 3270.42C11556.1 3268.16 11557.5 3265.77 11558.6 3263.15C11636.4 3334.32 11725.1 3403.46 11824.9 3470.45C12069.3 3637.22 12302.3 3753.8 12523.4 3820.08C12438.6 3919.38 12342.5 3988.99 12235.5 4029.04C12195.6 4044.66 12156.4 4074.82 12118.2 4119.64C12076.5 4178.88 12045.7 4222.28 12025.9 4249.69C11952.3 4353.76 11871 4394.77 11782.1 4372.47C11610.5 4459.26 11503.9 4507.41 11461.9 4517.07C11336.4 4549.97 11231 4522.2 11146.3 4433.63" fill="#FFB087"/>
<path fill-rule="evenodd" clip-rule="evenodd" d="M9367.02 7591.61C9367.02 7592.71 9366.46 7594.21 9365.34 7596.05C9351.68 7676.09 9339.45 7746.32 9328.67 7806.7C9328.67 7811.52 9328.34 7816.34 9327.56 7821.16L9004.65 7737.8C9005.43 7737.8 9006.32 7737.41 9007.43 7736.68L9367.02 7591.61ZM8000.35 5855.3C7925.13 6371.91 7897.34 6888.45 7917.01 7404.94C7918.12 7423.46 7921.46 7442.37 7927 7461.63C7821.05 7432.36 7712.49 7423.1 7601.34 7433.84C7499.07 7443.84 7395.7 7471.64 7291.22 7517.2C7298.25 7490.17 7305.66 7462.01 7313.44 7432.73C7357.16 7268.95 7423.3 7074.05 7511.86 6848.02C7709.71 6375.22 7829.57 6079.34 7871.44 5960.4C7882.6 5930.83 7894.72 5895.82 7907.84 5855.35C7938.22 5761.47 7973.91 5638.26 8014.81 5485.74C8071.49 5277.87 8119.3 5122.43 8158.2 5019.43C8161.98 5010.53 8165.31 5000.16 8168.2 4988.3C8166.42 4997.18 8165.43 5005.17 8165.43 5012.2C8096.39 5293.28 8041.37 5574.33 8000.35 5855.35V5855.3ZM9291.37 5855.57C9336.27 5723.42 9391.85 5587.9 9458.07 5449.01C9524.4 5310.15 9594.26 5160.91 9667.64 5001.3C9689.67 4953.57 9704.27 4906.42 9711.82 4859.86C9711.44 4865.24 9710.94 4870.63 9710.44 4875.97C9717.11 4888.58 9722.9 4903.21 9727.68 4919.89C9752.1 4975.46 9764.31 5023.25 9764.31 5063.28C9764.18 5056.43 9696.97 5429 9562.54 6181.01C9534.47 6317.73 9507.79 6443.53 9482.62 6558.39C9353.61 6563.21 9226.9 6575.45 9102.41 6595.07C9113.18 6541.35 9123.97 6488.18 9134.64 6435.56C9168.77 6273.64 9210.11 6113.75 9258.58 5955.91C9269.03 5922.21 9279.92 5888.77 9291.37 5855.57V5855.57ZM17327.2 7955.66C17321.3 7973.08 17285.8 7989.21 17220.5 8004.02C17205.8 8006.97 17192.6 8009.95 17181.1 8012.92C17080.7 8031.44 16961.2 8040.71 16822.6 8040.71C16718.6 8040.71 16626.4 8036.26 16546.4 8027.36C16519.4 8024.4 16493.6 8021.07 16469.1 8017.35C16453.6 8014.39 16439.9 8011.44 16428.1 8008.47C16417.2 8006.6 16407.7 8004.2 16399.1 8001.24C16355 7989.38 16329.6 7977.16 16323 7964.55V7955.66C16323 7929.37 16371.8 7907.5 16469.1 7890.08C16513.9 7882.31 16563.6 7875.99 16618.1 7871.19C16625.9 7880.82 16634.7 7890.46 16644.8 7900.07C16694.4 7949.73 16754.3 7974.55 16824.3 7974.55C16894.3 7973.82 16954.3 7948.61 17004.4 7898.98C17013 7890.08 17020.6 7880.82 17027.7 7871.19C17083.3 7875.99 17134.4 7882.31 17181.1 7890.08C17278.5 7907.5 17327.2 7927.87 17327.2 7951.22V7955.66ZM15877.3 8310.82C15886.9 8107.4 15996.6 8004.2 16206.3 8001.24H16214.6H16323V8205.77H16214.6C16126.1 8205.77 16081.8 8250.61 16081.8 8340.28V8610.41C16085.8 8691.55 16130.1 8732.12 16214.6 8732.12H16323V8936.65H16214.6C16156.4 8936.65 16105.3 8929.25 16061.1 8914.42C15942.2 8872.55 15880.9 8773.62 15877.3 8617.62V8613.73V8340.28V8310.82ZM10140 3490.33C10141.9 3545.97 10148.8 3605.76 10160.5 3669.95C10160.5 3677.63 10161.5 3683.93 10163.4 3688.83V3693.24C10163.4 3695.51 10164.4 3697.52 10166.2 3699.41C10167.2 3708.22 10168.8 3718.41 10170.6 3729.87C10192 3801.11 10256.5 3995.59 10364 4313.51C10471.5 4631.47 10627.6 4784.5 10832.5 4772.61C10843.4 4771.4 10864.6 4756.22 10895.8 4727.03C10984.4 4645.88 11068.1 4547.89 11147 4433C11231.9 4521.57 11337.1 4549.36 11462.7 4516.38C11504.6 4506.75 11611.4 4458.58 11782.8 4371.87L11801.8 4451.91C11944.7 4678.02 12089.9 4946.1 12237.3 5256.16L11294.9 6004.27C11254.9 5896.08 11215.9 5804.56 11177.6 5729.7C11129 5635.22 11076.2 5552.4 11018.6 5481.26C11076.2 5341.94 11205.6 5167.97 11407.2 4959.36C11556.5 4803.36 11666.1 4672.2 11736.2 4565.85C11727.3 4578.82 11718.1 4591.97 11708.4 4605.31C11632.5 4587.89 11584.7 4579.18 11565 4579.18C11450.1 4579.18 11293.8 4642.55 11095.9 4769.28C10897.4 4894.89 10770.2 4957.69 10714.7 4957.69C10451.6 4957.69 10253.8 4751.68 10121.1 4339.63C10038.1 4081.44 9996.61 3847.94 9996.61 3639.36C9996.61 3590.78 9998.75 3548.36 10002.6 3511.98C10048.7 3505.31 10094.4 3498.13 10140 3490.33" fill="#E19003"/>
<path fill-rule="evenodd" clip-rule="evenodd" d="M7290.87 7517.41C7244.18 7535.94 7197.5 7558.36 7150.82 7584.66C7148.96 7586.51 7146.56 7587.99 7143.59 7589.1C7132.84 7595.03 7121.55 7601.33 7109.69 7608C7063.01 7637.27 7014.29 7670.44 6963.53 7707.5C6975.39 7666.74 6987.06 7623.94 6998.54 7579.1C7051.15 7395.69 7112.65 7188.57 7183.05 6957.73C7461.67 6029.2 7646.74 5497.68 7738.25 5363.18C7816.05 5252.03 7886.26 5109.74 7948.86 4936.34C8043.34 4676.23 8095.02 4536.4 8103.91 4516.72C8171.05 4360.77 8260.08 4229.71 8371.23 4123.78C8506.5 3992.28 8690.12 3878.68 8921.98 3783.08C9317.68 3659.37 9673.92 3569.66 9990.7 3514.08C9988.92 3467.4 9987.92 3406.04 9987.92 3330.12C9987.92 3234.52 10012.3 3138.04 10060.7 3040.55C10064.8 3031.66 10069.3 3021.88 10074.1 3011.1C10149 3018.88 10223.5 3029.66 10297.5 3043.33C10221.6 3095.91 10172.4 3195.84 10150.2 3342.9C10141.3 3387.7 10137.9 3437.05 10139.6 3490.74C10094.1 3498.52 10048.4 3505.75 10002.4 3512.42C9998.37 3548.76 9996.26 3591.12 9996.26 3639.69C9996.26 3848.33 10037.8 4081.76 10120.7 4339.98C10253.5 4752.04 10451.3 4958.01 10714.3 4958.01C10769.9 4958.01 10897 4895.21 11095.5 4769.6C11293.4 4642.88 11449.8 4579.52 11564.6 4579.52C11584.3 4579.52 11632.1 4588.2 11708 4605.65C11717.7 4592.31 11726.9 4579.19 11735.8 4566.19C11665.7 4672.56 11556 4803.73 11406.8 4959.68C11205.2 5168.32 11075.8 5342.29 11018.3 5481.57C10970.5 5546.81 10885.7 5634.38 10763.8 5744.43C10641.8 5854.47 10550.7 5929.51 10490.3 5969.52C10432.2 6008.43 10354.4 6048.44 10256.9 6089.57C10159.5 6129.59 10078.5 6161.65 10014 6185.72C9781.07 6277.62 9631.57 6401 9565.55 6555.88H9553.88C9530.2 6555.88 9506.3 6556.81 9482.19 6558.66C9507.42 6443.8 9534.09 6318 9562.21 6181.28C9696.6 5429.32 9763.84 5056.7 9763.95 5063.59C9763.95 5023.57 9751.73 4975.78 9727.27 4920.2C9722.49 4903.53 9716.71 4888.85 9710.04 4876.29C9710.6 4870.96 9711.04 4865.51 9711.49 4860.17C9728.83 4751.13 9706.38 4645.42 9644.24 4543.04C9619.35 4502.14 9592.22 4463.57 9562.77 4427.22C9500.41 4346.74 9420.39 4273.71 9322.68 4208.24C9164.85 4104.08 9003.57 4049.06 8838.62 4043.17C8405.13 4132.87 8182.16 4436.89 8169.49 4955.21C8169.49 4966 8168.94 4977.11 8167.83 4988.56C8164.94 5000.45 8161.6 5010.79 8157.82 5019.68C8118.92 5122.73 8071.12 5278.12 8014.44 5485.99C7973.53 5638.49 7937.85 5761.68 7907.48 5855.56C7894.36 5896.03 7882.23 5931.04 7871.07 5960.61C7829.2 6079.55 7709.35 6375.41 7511.5 6848.2C7422.95 7074.22 7356.81 7269.12 7313.1 7432.88C7305.32 7462.16 7297.9 7490.32 7290.87 7517.36" fill="#F8B504"/>
<path fill-rule="evenodd" clip-rule="evenodd" d="M13087 7078.75C13124 6992.05 13188.4 6921.84 13279.9 6868.1C13371.8 6814.75 13464.9 6793.82 13559.4 6805.29C13652.8 6817.16 13719 6857.73 13757.9 6927.01C13799 6997.04 13801 7075.41 13763.9 7162.12C13727 7249.94 13662.2 7320.16 13569.4 7372.76C13477.9 7426.12 13385.3 7447.06 13291.6 7435.56C13197 7423.72 13130.4 7383.32 13091.4 7314.41C13051.4 7245.12 13050.1 7166.56 13087 7078.75ZM15136.2 5875.98L12603.5 6277.83C12552.8 6285.61 12513.2 6314.89 12485.2 6365.64L11454.2 8239.28L11355.3 8255.4C11351.1 8256.5 11347.4 8257.05 11343.6 8257.05C11324 8258.17 11312.1 8253.73 11308.1 8243.73C11305.5 8237.78 11305.5 8229.64 11308.1 8219.26C11310.2 8215.19 11311.8 8211.12 11312.5 8207.04C11315.5 8202.23 11318.3 8197.03 11321.4 8191.48L11330.3 8175.36L11334.7 8167.57L11341.9 8154.8L11349.2 8141.45L11371.4 8100.88L11378.6 8085.87L11395.9 8056.98L11397.6 8052.52L11406.3 8037.52L11413.7 8023.07L11434.2 7985.29L11442.5 7970.26L11469.2 7922.47L11479.2 7904.7L11490.9 7883L11568.6 7742.39L11635.9 7618.46L11647.6 7599L11729.2 7448.93L11762.6 7390.02L11808.3 7306.64L11881.1 7172.71L11900.5 7140.47L12372.4 6282.31C12399.7 6231.56 12438.9 6202.28 12489.6 6194.5L12634.1 6171.16L15120.6 5776.54C15171 5768.76 15182.7 5790.25 15155.5 5841.02L15136.2 5876.03" fill="#E8EFFD"/>
<path fill-rule="evenodd" clip-rule="evenodd" d="M13085.6 7079.24C13048.7 7167.05 13050.1 7245.6 13090 7314.88C13129.1 7383.79 13195.7 7424.18 13290.2 7436.04C13383.9 7447.52 13476.5 7426.59 13568 7373.23C13660.8 7320.63 13725.5 7250.41 13762.5 7162.6C13799.7 7075.89 13797.5 6997.53 13756.5 6927.5C13717.5 6858.23 13651.4 6817.66 13558 6805.8C13463.6 6794.31 13370.4 6815.25 13278.5 6868.59C13187 6922.33 13122.7 6992.53 13085.6 7079.24V7079.24ZM14588.3 7158.15L14208.2 7849.54C14180.9 7898.42 14143.4 7927.7 14096 7937.33H14089.9L11459.1 8355.28C11408.3 8363.04 11397.2 8341.57 11425.7 8290.8L11452.9 8239.66L12483.8 6366.14C12512 6315.39 12551.5 6286.11 12602.2 6278.33L15134.7 5876.51L15233 5860.4C15283.5 5852.62 15294.6 5874.11 15266.3 5924.87L14588.3 7158.12" fill="#AAC5FC"/>
<path fill-rule="evenodd" clip-rule="evenodd" d="M17026.7 7871.75C17019.6 7881.38 17011.8 7890.64 17003.3 7899.55C16953.3 7949.16 16893.3 7974.38 16823.3 7975.11C16753.3 7975.11 16693.5 7950.3 16643.7 7900.64C16633.8 7891.01 16624.9 7881.38 16617 7871.75C16584.1 7827.65 16567.6 7777.44 16567.6 7721.12C16565.7 7463.63 16642.3 7255.58 16797.1 7097C16857.4 7029.56 16926.3 6986.23 17003.3 6966.95C17129.7 6908.42 17212.4 6830.41 17251.7 6732.97C17275.8 6654.05 17275.3 6589.77 17250.1 6540.12C17187.8 6458.97 17131.8 6400.44 17082.2 6364.5L17078.9 6363.39C17012.6 6317.45 16900.5 6248.16 16742.7 6155.52C16496.2 6010.29 16366.2 5795.39 16352.5 5510.84C16341.8 5372.63 16367.2 5247.95 16428.7 5136.81H17210.6C17151.3 5178.68 17087.1 5219.6 17017.8 5259.63L17016.1 5261.29C16915.7 5317.61 16864.6 5392.09 16862.7 5484.71C16867.6 5586.97 16913.9 5664.05 17001.7 5715.92C17172.1 5815.95 17293.7 5891.36 17366.7 5942.11L17368.4 5943.78C17456.2 6000.1 17551.8 6095.5 17655.2 6229.99C17794.4 6396.72 17822.1 6614.97 17737.9 6884.7V6886.36C17669.1 7130.16 17483.5 7316.35 17181.1 7444.91C17175.5 7446.77 17169.9 7448.62 17163.9 7450.47C17105.3 7520.88 17076.7 7609.98 17077.7 7717.8C17077.7 7775.59 17060.7 7826.91 17026.7 7871.75" fill="url(#paint0_linear)"/>
<path fill-rule="evenodd" clip-rule="evenodd" d="M8526.99 5855.17H8000.33C8041.35 5574.16 8096.37 5293.1 8165.41 5012.03C8165.41 5004.99 8166.4 4997.01 8168.17 4988.12C8169.3 4976.64 8169.85 4965.53 8169.85 4954.78C8182.52 4436.4 8405.5 4132.38 8839 4042.65C9003.95 4048.57 9165.23 4103.7 9323.08 4207.78C9420.72 4273.31 9500.77 4346.31 9563.2 4426.76C9592.65 4463.1 9619.72 4501.73 9644.64 4542.64C9706.82 4645.03 9729.22 4750.74 9711.85 4859.73C9704.3 4906.29 9689.7 4953.44 9667.67 5001.18C9594.29 5160.78 9524.43 5310.02 9458.1 5448.89C9391.88 5587.78 9336.3 5723.29 9291.4 5855.45L8526.99 5855.17ZM11081.6 4328.94L11147.2 4432.88C11068.2 4547.76 10984.5 4645.76 10895.9 4726.91C10864.7 4756.1 10843.6 4771.28 10832.6 4772.49C10627.7 4784.37 10471.6 4631.34 10364.1 4313.39C10256.7 3995.46 10192.1 3800.99 10170.7 3729.74C10168.9 3718.29 10167.3 3708.09 10166.3 3699.28C10164.5 3697.39 10163.5 3695.38 10163.5 3693.11V3688.71C10161.6 3683.8 10160.6 3677.51 10160.6 3669.83C10148.9 3605.63 10142 3545.84 10140.1 3490.2C10138.3 3436.46 10141.7 3387.24 10150.7 3342.43C10173 3195.28 10222 3095.46 10297.9 3042.85C10344.6 3009.87 10410.5 2979.03 10495.3 2950.58C10581.1 2925.41 10654.4 2921.5 10714.8 2938.87L10724.8 2965.56C10659.6 3020.06 10600.6 3066.76 10548 3105.66C10525.5 3101.88 10506.4 3107.29 10490.8 3121.77C10477.4 3133.6 10469.7 3159.41 10467.5 3199.06C10450.1 3622.88 10592.8 4088.23 10895.9 4595.13C10953.5 4539.54 10992 4499.53 11011.6 4475.07C11049.4 4426.53 11072.7 4377.81 11081.6 4328.89V4328.94ZM6508.2 8126.83C6495.22 8140.53 6482.45 8154.05 6469.85 8167.38C6441.68 8151.84 6417.42 8132.93 6397.05 8110.69C6328.88 8028.81 6319.98 7901.16 6370.36 7727.74C6391.86 7654.76 6428.54 7561.75 6480.41 7448.73C6611.94 7139.71 6727.9 6781.96 6828.32 6375.47C6929.48 5971.23 7040.08 5575.67 7160.12 5188.83C7258.31 4867.21 7411.7 4557.24 7620.3 4258.97C7821.12 3970.72 8067.67 3723.12 8360.01 3516.44C8657.25 3311.89 8973.8 3168.14 9309.83 3085.07C9578.77 3018.73 9833.78 2993.93 10074.6 3010.67C10069.8 3021.37 10065.4 3031.19 10061.2 3040.13C10012.8 3137.55 9988.47 3234.1 9988.47 3329.64C9988.47 3405.67 9989.48 3466.97 9991.24 3513.67C9674.43 3569.18 9318.16 3658.93 8922.45 3782.66C8690.59 3878.2 8506.96 3991.86 8371.68 4123.4C8260.52 4229.33 8171.49 4360.31 8104.36 4516.31C8095.46 4535.94 8043.78 4675.82 7949.29 4935.94C7886.69 5109.35 7816.49 5251.64 7738.68 5362.8C7647.17 5497.3 7462.1 6028.84 7183.46 6957.38C7113.05 7188.22 7051.56 7395.34 6998.94 7578.77C6987.46 7623.61 6975.8 7666.4 6963.93 7707.17C6823.51 7812.38 6671.59 7952.26 6508.2 8126.8V8126.83ZM16323.1 8732.08V7964.51C16329.8 7977.12 16355.2 7989.35 16399.2 8001.2C16407.8 8004.16 16417.4 8006.57 16428.2 8008.43C16440 8011.4 16453.7 8014.36 16469.2 8017.32C16493.8 8021.03 16519.6 8024.36 16546.5 8027.32C16626.5 8036.22 16718.7 8040.68 16822.8 8040.68C16961.4 8040.68 17080.8 8031.4 17181.2 8012.88C17192.7 8009.91 17205.9 8006.93 17220.6 8003.99C17286 7989.17 17321.5 7973.05 17327.4 7955.62V9152.83C17253.2 9206.55 17169 9242.14 17074.5 9259.54C16922.6 9284.75 16771 9287.7 16619.9 9268.43C16508.7 9260.67 16409.8 9225.46 16323.1 9162.84V8732.08" fill="#FDCF3C"/>
<path fill-rule="evenodd" clip-rule="evenodd" d="M6318.72 2713.42H6290.94C6118.66 2713.42 6016.4 2718.24 5984.16 2727.87C5860.41 2753.07 5565.7 3073.2 5099.99 3688.26C4890.28 3962.06 4724.67 4176.98 4603.15 4332.95C4642.04 4217.73 4710.77 4061.74 4809.32 3864.99C4990.5 3511.15 5198.9 3177.88 5434.53 2865.15C5702.41 2505.76 5931.93 2278.29 6123.11 2182.67C6352.07 2071.46 6498.79 2167.08 6563.25 2469.39C6578.82 2549.15 6567.52 2605.03 6529.36 2637.33C6526.4 2637.33 6524.91 2638.73 6524.91 2641.68L6385.98 2698.42C6366.71 2705.47 6344.29 2710.47 6318.72 2713.42V2713.42ZM3336.08 929.883C3265.7 1029.3 3163.8 1139.38 3030.43 1260.56C3001.14 1285.83 2975.22 1309.56 2952.62 1331.75C2819.25 1444.08 2707.72 1509.37 2618.06 1527.91H2605.28C2457.81 1550.23 2353.9 1507.26 2293.51 1399C2261.64 1287.1 2245.72 1234.44 2245.72 1241.18C2239.78 1206.36 2270.34 1112.42 2337.42 959.37L2350.76 929.883C2354.45 923.986 2357.79 919.774 2360.75 917.106C2411.52 811.936 2465.61 712.943 2523.03 620.411C2533.03 604.825 2544.33 587.133 2556.93 567.616C2576.21 539.392 2596.58 509.204 2618.06 476.909C2930.76 56.0887 3246.42 -85.7303 3565.06 51.7348C3670.28 175.58 3847.19 372.862 4095.79 643.72C4143.58 707.749 4187.87 765.178 4228.61 816.008C4210.09 806.32 4192.68 795.226 4176.37 782.588C3982.24 645.966 3837.54 585.308 3742.33 600.894C3668.98 610.863 3533.55 720.526 3336.08 929.883V929.883ZM3863.49 2466.15C3752.34 2512.06 3610.62 2567.11 3438.34 2631.14C2914.09 2821.23 2616.39 2960.17 2545.26 3047.98C2502.28 3141.36 2459.3 3227.14 2416.32 3305.31C2376.31 3335.33 2339.82 3367 2306.85 3400.35C2229.04 3485.2 2174.95 3538.18 2144.57 3559.3C2079.36 3606.35 2001.37 3629.32 1910.6 3628.21C1777.23 3624.14 1694.98 3584.69 1663.85 3509.83C1659.02 3435.73 1657 3395.73 1657.74 3389.79C1660.7 3201.93 1780.19 3013.9 2016.2 2825.68C2222.56 2657.11 2478.2 2520.21 2783.12 2414.9C3086.17 2309.73 3340.53 2269.29 3546.16 2293.86C3714.74 2311.27 3820.51 2368.7 3863.49 2466.15V2466.15ZM2958.74 4475.75C2859.43 4533.55 2710.87 4626.19 2513.02 4753.64C2274.05 4916.3 2130.87 5008.37 2083.44 5029.85C1860.02 5154.74 1664.04 5213.64 1495.46 5206.59C1323.93 5175.48 1180.71 5167.7 1065.86 5183.25C1015.1 5186.22 893.778 5241.81 701.857 5349.98C584.028 5420.02 499.757 5469.67 448.986 5498.93C353.763 5546.73 269.477 5572.12 196.129 5575.08C100.906 5578.04 38.6639 5543.04 9.38927 5470.04L0.501467 5370.55C-2.4611 5277.92 100.723 5136.2 310.055 4945.38C520.874 4753.08 774.292 4567.84 1070.31 4389.61C1832.43 3931.65 2407.25 3770.85 2794.77 3907.19C2871.84 3962.02 2942.05 4022.43 3005.4 4088.38V4147.28C3008.36 4261.05 2992.8 4370.53 2958.73 4475.75H2958.74ZM16877.3 9764.02L14069.8 9269.91L14058.1 9267.13L16060.4 8914.77C16104.5 8929.59 16155.6 8936.99 16213.8 8936.99H16322.1V9052.61C16252.2 9061.13 16186.5 9072.24 16124.9 9085.96C15939.7 9127.07 15847 9176.36 15847 9233.78C15847 9291.2 15939.7 9340.3 16124.9 9381.07C16310.2 9421.08 16533.2 9441.09 16794.1 9441.09C17056.3 9441.09 17279.6 9421.08 17463.6 9381.07C17649 9340.3 17741.5 9291.2 17741.5 9233.78C17741.5 9176.36 17649 9127.07 17463.6 9085.96C17420 9076.31 17374.2 9067.97 17326.5 9060.95V8849.19L19697.2 9267.13L16877.3 9764.02" fill="#D3D727"/>
<path fill-rule="evenodd" clip-rule="evenodd" d="M17327.5 9060.71C17375.3 9067.73 17421.1 9076.07 17464.8 9085.73C17650.1 9126.83 17742.6 9176.12 17742.6 9233.55C17742.6 9290.98 17650.1 9340.08 17464.8 9380.84C17280.7 9420.85 17057.4 9440.86 16795.1 9440.86C16534.2 9440.86 16311.2 9420.85 16125.9 9380.84C15940.8 9340.08 15848 9290.98 15848 9233.55C15848 9176.12 15940.8 9126.83 16125.9 9085.73C16187.4 9072.01 16253.2 9060.89 16323.2 9052.38V9162.97C16410 9225.59 16508.9 9260.8 16620.1 9268.57C16771.2 9287.83 16922.7 9284.88 17074.6 9259.67C17169.2 9242.27 17253.4 9206.69 17327.5 9152.97V9060.71ZM14070.7 9269.68L16878.4 9763.81V14352.5L14058 13855.1V9266.88L14070.7 9269.65" fill="#B9BD22"/>
<path fill-rule="evenodd" clip-rule="evenodd" d="M10962.7 8040.96L11117.8 8023.16L11230.1 8059.84L11092.8 8073.18L10962.7 8040.96ZM10917.2 8160.45H10924.4V8157.67L11047.2 8143.21L11173.4 8171L11167.3 8173.78L11028.3 8189.9L10917.2 8160.45ZM10769.9 8013.17L10892.7 7995.37L10927.7 7997.04L10963.8 8013.17L10841.6 8027.61L10772.7 8018.72L10769.9 8013.17ZM11135 8122.64L10896.6 8153.21L10766.6 8132.66L11021.1 8093.19L11135 8120.98V8122.64ZM11055 8090.41L11168.9 8069.85L11186.2 8075.96L11300.1 8099.31L11185 8113.75H11168.9L11055 8093.19V8090.41ZM11067.8 7974.81L11197.8 8008.71L11060.6 8021.5L10927.7 7995.37L11044.4 7974.81H11067.8ZM10726 8119.87L10608.7 8090.41L10686.5 8084.85L10921.6 8046.51L11065 8081.52L10744.9 8119.87H10726ZM10601.5 8046.51V8037.61L10744.9 8014.27L10763.8 8027.61L10876.6 8045.39L10663.2 8075.96L10641 8069.85L10638.2 8080.41L10494.8 8097.63L10440.9 8084.85L10443.7 8057.06L10570.9 8039.28L10601.5 8046.51ZM11220.1 8164.88L11083.9 8144.32L11196.7 8119.87L11334 8150.43L11220.1 8164.88ZM11222.8 7997.04L11094.5 7973.69L11272.3 7942.57L11405.7 7972.03L11253.4 7998.15L11222.8 7997.04ZM14092.2 7944.24L14011.6 8030.38L13950.5 8058.17L13048.5 8181H13045.7L11332.3 8414.99L11320.6 8410.55L11300.1 8388.87L11299 8338.85L11342.9 8257.15C11346.7 8257.15 11350.4 8256.59 11354.5 8255.48L11453.5 8239.36L11426.2 8290.49C11397.7 8341.26 11408.8 8362.74 11459.6 8354.97L14090.5 7937.01H14096.6L14092.2 7944.24ZM11281.2 8053.73L11259.5 8050.95L11148.4 8021.5L11260.6 8007.04L11390.7 8030.38L11281.2 8053.73ZM11307.3 8219.35C11304.7 8229.73 11304.7 8237.87 11307.3 8243.82L11295.6 8245.47L11274 8243.82L11225.6 8227.69L11307.3 8219.35ZM11311.8 8207.12L11201.2 8223.24L11072.2 8199.9L11269.5 8166.55H11276.7L11329.5 8175.44L11320.6 8191.56C11317.6 8197.12 11314.8 8202.31 11311.8 8207.12ZM11341.2 8154.89L11334 8167.66L11316.2 8164.88L11334 8154.89H11341.2ZM11370.7 8100.97L11348.4 8141.54L11249 8116.53L11370.7 8100.97ZM11395.1 8057.06L11377.9 8085.96L11332.3 8087.63L11220.1 8074.3L11230.1 8068.74L11342.9 8045.39H11350.1L11395.1 8057.06ZM11405.7 8037.61L11396.8 8052.62L11386.8 8049.29L11396.8 8037.61H11405.7ZM11433.5 7985.38L11412.9 8023.16L11310.6 7999.82L11433.5 7985.38ZM11468.5 7922.56L11441.8 7970.36H11427.3L11303.4 7941.46L11468.5 7922.56ZM11490.1 7883.1L11058.9 7944.24L11006.6 7942.57L10424.8 7809.74L11290.1 7693.02L11325.1 7694.13L11568 7742.49L11490.1 7883.1Z" fill="#869DB8"/>
<path fill-rule="evenodd" clip-rule="evenodd" d="M10962.7 8040.95L11092.8 8073.18L11230.1 8059.84L11117.8 8023.16L10962.7 8040.95ZM10917.2 8160.45L11028.3 8189.89L11167.3 8173.78L11173.4 8171L11047.2 8143.21L10924.4 8157.67V8160.45H10917.2ZM10601.5 8046.51L10570.9 8039.28L10443.7 8057.06L10440.9 8084.85L10494.8 8097.63L10638.2 8080.4L10641 8069.84L10663.2 8075.96L10876.6 8045.39L10763.8 8027.6L10744.9 8014.27L10601.5 8037.61V8046.51ZM10726 8119.87H10744.9L11065 8081.52L10921.6 8046.51L10686.5 8084.85L10608.7 8090.41L10726 8119.87ZM11067.8 7974.81H11044.4L10927.7 7995.37L11060.6 8021.5L11197.8 8008.71L11067.8 7974.81ZM11055 8090.41V8093.19L11168.9 8113.75H11185L11300.1 8099.31L11186.2 8075.96L11168.9 8069.84L11055 8090.41ZM11135 8122.64V8120.98L11021.1 8093.19L10766.6 8132.66L10896.6 8153.21L11135 8122.64ZM10769.9 8013.17L10772.7 8018.72L10841.6 8027.6L10963.9 8013.17L10927.7 7997.04L10892.7 7995.37L10769.9 8013.17ZM3805.17 7182.81C3823.69 7255.81 3842.22 7331.39 3860.75 7409.57C3695.13 7419.21 3544.53 7436.25 3408.92 7460.7C3344.45 7472.2 3288.51 7484.79 3241.08 7498.5C3139.57 7470.34 3080.47 7438.1 3063.8 7401.79C3060.83 7396.23 3059.35 7390.5 3059.35 7384.56V7372.89C3074.17 7316.2 3190.7 7268.4 3408.92 7229.5C3528.96 7208.01 3661.04 7192.45 3805.17 7182.81ZM4069.71 7169.47C4082.32 7243.58 4094.53 7320.09 4106.39 7399.01C4070.08 7400.12 4034.51 7401.06 3999.69 7401.79C3981.9 7323.98 3963.75 7248.03 3945.22 7173.92C3986.35 7172.07 4027.84 7170.58 4069.71 7169.47ZM4557.67 7173.92C4583.16 7174.82 4608.26 7175.92 4632.97 7177.25C4607.67 7199.93 4583.5 7223.08 4560.44 7246.72C4559.54 7222.31 4558.62 7198.04 4557.67 7173.92ZM4390.94 7168.36C4393.16 7244.32 4394.64 7321.2 4395.39 7399.01C4350.55 7398.28 4304.8 7397.9 4258.11 7397.9H4239.22C4225.5 7319.72 4211.8 7242.66 4198.09 7166.69H4258.11C4304.05 7166.69 4348.34 7167.25 4390.94 7168.36ZM11220.1 8164.88L11334 8150.43L11196.7 8119.87L11083.9 8144.32L11220.1 8164.88ZM11222.8 7997.04L11253.4 7998.15L11405.7 7972.03L11272.3 7942.57L11094.5 7973.69L11222.8 7997.04ZM11395.1 8057.06L11350.1 8045.39H11342.9L11230.1 8068.74L11220.1 8074.3L11332.3 8087.63L11377.9 8085.96L11370.7 8100.97L11249 8116.53L11348.4 8141.54L11341.2 8154.89H11334L11316.2 8164.88L11334 8167.66L11329.5 8175.44L11276.7 8166.55H11269.5L11072.2 8199.9L11201.2 8223.24L11311.8 8207.12C11311.1 8211.2 11309.5 8215.27 11307.3 8219.35L11225.6 8227.69L11274 8243.82L11295.6 8245.47L11307.3 8243.82C11311.4 8253.81 11323.2 8258.26 11342.9 8257.14L11299 8338.84L11300.1 8388.87L11320.6 8410.55L11332.3 8414.99L13045.7 8181H13048.5L13950.5 8058.17L14011.6 8030.38L14092.2 7944.24L14052.7 8007.04L14009.9 8046.51L13991 8053.73L13976.6 8059.84L13950.5 8077.08L13049.6 8199.9L13021.8 8203.23L11332.3 8431.11C11326.4 8432.96 11320.6 8434.44 11315.1 8435.56C11269.2 8443.33 11213.1 8439.44 11146.7 8423.88L10176.3 8213.25L9696.73 8109.31L9545.01 8075.96C9493.21 8067.07 9462.98 8040.2 9454.42 7995.37L9462.76 7935.36H9474.43L11162.8 8303.83L11300.1 8318.28L11309 8294.94L11320.6 8274.38L11257.8 8276.04L10372 8080.4V8077.08L10338.6 8073.18L10328.1 8068.74L10331.4 8062.62L11478.5 7904.79L11468.5 7922.56L11303.4 7941.46L11427.3 7970.36H11441.8L11433.5 7985.38L11310.6 7999.82L11412.9 8023.16L11405.7 8037.61H11396.8L11386.8 8049.29L11396.8 8052.62L11395.1 8057.06ZM11281.2 8053.73L11390.7 8030.38L11260.6 8007.04L11148.4 8021.5L11259.5 8050.95L11281.2 8053.73Z" fill="#A7C4E4"/>
<path fill-rule="evenodd" clip-rule="evenodd" d="M9462.93 7935.31V7926.97L9467.37 7920.85L9476.26 7916.4L9494.04 7910.85L9508.49 7906.39L11429.2 7646.3C11437.7 7652.95 11446.4 7660.2 11455.3 7667.96C11513.9 7703.16 11562.6 7695.93 11601.5 7646.3C11600.4 7638.51 11599.5 7631.08 11598.7 7624.06L11610.4 7622.95L11635.4 7618.51L11568.1 7742.43L11325.2 7694.08L11290.2 7692.98L10424.9 7809.68L11006.8 7942.53L11059 7944.19L11490.3 7883.05L11478.6 7904.74L10331.5 8062.57L10328.2 8068.7L10338.8 8073.13L10372.1 8077.03V8080.36L11258 8276L11320.8 8274.34L11309.1 8294.9L11300.2 8318.24L11163 8303.79L9474.61 7935.31H9462.93ZM2209.21 12684.6C2886.5 13568.3 3877.08 14103.6 5180.94 14290.8C7012.71 14553.1 8843.58 14553.7 10673.6 14292.5C10836.3 14269.1 10993.7 14240.4 11146 14206.3C11244.2 14330 11379.9 14404 11553.3 14428.1C11681.2 14390.3 11820.7 14425.9 11971.8 14534.8C11995.9 14550.4 12060.2 14601.5 12164.7 14688.2C12238.8 14746.8 12302.4 14791.2 12355.9 14821.6C12566.4 14944.2 12774.1 15020.7 12978.9 15051.1C13230.1 15080.4 13440.5 15028.7 13610.2 14896C13696.9 14861.9 13761.3 14803 13803 14719.3C13823.5 14678.2 13832.2 14636.6 13829.1 14594.8C13829.1 14549.2 13816.1 14505.9 13789.8 14464.8C13786.8 14460 13783.9 14455.1 13780.9 14450.3C13817.1 14457 13852.3 14464.2 13886.4 14472C14279.8 14558.7 14476.7 14662.9 14476.7 14784.9C14476.7 14907.5 14279.8 15012.2 13886.4 15098.9C13493.8 15186 13019.2 15229.5 12462.6 15229.5C11905.3 15229.5 11430.4 15186 11037.6 15098.9C10705.2 15025.9 10513.4 14939.7 10461.8 14840.5C9653.74 14916.4 8773.91 14954.4 7822.03 14954.4C5975.42 14954.4 4399.29 14811.7 3093.65 14526.5C1788.73 14239.7 1136.29 13893.6 1136.29 13488.2C1136.29 13189.2 1494.02 12921.3 2209.46 12684.6L2209.21 12684.6ZM16877.9 14352.6L19696.1 13855.1V13773.4L21008.9 14000.2L16999.6 14692.7L13823.4 14143.6C13752.3 14174.7 13675.9 14204.9 13593.9 14234.2C13521.6 14166.7 13434.3 14098.3 13332.1 14029.1C13061.4 13840.1 12891.3 13712.1 12822 13645C12799.7 13593.1 12778.8 13550.7 12759.2 13517.8C13071.1 13299.6 13343.5 13038.8 13576.1 12735.8C13765.1 12803.9 13925.6 12875 14057.4 12949.2V13855.1L16877.9 14352.6" fill="#DBE8F9"/>
<path fill-rule="evenodd" clip-rule="evenodd" d="M7116.91 9613.29C7079.12 9667 7064.48 9714.8 7073.01 9756.7C7090.79 9798.5 7134.14 9819.51 7203.06 9819.51C7246.03 9886.98 7318.65 9910.21 7420.91 9889.54C7475.74 9884.65 7558.18 9861.41 7668.22 9819.51C7747.88 9790.16 7865.33 9757.04 8020.55 9720.02H8009.99L8105.02 9707.24C8213.29 9682.79 8340 9672.56 8485.16 9676.67L8491.27 9670.56C8736.58 9853.63 8947.44 10009.9 9123.72 10139.6H9052.03C8129.48 10139.6 7341.86 10068.1 6688.96 9925.11C6036.14 9782.83 5709.72 9610.32 5709.72 9407.65C5709.72 9357.18 5730.01 9308.46 5770.58 9261.48H4759.66C4752.22 9189.85 4741.21 9105.55 4726.59 9008.59C4725.85 9003.41 4724.92 8998.96 4723.81 8995.26C5067.27 9134.95 5419.98 9142.36 5781.97 9017.49C5864.95 8987.84 5942.58 8946.72 6014.83 8894.11C6048.18 8869.65 6067.81 8838.35 6073.74 8800.17C6078.75 8768.64 6083.57 8737.15 6088.19 8705.69H6208.79C6316.97 8726.44 6393.67 8769.61 6438.87 8835.19C6459.17 8864.89 6472.68 8898.42 6479.44 8935.8C6509.84 8927.72 6541.14 8919.75 6573.36 8911.89C6595.59 8974.14 6619.86 9036.02 6646.17 9097.52C6715.45 9252.41 6806.59 9383.57 6919.6 9491.02C6977.03 9543.63 7042.79 9584.39 7116.89 9613.29H7116.91ZM4440.18 9261.48H4300.96C4196.85 9238.88 4121.27 9196.26 4074.21 9133.65C4041.61 9090.3 4025.31 9042.32 4025.31 8989.7C4025.31 8915.59 4041.61 8856.87 4074.21 8813.53C4113.69 8761.43 4178.44 8727.14 4268.45 8710.7C4275.72 8733.36 4286.18 8759.67 4299.85 8789.61C4311.7 8816.3 4326.34 8845.75 4343.75 8877.98C4384.88 8951.35 4411.92 9018.78 4424.89 9080.3C4435.43 9133.2 4440.53 9193.59 4440.18 9261.48ZM13575.9 12735.7C13343.3 13038.7 13070.9 13299.5 12758.9 13517.7C12750 13502.8 12741.7 13489.7 12733.9 13478.2C12692.1 13418.5 12648.7 13372.2 12603.9 13339.3C12558.3 13261.5 12479.9 13187 12368.8 13115.9C12235.4 12921 12113.1 12715.4 12002 12498.9C11888 12274.7 11789.4 12045.7 11706.3 11812C11694.9 11777.9 11683.2 11744.2 11671.3 11710.8C12470.5 11545.2 13265.8 11296.8 14057.2 10965.5V11935.9C13921.6 12228.3 13761.2 12494.8 13575.9 12735.7ZM11278.4 9953.99C11241.4 9885.74 11199.9 9820.04 11153.9 9756.68C11036.1 9595.12 10909.9 9442.64 10775.4 9299.25C10993.7 9232.19 11177.5 9180.13 11326.8 9143.07C11373.4 9130.11 11442.6 9109.17 11534.1 9080.28C11624.9 9055.81 11715 9033.4 11804.7 9013.02C11819.2 9008.95 11832.7 9005.06 11845.3 9001.35C12209.8 9121.03 12392.1 9256.45 12392.1 9407.63C12392.1 9610.3 12066.1 9782.8 11414 9925.09C11369.5 9934.64 11324.4 9944.32 11278.4 9953.99ZM1365.41 10861.6C2136.43 11377.4 3151.83 11678.6 4411.5 11765.3C5671.62 11850.9 7211.17 11913.7 9030.38 11953.7C9426.85 11962.6 9821.99 11951.3 10215.8 11919.8C10268.5 12069.9 10346.4 12195.1 10449.8 12295.5C10618.4 12420.3 10785.5 12575.9 10951.1 12761.8C11062.2 12890.4 11207.5 13069.2 11386.8 13298.1C11365.3 13342.9 11330.1 13404.5 11281.2 13482.7C11225.6 13557.5 11190 13615.8 11174.5 13657.7C11017.8 13807 10993 13968.4 11100 14141.8C11113.8 14164.1 11128.9 14185.5 11145.6 14206.3C10993.3 14240.4 10835.9 14269.1 10673.2 14292.5C8843.31 14553.7 7012.43 14553.1 5180.66 14290.8C3876.86 14103.6 2886.29 13568.3 2209.04 12684.6C1828.91 12186.6 1547.7 11578.9 1365.41 10861.6Z" fill="#D4576A"/>
<path fill-rule="evenodd" clip-rule="evenodd" d="M14057.2 10215.8V10965.5C13265.8 11296.8 12470.5 11545.2 11671.3 11710.8C11604.3 11511.1 11546.3 11310.4 11497.4 11108.9C11461.5 10960.6 11453.7 10807.7 11474 10649.8C11482.9 10582.7 11479.6 10514 11464 10443.6C11425.1 10270.2 11363.3 10106.9 11278.4 9953.98C11324.4 9944.31 11369.5 9934.64 11414 9925.08C12066.1 9782.8 12392.1 9610.29 12392.1 9407.62C12392.1 9256.44 12209.8 9121.02 11845.3 9001.34C11911.6 8983.55 11964.8 8970.77 12004.8 8962.99C12116.7 8927.8 12230.6 8895.74 12346.6 8866.84C12694.5 9031.35 13021 9234.04 13326.4 9474.88C13602.8 9693.87 13846.3 9940.75 14057.2 10215.8ZM6573.39 8911.88C6541.16 8919.74 6509.86 8927.71 6479.46 8935.79C6472.71 8898.41 6459.19 8864.88 6438.89 8835.18C6393.69 8769.6 6316.99 8726.44 6208.81 8705.68H6088.21C6099.94 8627.78 6110.68 8550.15 6120.45 8472.81C6136.11 8359.76 6150.19 8246.94 6162.68 8134.33C6240.72 8126.34 6318.71 8118.57 6396.66 8110.99C6417.03 8133.22 6441.29 8152.13 6469.46 8167.68C6482.05 8154.34 6494.84 8140.83 6507.81 8127.12C6505.58 8130.08 6504.09 8132.49 6503.36 8134.33C6474.09 8188.8 6455.01 8248.64 6446.12 8313.85C6442.42 8340.16 6443.9 8369.06 6450.56 8400.56C6467.97 8525.05 6494.29 8648.25 6529.48 8770.15C6543.19 8817.95 6557.82 8865.19 6573.39 8911.88ZM10215.8 11919.8C9821.99 11951.3 9426.85 11962.6 9030.38 11953.7C7211.28 11913.7 5671.62 11850.9 4411.5 11765.3C3151.83 11678.6 2136.46 11377.3 1365.41 10861.6C1371.33 10845.2 1377.27 10829.3 1383.19 10813.8C1610.31 10221.3 1960.99 9715.55 2435.24 9296.48C2640.13 9117.15 2861.31 8965.05 3098.81 8840.18C3230.7 8771.27 3367.24 8710.87 3508.4 8659C3739.72 8573.56 3973.97 8499.55 4211.15 8436.97C4211.46 8438.68 4211.74 8440.44 4211.98 8442.24C4218.65 8488.93 4229.77 8533.94 4245.33 8577.31C4247.55 8619.17 4253.48 8657.71 4263.11 8692.9C4264.63 8698.57 4266.39 8704.49 4268.39 8710.7C4178.38 8727.14 4113.64 8761.42 4074.16 8813.52C4041.56 8856.86 4025.25 8915.58 4025.25 8989.69C4025.25 9042.31 4041.56 9090.29 4074.16 9133.64C4121.22 9196.25 4196.79 9238.87 4300.91 9261.47H4440.12C4439.67 9317.66 4435.5 9378.99 4427.62 9445.43C4427.62 9447.66 4422.62 9477.11 4412.61 9533.8C4408.9 9547.52 4404.09 9562.7 4398.16 9579.38C4373.71 9640.87 4327.77 9717.01 4260.34 9807.83C4175.12 9923.43 4075.82 9973.79 3962.45 9959C3847.97 9944.55 3794.25 9897.64 3801.28 9818.39C3806.09 9739.13 3832.4 9678.55 3880.2 9636.65C3927.25 9595.5 3974.31 9564.56 4021.36 9543.81C4066.19 9523.43 4089.16 9497.5 4090.27 9466C4090.27 9433.76 4080.46 9403.57 4060.82 9375.4C4041.18 9345.76 3975.04 9341.32 3862.41 9362.07C3750.15 9381.71 3671.98 9415.98 3627.89 9464.89C3583.06 9513.81 3551.75 9557.7 3533.96 9596.61C3515.45 9636.98 3501.73 9669.44 3492.84 9693.89C3483.95 9719.01 3472.28 9758.14 3457.83 9811.16C3444.85 9873.74 3445.78 9931.88 3460.6 9985.68C3503.59 10158 3667.9 10261.1 3953.56 10295.3C4201.06 10325.6 4399.1 10244.9 4547.66 10052.9C4566.19 10028.5 4584.34 10002.1 4602.12 9974.01C4624.72 9936.55 4645.84 9897.53 4665.48 9856.74C4688.82 9804.83 4709.2 9749.03 4726.61 9689.45C4748.1 9619.77 4761.8 9558.08 4767.74 9504.35C4773.83 9454.21 4771.15 9373.26 4759.68 9261.47H5770.6C5730.03 9308.45 5709.74 9357.17 5709.74 9407.64C5709.74 9610.31 6036.16 9782.82 6688.98 9925.1C7341.82 10068 8129.5 10139.6 9052.05 10139.6H9123.74C9435.74 10368.6 9641.04 10514.5 9739.52 10577C9796.99 10609.9 9865.57 10652.2 9945.15 10703.8C10009.6 10743.8 10079.9 10791 10155.8 10845.5C10140.2 11243.1 10138.4 11499.8 10150.2 11615.8C10162.9 11726.2 10184.7 11827.6 10215.8 11919.8" fill="#F7A1A1"/>
<path fill-rule="evenodd" clip-rule="evenodd" d="M12758.9 13517.7C12778.6 13550.6 12799.5 13593 12821.7 13645C12891.1 13712 13061.2 13840 13331.9 14029C13434.2 14098.3 13521.4 14166.6 13593.7 14234.1C13673.4 14307.1 13735.6 14379.1 13780.4 14450.3C13783.4 14455.1 13786.4 14460 13789.3 14464.7C13815.6 14505.9 13828.8 14549.2 13828.8 14594.8C13700.3 14699.3 13527.8 14751.5 13311.4 14751.5C13218 14751.5 12949 14536.1 12504.4 14105.1C12400.4 14004.8 12308.2 13913.6 12228.2 13831.7C12116.4 13713.9 12028.1 13613.9 11963.7 13532.1C11972.5 13528.4 11979.4 13525 11984.2 13522.1C12038 13501.8 12084.8 13482.7 12124.8 13464.9C12310.9 13427.1 12395.1 13322.7 12377.7 13152C12375.5 13139.3 12372.6 13127.3 12368.8 13115.8C12479.9 13187 12558.3 13261.5 12603.9 13339.3C12648.7 13372.2 12692.1 13418.5 12733.9 13478.2C12741.7 13489.7 12750 13502.8 12758.9 13517.7Z" fill="#808080"/>
<path fill-rule="evenodd" clip-rule="evenodd" d="M7203.06 9819.48C7225.65 9786.47 7249.18 9749.01 7273.64 9707.21C7324.02 9617.53 7371.64 9509.89 7416.46 9384.28C7461.3 9273.12 7498.35 9180.49 7527.62 9106.39C7560.96 9026.35 7586.35 8967.81 7603.75 8930.76C7697.5 8985.6 7790.12 9035.42 7881.63 9080.27C7906.08 9091.76 7931.52 9103.8 7957.75 9116.4C8006.32 9173.82 8057.45 9231.8 8111.14 9290.35C8251.19 9452.26 8375.01 9577.51 8482.38 9666.08C8484.27 9666.08 8487.27 9667.53 8491.27 9670.53L8485.16 9676.64C8340 9672.53 8213.28 9682.76 8105.02 9707.21L8009.99 9719.99H8020.55C7865.33 9757.01 7747.88 9790.14 7668.22 9819.48C7558.18 9861.39 7475.74 9884.62 7420.91 9889.51C7318.65 9910.18 7246.03 9886.95 7203.06 9819.48ZM13828.8 14594.8C13831.8 14636.6 13823.1 14678.2 13802.6 14719.3C13760.8 14803 13696.5 14861.9 13609.8 14896C13358.3 14999.4 13088.7 15001.2 12801.2 14901.6C12553 14821.9 12317.7 14677.3 12095.4 14467.5C12033.1 14419.7 11933.9 14369.1 11797.5 14315.8C11606.3 14241.6 11496.1 14196.8 11466.8 14181.3C11442.4 14168.7 11419 14156.1 11396.8 14143.5C11197.8 14021.6 11123.8 13859.7 11174.5 13657.7C11190 13615.8 11225.6 13557.5 11281.2 13482.7C11330.1 13404.5 11365.3 13342.9 11386.8 13298.1C11469.5 13396.7 11558.5 13466.9 11654.1 13508.8C11758.2 13553.6 11861.4 13561.4 11963.6 13532.1C12028.1 13613.9 12116.4 13713.9 12228.2 13831.7C12308.2 13913.6 12400.4 14004.8 12504.4 14105.1C12949 14536.1 13218 14751.5 13311.4 14751.5C13527.8 14751.5 13700.3 14699.3 13828.8 14594.8Z" fill="#595959"/>
<path fill-rule="evenodd" clip-rule="evenodd" d="M19695.3 13773.5V13855.2L16877.2 14352.6V9765.76L19695.3 9268.88V13773.4" fill="#8B8E0E"/>
<path fill-rule="evenodd" clip-rule="evenodd" d="M4183.64 7092.24C4188.45 7116.69 4193.27 7141.53 4198.09 7166.71C4211.79 7242.68 4225.5 7319.74 4239.22 7397.92C4250.7 7463.88 4262.37 7530.94 4274.23 7599.12H4258.11H4253.67H4139.74C4127.88 7530.94 4116.76 7464.25 4106.39 7399.03C4094.53 7320.11 4082.31 7243.6 4069.71 7169.49C4065.64 7144.3 4061.19 7119.11 4056.37 7093.91C3862.59 5909.75 3752.01 5251.81 3724.59 5120.31C3639.75 4713.81 3553.04 4297.75 3464.49 3872.02C3368.17 3442.17 3186.98 3217.63 2920.97 3198.4C2717.19 3183.62 2548.98 3219.19 2416.34 3305.11C2459.31 3226.97 2502.29 3141.16 2545.27 3047.79C2616.41 2959.97 2914.11 2821.02 3438.37 2630.95C3610.66 2566.81 3752.37 2511.79 3863.53 2465.88C3883.9 2505.89 3892.61 2549.8 3889.65 2597.6C3887.8 2696.86 3833.69 2818.25 3727.37 2961.64C3616.58 3109.81 3560.64 3196.51 3559.53 3221.75C3559.53 3291.78 3613.07 3677.71 3720.14 4379.45C3779.8 4775.95 3934.3 5680.21 4183.64 7092.24ZM3336.11 929.685C3533.58 720.376 3669.01 610.664 3742.37 600.66C3837.58 585.098 3982.28 645.679 4176.42 782.402C4192.72 794.963 4210.14 806.078 4228.66 815.749C4346.84 984.375 4415.57 1131.1 4434.84 1255.93C4444.84 1328.96 4405.02 1418 4315.35 1523.26C4219.76 1631.42 4178.26 1757.03 4190.86 1900.09C4193.83 1967.56 4197.17 2063.15 4200.87 2186.87C4209.76 2311.7 4216.24 2405.85 4220.32 2469.21C4276.63 3036.11 4322.39 3421.5 4357.59 3625.25C4402.42 3921.26 4440.95 4302.19 4473.19 4767.94C4483.93 4928.79 4511.17 5705.34 4554.88 7097.8C4556 7122.25 4556.92 7147.63 4557.66 7173.94C4558.62 7198.06 4559.54 7222.34 4560.44 7246.75C4497.65 7311.22 4442.91 7379.58 4396.22 7451.83C4395.96 7434.16 4395.68 7416.55 4395.38 7399.03C4394.64 7321.22 4393.16 7244.35 4390.94 7168.38C4390.94 7142.82 4390.56 7117.44 4389.83 7092.24C4359.45 5384.09 4296.46 4204.6 4200.87 3553.55C4088.97 2812.13 4010.61 2294.7 3965.78 2001.24C3959.85 1956.44 3896.5 1825.83 3775.72 1609.41C3641.22 1379.32 3494.68 1152.78 3336.11 929.685ZM6318.85 2713.2C6245.86 2725.76 6156.75 2735.1 6051.53 2740.99C5924.08 2961.08 5869.99 3225.64 5889.25 3534.65C5898.89 3709.95 5922.79 3979.28 5960.94 4342.77C5963.91 4434.25 5892.22 4556.52 5745.87 4709.58C5545.42 4914.11 5416.3 5062.29 5358.51 5154.21C5298.11 5253.48 5255.32 5381.2 5230.13 5537.15C5217.52 5625.69 5202.89 5761.11 5186.22 5943.41C5158.8 6173.82 5136.1 6463.86 5118.14 6813.49C5104.45 6824.95 5090.47 6836.17 5076.18 6847.11C5034.42 6878.53 4992.55 6909.37 4950.58 6939.65C4962.67 6788.29 4982.3 6574.03 5009.49 6296.89C5063.96 5818.54 5081.55 5533.59 5062.29 5442.11C5036.72 5326.84 4953.73 5176.78 4813.31 4991.92C4679.93 4807.74 4599.17 4651.78 4571 4523.95C4563.97 4486.16 4574.7 4422.47 4603.23 4332.76C4724.76 4176.81 4890.37 3961.83 5100.08 3688.05C5565.8 3073.02 5860.53 2752.89 5984.29 2727.65C6016.52 2717.98 6118.78 2713.2 6291.06 2713.2H6318.85ZM3787.39 7108.36C3503.95 5943.76 3318.33 5233.36 3230.52 4976.92C3125.29 4668.23 3047.3 4496.39 2996.55 4461.15C2983.95 4465.26 2971.35 4470.04 2958.76 4475.6C2992.84 4370.33 3008.4 4260.84 3005.44 4147.13V4088.22C3181.06 4273.52 3305.36 4501.5 3378.35 4772.39C3407.62 4870.98 3444.12 5026.94 3487.84 5240.36C3520.07 5370.08 3666.79 5989.73 3927.99 7099.46C3933.55 7123.92 3939.29 7148.75 3945.22 7173.94C3963.75 7248.05 3981.9 7324 3999.69 7401.81C4015.25 7465.17 4030.81 7530.02 4046.37 7596.34C3997.46 7595.6 3950.22 7593.75 3904.65 7590.78C3889.83 7529.28 3875.2 7468.88 3860.75 7409.59C3842.22 7331.42 3823.69 7255.83 3805.17 7182.83C3799.25 7157.64 3793.32 7132.81 3787.39 7108.36Z" fill="#174A46"/>
<path fill-rule="evenodd" clip-rule="evenodd" d="M4557.66 7173.94C4556.92 7147.63 4556 7122.25 4554.89 7097.8C4610.39 7100.2 4664.3 7103.34 4716.61 7107.24C4687.52 7130.02 4659.65 7153.36 4632.97 7177.27C4608.26 7175.94 4583.16 7174.84 4557.66 7173.94ZM4198.09 7166.71C4193.27 7141.52 4188.45 7116.69 4183.64 7092.24C4208.83 7091.13 4233.66 7090.57 4258.11 7090.57C4302.94 7090.57 4346.84 7091.13 4389.83 7092.24C4390.56 7117.44 4390.94 7142.81 4390.94 7168.38C4348.33 7167.27 4304.05 7166.71 4258.11 7166.71H4198.09ZM3927.99 7099.46C3970.6 7096.51 4013.39 7094.65 4056.37 7093.91C4061.19 7119.1 4065.64 7144.3 4069.71 7169.49C4027.84 7170.6 3986.35 7172.09 3945.22 7173.94C3939.29 7148.75 3933.55 7123.92 3927.99 7099.46ZM4274.23 7599.12H4314.8C4303.15 7624.09 4292.31 7649.47 4282.29 7675.26H4258.11H4249.22H4151.41C4122.14 7674.52 4092.86 7674.16 4063.6 7674.16C4015.8 7671.92 3968.56 7669.89 3921.88 7668.03C3694.76 7655.44 3493.02 7629.69 3316.66 7590.78C3243.67 7574.11 3181.79 7557.43 3131.04 7540.76C3016.19 7501.85 2948.94 7458.5 2929.3 7410.7C2926.71 7402.19 2925.41 7393.47 2925.41 7384.58V7372.91C2941.71 7293.99 3072.13 7228.22 3316.66 7175.61C3458.19 7145.23 3615.1 7122.81 3787.39 7108.36C3793.32 7132.81 3799.25 7157.64 3805.17 7182.83C3661.04 7192.47 3528.96 7208.03 3408.92 7229.52C3190.7 7268.42 3074.17 7316.22 3059.35 7372.91V7384.58C3059.35 7390.52 3060.83 7396.25 3063.8 7401.81C3080.47 7438.13 3139.57 7470.36 3241.08 7498.52C3288.51 7512.23 3344.45 7524.83 3408.92 7536.31C3555.27 7562.62 3720.51 7580.77 3904.65 7590.78C3950.22 7593.75 3997.46 7595.6 4046.37 7596.34C4076.38 7597.45 4107.5 7598.38 4139.74 7599.12H4253.67H4258.11H4274.23Z" fill="#C2EDF6"/>
<path fill-rule="evenodd" clip-rule="evenodd" d="M11011.6 4209.49L11081.7 4328.99C11072.8 4377.89 11049.4 4426.58 11011.6 4475.16C10992.1 4499.61 10953.5 4539.63 10896 4595.21C10592.9 4088.33 10450.2 3622.92 10467.6 3199.07C10469.8 3159.39 10477.6 3133.71 10490.9 3121.82C10506.5 3107.37 10525.6 3102.03 10548.1 3105.7C10483.7 3272.44 10484.7 3458.96 10550.9 3665.38C10586.2 3772.87 10667.4 3947.38 10794.9 4188.93C10808.7 4224.83 10840.9 4239.5 10891.6 4232.83C10917.9 4228.05 10958 4220.27 11011.6 4209.49Z" fill="#C8805F"/>
<path fill-rule="evenodd" clip-rule="evenodd" d="M3904.65 7590.78C3720.51 7580.77 3555.27 7562.62 3408.92 7536.31C3344.45 7524.83 3288.51 7512.23 3241.08 7498.52C3288.51 7484.81 3344.45 7472.22 3408.92 7460.72C3544.52 7436.27 3695.13 7419.23 3860.74 7409.59C3875.19 7468.88 3889.83 7529.28 3904.65 7590.78ZM4046.37 7596.34C4030.81 7530.02 4015.24 7465.17 3999.68 7401.81C4034.51 7401.08 4070.08 7400.14 4106.39 7399.03C4116.76 7464.25 4127.87 7530.94 4139.73 7599.12C4107.5 7598.38 4076.38 7597.45 4046.37 7596.34ZM4239.21 7397.92H4258.11C4304.79 7397.92 4350.54 7398.3 4395.38 7399.03C4395.68 7416.55 4395.96 7434.16 4396.21 7451.83C4365.65 7499.23 4338.51 7548.33 4314.8 7599.12H4274.23C4262.37 7530.94 4250.7 7463.88 4239.21 7397.92Z" fill="#89ABD0"/>
<path fill-rule="evenodd" clip-rule="evenodd" d="M4211.2 8436.9C3974.02 8499.48 3739.77 8573.49 3508.45 8658.92C3367.29 8710.8 3230.75 8771.19 3098.86 8840.11L2929.35 7410.63C2948.99 7458.43 3016.24 7501.78 3131.09 7540.68C3181.84 7557.36 3243.72 7574.03 3316.72 7590.7C3493.07 7629.62 3694.81 7655.36 3921.93 7667.96C3968.62 7669.81 4015.85 7671.85 4063.65 7674.08C4092.92 7674.08 4122.19 7674.45 4151.46 7675.18H4249.27H4258.16H4282.34C4196.02 7898.39 4172.3 8152.29 4211.2 8436.9Z" fill="#E63D5E"/>
<path fill-rule="evenodd" clip-rule="evenodd" d="M7203.05 9819.48C7134.14 9819.48 7090.79 9798.47 7073.01 9756.67C7064.48 9714.77 7079.12 9666.97 7116.91 9613.26C7196.94 9493.57 7258.45 9361.12 7301.42 9215.87C7309.94 9178.82 7321.62 9145.65 7336.44 9116.4C7356.81 9074.52 7379.23 9037.1 7403.68 9004.12C7457.03 8938.91 7523.72 8914.46 7603.75 8930.75C7586.35 8967.8 7560.96 9026.35 7527.62 9106.38C7498.35 9180.49 7461.3 9273.12 7416.46 9384.27C7371.64 9509.88 7324.02 9617.53 7273.64 9707.21C7249.18 9749 7225.65 9786.46 7203.05 9819.48Z" fill="#285066"/>
<defs>
<linearGradient id="paint0_linear" x1="20303.3" y1="6221.33" x2="20303.3" y2="3499.03" gradientUnits="userSpaceOnUse">
<stop stop-color="#D1D1D1"/>
<stop offset="0.57255" stop-color="#E9EDF8"/>
<stop offset="1" stop-color="white"/>
</linearGradient>
</defs>
</svg>
