<svg width="500" height="500" viewBox="0 0 23001 18502" fill="none" xmlns="http://www.w3.org/2000/svg">
<path fill-rule="evenodd" clip-rule="evenodd" d="M12535.5 15556.5C12861.5 15577.3 13156.9 15611.2 13421.5 15658.1C13495.9 15671.2 13564.6 15684.7 13627.2 15698.7L13683.7 16201C13634.3 16212.8 13581 16224.3 13523.7 16235.6L13684.3 16207.7L13729.4 16615.8L12588.2 16399.4L13295.3 16275.6C13052.2 16313.2 12785.2 16340.4 12494.3 16357.1L12510.8 16033.8C12649.6 16019.7 12778.2 16001.8 12896 15979.9C13230.8 15915.1 13120 15791.4 12564.1 15608.6C12553.6 15605.1 12543.5 15601.6 12533.4 15598L12535.5 15556.5ZM8698.09 17149C8710.4 17126.1 8718.91 17102.8 8723.48 17079.1L9181.73 16999.8L9329.61 17026.5L9355 17246.7C9362.61 17311.4 9392.06 17364.5 9443.22 17406C9494.5 17447 9552.63 17463.8 9617.76 17456.1C9682.5 17448.5 9735.68 17419.1 9777.07 17367.9C9817.69 17316.8 9834.43 17258.8 9827.21 17194L9817.06 17114.7L11961 17504.4L11925.5 18172.7C11922.6 18237.8 11943.3 18294.6 11987.7 18342.8C12031.4 18391.4 12085.8 18417.7 12151.5 18421.5C12215.8 18424 12272.7 18403.5 12322.2 18359.9C12370.4 18315.5 12396.4 18261.1 12400.2 18196.8L12468.8 16860.2L13785.1 17109L13875.9 17929.6C13883.5 17993.8 13912.9 18046.8 13964.1 18088.3C14015.2 18129.3 14073.7 18146 14139.3 18138.4C14203.6 18130.8 14256.5 18101.4 14298 18050.2C14339 17999.1 14355.7 17941.3 14348.2 17876.9L14150.1 16125.2L15464 15894.8L15460.1 15997C15457.1 16062.6 15477.9 16119.5 15522.3 16167.7C15566 16216 15620.5 16242 15686.1 16245.8C15750.4 16248.7 15807.2 16228.4 15856.2 16184.9C15904.9 16140.4 15931 16085.8 15934.8 16021.1L15946.2 15809.7L16196.3 15765.3C16580.1 15698 16865.3 15660.2 17051.9 15651.7L17185.8 15675.8L17211.2 15896.1C17218.9 15960.8 17248.3 16013.9 17299.4 16055.4C17350.6 16096.4 17409.1 16113.1 17474.5 16105.5C17539 16097.9 17592 16068.4 17633.9 16017.3C17674.6 15966 17691 15908.1 17683.4 15843.4L17673.2 15764L19817.2 16153.8L19781.7 16822.1C19778.7 16887.2 19799.6 16943.9 19844.5 16992.2C19888.2 17040.8 19942.5 17067.1 20007.6 17070.9C20072.4 17073.4 20129.4 17052.9 20178.4 17009.3C20226.6 16964.9 20252.7 16910.6 20256.5 16846.2L20289.4 16191.8L21716.8 16441.9L21732.1 16579C21739.8 16643.3 21769.2 16696.2 21820.3 16737.7C21871.5 16778.7 21929.8 16795.4 21995.4 16787.8C22059.9 16780.2 22112.9 16750.7 22154.8 16699.6C22195.5 16649.2 22211.9 16592.3 22204.3 16528.9L22800.2 16632.9C22942.4 16657.4 22734.9 16718.6 22177.7 16816.4L13261.5 18382.8C12704.3 18481.4 12354.5 18518.3 12212.4 18493.8L6696.31 17524C6601.53 17550.7 6497.65 17576.3 6384.68 17600.8C5685.26 17755.3 4840.9 17832.5 3851.59 17832.5C2861.05 17832.5 2016.12 17755.3 1316.68 17600.8C618.094 17447.2 268.809 17261.4 268.809 17043.6C268.809 16937.3 350.265 16839.2 513.162 16749.1C558.85 16755.8 607.312 16761.1 658.499 16764.9C1016.47 16770.4 1342.07 16663.4 1635.28 16443.8L1667.66 16455.2C1708.28 16468.3 1748.05 16481 1786.98 16493.3C1867.81 16678.3 2027.53 16800.5 2266.17 16860.2C2617.78 16945.6 2872.72 16985.3 3030.96 16979.5C3189.22 16973.1 3328.21 17032.8 3447.96 17158.5C3567.28 17283.6 3777.99 17255.8 4080.11 17074.7C4107.61 17057.7 4134.26 17024.5 4160.08 16975C4184.61 16925 4141.88 16864.6 4031.87 16793.5C3921.87 16721.5 3812.05 16694.5 3702.47 16712.3C3564.11 16706.8 3434.62 16676.5 3314.04 16621.5C3322.51 16619.4 3330.54 16617.4 3338.16 16615.8V16617.1C3339.01 16617.1 3340.06 16617.4 3341.34 16618.3C3342.18 16618.3 3343.02 16617.9 3343.86 16617.1C3453.88 16545.1 3569.61 16474 3691.04 16403.8C3739.28 16389.5 3785.19 16367.2 3828.76 16337.2C3887.58 16310.5 3942.17 16283 3992.53 16254.7C4036.1 16254.7 4078.62 16255 4120.09 16255.9C4122.21 16261.4 4124.12 16267.1 4125.8 16273.1C4208.32 16598 4261.42 16881.4 4285.11 17122.9C4332.51 17223.6 4422.62 17274 4555.5 17274C4630.39 17273.1 4739.77 17258.2 4883.62 17229.5C4954.71 17260.8 5012.47 17257.2 5056.9 17218.7C5096.67 17183.6 5118.03 17130.9 5120.99 17060.7C5123.97 16990.5 5108.73 16929 5075.3 16876C5039.34 16816.4 4990.67 16785 4929.32 16782.1C4854.43 16748.7 4799.42 16697 4764.3 16627.2C4738.5 16575.9 4713.31 16517.2 4688.77 16450.8C4682.19 16434.4 4676.59 16417.8 4671.96 16400.9C4672.24 16401.2 4672.56 16401.3 4672.9 16401.3C4912.82 16518.4 5122.9 16597 5303.16 16636.7C5490.61 16689.2 5634.69 16732.3 5735.38 16766.2C5740.88 16819.5 5744.68 16871.8 5746.79 16923C5771.33 16994.1 5836.71 17029.6 5942.92 17029.6C6014.01 17029.6 6055.68 17030.5 6067.95 17032.2C6114.49 17036.8 6150.04 17051.6 6174.58 17076.6C6228.72 17100.3 6287.55 17101.1 6351.02 17079.1C6407.74 17057.2 6455.12 17021.6 6493.2 16972.5C6530.86 16922.1 6545.88 16871.3 6538.25 16820.2C6528.93 16760.5 6489.61 16711.8 6420.21 16674.2C6300.03 16662.8 6218.59 16585.3 6175.84 16441.9C6246.93 16455.3 6316.54 16469.8 6384.66 16485.1C7084.51 16638.6 7434.44 16824.9 7434.44 17043.6C7434.44 17155.3 7341.56 17259.1 7155.81 17355.2C7195.59 17347.6 7237.27 17340 7280.85 17332.4L7606.44 17275.2L7603.27 17347.6C7600.31 17413.1 7621.25 17470.1 7666.1 17518.3C7709.68 17566.6 7764.06 17592.6 7829.22 17596.4C7893.94 17599.3 7950.86 17579 7999.94 17535.5C8048.18 17491 8074.2 17436.5 8078.01 17371.7L8082.46 17285.4C8113.76 17286.1 8145.92 17285.1 8178.93 17282.2C8206.43 17279.7 8256.78 17282.2 8329.98 17289.8C8411.23 17297.1 8470.04 17300.6 8506.42 17300.6C8642.74 17299.7 8706.58 17249.2 8698.08 17148.9L8698.09 17149ZM10530.4 16761.8L11267.3 16633L11997.8 16770.7L11985.1 17026.5L10530.4 16761.8ZM10526 16009.1C10840.5 16051.3 11214.8 16072.5 11648.7 16072.5C11783.1 16072.5 11911.4 16070.2 12033.7 16065.8L12021.9 16292.8L10526 16009.1ZM10265.7 15959.8L9676.12 15847.8L9664.06 15740C9764.97 15710.7 9888.99 15683.3 10036 15657.4C10264.5 15617.2 10515.7 15586.6 10789.7 15565.7C10740.4 15590.5 10688.1 15612.6 10632.6 15632C10195.3 15785.4 10073.1 15894.6 10265.7 15959.8V15959.8ZM11210.2 9207.01V9198.77L11213.3 9194.32L11221.6 9188.62L11252.7 9177.19L13314.1 8826.21L13252 8948.07L13011.4 8909.99H12977.2L12140 9052.15L12711.9 9161.32H12762.5L13180.9 9087.69L13170.7 9107.38L12057.5 9300.94L12054.9 9309.2L12066.3 9312.37L12097.4 9313.65V9316.82L12966.4 9478.66L13028.5 9475.49L13017 9494.52L13008.9 9518.65L12875 9507.22L11221.6 9207.01H11210.2" fill="#DBE8F9"/>
<path fill-rule="evenodd" clip-rule="evenodd" d="M12532.8 15598C12543 15601.5 12553.1 15605.1 12563.6 15608.5C13119.5 15791.3 13230.2 15915 12895.5 15979.8C12777.7 16001.7 12649.2 16019.6 12510.2 16033.7L12532.8 15598ZM10789.3 15565.6C11191.9 15363.2 11393.2 14981 11393.2 14419.1V12373.7C11505.6 12366.7 11617.5 12357 11728.9 12344.5V14419.1C11728.9 14809.8 11843.1 15112.9 12071.4 15328.2L12033.3 16065.7C11911 16070.2 11782.8 16072.5 11648.3 16072.5C11214.5 16072.5 10840.1 16051.3 10525.6 16009L10265.3 15959.7C10072.6 15894.5 10194.9 15785.3 10632.2 15632C10687.7 15612.6 10740 15590.5 10789.3 15565.6" fill="#7B9DCD"/>
<path fill-rule="evenodd" clip-rule="evenodd" d="M12245.8 11942.8C12100.2 11918.2 11928.2 11899.6 11729.2 11887.3C11624.7 11880.7 11512.8 11875.9 11393.4 11872.7C11283 11869.7 11166.2 11868.3 11043.1 11868.3C10639.4 11868.3 10299.3 11821 10022.9 11726.7C10049.2 11639.9 10074.8 11553 10099.9 11465.8L12251 11842.9L12245.8 11942.8ZM12881.2 11944.1L12780.8 12143.7C12762.5 12124.9 12739.8 12107 12712.9 12090L12721.2 11925.4L12745.3 11929.8C12785.5 11937.2 12830.7 11942 12881.2 11944.1V11944.1ZM16698.3 11323.7L18001.8 11095.2C18002.8 11096 18003.1 11097.5 18003.1 11099.6L17167.2 11245.6L16924.2 11288.1C16844.7 11302.5 16769.3 11314.4 16698.3 11323.7V11323.7ZM18638.5 10987.3L18387.1 11031.1V11026.7L18631.5 10984.1C18634.6 10984.9 18636.8 10986 18638.5 10987.3Z" fill="#E19003"/>
<path fill-rule="evenodd" clip-rule="evenodd" d="M9871.58 12208.5C9881.2 12177.5 9891.09 12146.7 9900.98 12115.8C9943.2 11986.4 9983.83 11856.6 10023.2 11726.8C10299.7 11821.1 10639.8 11868.3 11043.5 11868.3C11166.6 11868.3 11283.4 11869.7 11393.9 11872.8C11513.2 11875.9 11625.2 11880.8 11729.5 11887.4C11928.5 11899.7 12100.6 11918.2 12246.3 11942.8L12229.4 12270.3C12063.9 12301.2 11897.2 12325.9 11729.5 12344.6C11618.1 12357 11506.2 12366.8 11393.9 12373.8C11110.3 12391.7 10823.7 12392.3 10533.8 12376.1C10261.1 12362 10040.4 12306.1 9871.58 12208.5ZM12781.3 12143.8C12757.7 12150.6 12733.6 12157.4 12709.6 12163.7L12713.3 12090.1C12740.2 12107.1 12762.9 12125 12781.3 12143.8V12143.8ZM17584 10719.6L17486.2 10738.6C17495.6 10708.1 17500.3 10676.4 17500.3 10643.4C17500.3 10632 17499.2 10620.6 17497 10609.1H17530C17569.7 10609.1 17607.7 10608.7 17643.6 10607.9C17613.7 10640.9 17593.8 10678.1 17584 10719.6V10719.6ZM17191.7 4232.32C17220.2 4263.59 17245.3 4298.34 17267.2 4336.42C17307.8 4406.71 17337.8 4488.09 17356.7 4580.83C17405.9 4817.75 17373.6 5058.55 17259.6 5303.08C16607.8 5286.11 16159.3 5070.57 15914.8 4656.33C16032.4 4412.59 16197.8 4235.66 16411.1 4125.69C16560 4049.92 16701.7 4021.99 16836.3 4041.9C16895.2 4049.52 16952.1 4066.63 17007 4093.35C17079.1 4128.49 17140.5 4174.73 17191.7 4232.32" fill="#F8B504"/>
<path fill-rule="evenodd" clip-rule="evenodd" d="M9745.98 16474.8L9731.39 16340.9L10335.6 16456.4C10339.4 16464 10342.8 16471.6 10345.8 16479.2C10202.8 16477.1 10030.8 16476.1 9829.76 16476.1C9801.46 16476.1 9773.53 16475.7 9745.98 16474.8ZM9256.64 16376.4C9141.12 16334 9031.83 16276.8 8928.5 16204.4C8835.44 16140.9 8758.27 16072.8 8696.83 16000C8644.78 15938.2 8618.76 15893.5 8618.76 15866.1C8618.76 15802.6 8626.25 15751 8640.98 15711.2C8663.83 15654.5 8706.22 15603.7 8767.91 15558.9C8781.12 15549.6 8830.75 15546.5 8917.07 15549.4C9033.47 15554 9115.98 15556 9164.6 15555.1L9256.64 16376.4ZM8710.79 16912.7C8718.42 16934.3 8723.74 16956 8726.66 16978.1C8645.04 16972.5 8539.24 16967.3 8409.34 16962.2C8290.01 16957.5 8187.19 16947.6 8100.87 16932.4L8107.85 16802.9L8710.79 16912.7ZM8146.57 16075.6H8166.25C8237.33 16075.6 8298.9 16070.6 8350.94 16061L8437.9 16344L8444.88 16380.8L8133.88 16324.4L8146.57 16075.6ZM19338.1 8932.62V8935.16V9391.5C19338.1 9429.59 19330.6 9460.05 19315.4 9482.9C19303.1 9499.84 19287.1 9511.68 19267.1 9518.45C19250.2 9526.06 19229.4 9529.87 19205 9529.87H18765.7C18676.5 9527.75 18631.8 9479.73 18631.8 9385.81V8932.62C18631.8 8870.85 18651.8 8831.06 18691.4 8813.3C18699.1 8808.21 18707.6 8805.26 18716.8 8804.41C18731.3 8799.77 18747.6 8797.43 18765.7 8797.43H19205C19292.9 8797.43 19337.4 8842.49 19338.1 8932.62ZM18512.5 4308.9V4411.72C18512.5 4449.39 18504.9 4479.63 18489.5 4502.48C18477.2 4519.41 18461.3 4531.26 18441.4 4538.03C18424.5 4545.64 18403.6 4549.45 18378.5 4549.45H17939.4C17850.5 4547.35 17806.1 4499.53 17806.1 4406.01V3952.22C17806.1 3890.41 17825.9 3850.58 17865.7 3832.9C17873.3 3828.29 17881.9 3825.21 17891.1 3823.98C17905.6 3819.37 17921.6 3817.06 17939.4 3817.06H18378.5C18467.9 3817.06 18512.5 3863.19 18512.5 3955.45V4308.9ZM17335.1 4030.33C17330.5 4042.48 17322.4 4056.78 17311 4072.77L17191.7 4232.06C17140.5 4174.56 17078.9 4128.28 17007 4093.06C16951.9 4066.46 16895.2 4049.24 16836.2 4041.71L16992.4 3834.13C17035.1 3776.16 17076.8 3762.48 17117.4 3792.92L17315.4 3942.07C17331.6 3954.37 17341.4 3969.6 17345.3 3987.74C17346.2 4000.81 17342.6 4015.11 17335.1 4030.33V4030.33ZM20636.2 6510.02H20351.9C20331.1 6510.02 20312.2 6507.07 20295.3 6501.15C20244.1 6482.53 20218.6 6437.68 20218.6 6366.59V5912.77C20218.6 5851 20238.4 5811.23 20278.2 5793.45C20285.8 5788.79 20294.4 5785.84 20303.6 5784.56C20305.8 5783.73 20308.1 5783.3 20310.5 5783.3C20323.3 5779.49 20337 5777.58 20351.9 5777.58H20791.6C20880.5 5777.58 20924.9 5823.5 20924.9 5915.32V6372.3C20924.9 6409.97 20917.3 6440.21 20902 6463.06C20889.7 6479.99 20873.7 6491.85 20853.9 6498.6C20837 6506.22 20816.1 6510.02 20791.6 6510.02H20636.2" fill="#1FBCBF"/>
<path fill-rule="evenodd" clip-rule="evenodd" d="M4503.19 3362.62C4682.19 3401.62 4847.42 3475.39 4998.91 3584.19C5151.67 3693.38 5259.37 3770.09 5321.99 3814.58C5385.46 3858.95 5479.19 3925.81 5603.17 4015.18C5680.17 4069.26 5788.73 4153.13 5928.78 4266.54C6103.55 4183.95 6283.16 4006.23 6467.66 3733.27C6579.8 3572.56 6654.71 3467.33 6692.36 3417.86C6768.52 3323.12 6845.75 3244.74 6924.03 3182.99C6940.54 3170.72 6956.2 3158.83 6971 3147.45C7065.78 3095.41 7169.67 3074.7 7282.66 3085.31C7386.74 3094.52 7486.2 3130.57 7580.97 3193.22C7650.37 3237.58 7709.18 3290.77 7757.42 3352.52C7746.85 3363.01 7736.48 3374 7726.33 3385.51L7525.75 3631.11C7445.36 3729.69 7377.01 3809.21 7320.73 3869.81C7192.1 4008.15 7063.25 4144.18 6934.18 4277.92C6840.25 4375.6 6746.51 4472.38 6653.01 4568.01C6430.86 4792.65 6255.45 4936.74 6126.82 5000.28C5997.77 5063.7 5732.86 4904.65 5332.15 4522.88C4931 4139.96 4712.87 3936.68 4677.75 3912.9C4714.98 3871.09 4738.68 3822.12 4748.83 3766.38C4751.8 3751.04 4753.71 3735.06 4754.55 3718.05C4760.48 3639.42 4742.07 3567.7 4699.33 3502.88C4653.62 3433.97 4588.25 3387.17 4503.19 3362.62V3362.62ZM9337.28 2812.35L9300.46 2983.03C9280.13 3039.8 9264.91 3080.84 9254.68 3106.15C9248.93 3119.71 9244.58 3128.91 9242.03 3133.51C9216.2 3169.44 9184.49 3177.11 9146.78 3156.4C9137.19 3149.62 9126.45 3141.57 9115.07 3132.23C9082.98 3110.24 8988.75 3049.13 8832.64 2948.77C8712.08 2871.8 8616.7 2806.85 8546.4 2753.92C8334.41 2591.93 8192.22 2421.76 8119.87 2243.66C8154.99 2133.58 8185.88 2053.42 8212.54 2003.04C8259.92 1915.08 8325.72 1872.89 8409.93 1876.73L8406.13 1923.78C8339.69 1919.04 8305 1940.91 8302.03 1989.11C8299.08 2034.37 8322.34 2074.13 8371.85 2108.39C8549.15 2291.22 8714 2441.07 8866.27 2557.79C9019.05 2673.37 9176.06 2758.14 9337.28 2812.35V2812.35ZM9514.99 2779.36C9521.26 2767.86 9546.95 2711.98 9591.7 2611.75C9632.36 2517.78 9638.11 2441.07 9608.96 2381.36L9641.31 2297.62L9723.77 2529.28C9738.99 2582.09 9749.47 2631.82 9754.84 2678.36C9758.68 2709.68 9760.59 2740.24 9760.59 2769.77C9742.82 2842.52 9724.92 2926.78 9706.64 3022.41C9701.14 3035.96 9694.62 3048.87 9686.95 3061.15C9664.07 3054.37 9642.84 3029.18 9622.9 2985.59C9622.9 2984.82 9622.51 2983.93 9621.62 2983.03C9595.79 2926.78 9578.66 2893.53 9570.22 2883.43L9514.99 2779.36ZM14887.8 8038.69C14975.2 7983.69 15064.2 7960.42 15155.1 7968.87C15247 7976.49 15313.8 8013.51 15355.7 8079.95C15396.3 8146.39 15400.1 8222.76 15367.2 8309.08C15334.9 8394.99 15274.7 8465.45 15186.2 8520.45C15099.1 8575.46 15009.6 8599.15 14917.8 8591.53C14826.9 8583.08 14760.4 8545.62 14718.4 8479.19C14676.9 8413.18 14672.3 8337.01 14704.5 8250.68C14737.5 8164.37 14798.6 8093.7 14887.8 8038.69V8038.69ZM13155.7 9433.17L13063.7 9452.22C13059.2 9453.08 13054.2 9453.91 13049.1 9454.78C13032.2 9455.61 13021.5 9451.8 13016.7 9443.34C13013.8 9437.84 13013.8 9429.8 13016.7 9419.21C13017.6 9415.4 13018.5 9412.01 13019.3 9409.06C13021.5 9403.55 13024.4 9397.42 13028.1 9390.65L13035.1 9376.69L13039.6 9369.71L13045.2 9357.01L13052.3 9343.7L13072 9302.44L13080.8 9288.46L13094.8 9258.63L13096.1 9254.19L13104.9 9238.95L13110.7 9227.52L13130.4 9187.54L13137.3 9173.58L13163.4 9124.7L13171.6 9106.29L13181.8 9086.62L13252.9 8946.98L13315 8825.11L13984.7 7498.51C14010.4 7448.17 14047.9 7418.34 14097.1 7409.02L16642.2 6913.93C16690.6 6904.63 16701.9 6925.15 16676.5 6975.5L16658.1 7012.32L14206.8 7488.36C14157.3 7498.09 14119.8 7528.56 14094.5 7579.76L13155.7 9433.17ZM12663.9 4195.45H12662.6H12633.9C12302.3 4195.45 11972.3 4011.6 11644.5 3643.77C11547.1 3532.92 11441.2 3395.61 11326.5 3231.83C11218.2 3076.11 11157.5 2991.34 11144.3 2977.41C11121.5 2953.62 11092.9 2923.2 11058.5 2885.99C10985.9 2804.68 10886.8 2691.14 10761.5 2545.14C10714.2 2490.16 10669.7 2439.79 10628.3 2394.02V2392.74C10634.6 2389.03 10641.2 2385.19 10647.9 2381.36L10651.1 2380.08C10658.4 2375.48 10665.7 2370.11 10673.3 2364.23C10774.1 2273.2 10845.2 2209.78 10886.6 2173.85C10936.1 2202.11 11002.7 2258.62 11085.9 2343.26C11170.2 2426.62 11255.3 2506.65 11341.7 2583.24C11526.6 2720.68 11733.9 2896.48 11963.1 3110.63C12095.9 3235.03 12292.2 3423.74 12551.5 3676.88C12657.7 3781.72 12701.6 3919.04 12682.9 4088.82L12672.7 4156.07C12669.7 4169.11 12666.9 4182.28 12663.9 4195.45" fill="#E8EFFD"/>
<path fill-rule="evenodd" clip-rule="evenodd" d="M8371.17 2109.33C8321.66 2075.06 8298.39 2035.33 8301.35 1990.01C8304.32 1941.78 8339 1919.94 8405.44 1924.64L8402.27 1958.91V1969.7C8400.58 1984.05 8399.09 1998.9 8397.82 2014.13L8371.17 2109.33ZM12539.6 4488.41C12544 4480.67 12548.3 4472.92 12552.5 4465.31C12556.8 4458.07 12560.9 4450.96 12564.9 4443.73C12556.9 4458.58 12548.6 4473.56 12539.6 4488.41Z" fill="#C8B5A6"/>
<path fill-rule="evenodd" clip-rule="evenodd" d="M4450.05 4018.54C4541.03 4012.19 4614.85 3979.57 4671.56 3920.8C4673.66 3917.88 4675.57 3915.46 4677.27 3913.81C4712.39 3937.55 4930.51 4140.78 5331.63 4523.75C5732.33 4905.46 5997.22 5064.51 6126.27 5001.04C6254.89 4937.57 6430.28 4793.5 6652.42 4568.82C6745.93 4473.23 6839.66 4376.5 6933.59 4278.76C7062.65 4145.1 7191.49 4009.02 7320.12 3870.66C7376.39 3810.11 7444.73 3730.64 7525.12 3632.01L7725.68 3386.39C7735.84 3374.96 7746.21 3363.92 7756.78 3353.38C7757.64 3355.03 7759.11 3356.94 7761.23 3359.09C7764.19 3362.01 7766.94 3365.44 7769.48 3369.25L7798.04 3408.6C7801.85 3412.41 7805.24 3417.23 7808.19 3423.2C7809.88 3425.74 7811.15 3428.53 7812 3431.45C7814.11 3433.61 7816.03 3436.53 7817.71 3440.33C7819.83 3442.87 7821.73 3446.05 7823.43 3449.85C7824.7 3451.12 7825.75 3453.03 7826.6 3455.57L7896.42 3680.25C7897.27 3695.48 7898.12 3711.09 7898.96 3727.21C7897.27 3872.31 7855.16 4003.05 7772.65 4119.45C7690.99 4237.13 7590.5 4342.48 7471.17 4435.53C7348.88 4532 7236.12 4624.29 7132.88 4712.26C7095.65 4744.88 7059.48 4776.11 7024.35 4806.19C6863.57 4951.28 6704.9 5086.47 6548.33 5211.76C6401.51 5328.16 6230.99 5390.11 6036.77 5397.72C5835.79 5403.69 5669.29 5332.1 5537.27 5183.2C5455.18 5095.23 5348.14 4982.38 5216.12 4844.91C5085.37 4707.43 4987.83 4602.71 4923.53 4530.73C4869.36 4468.92 4827.69 4420.55 4798.49 4385.39C4744.33 4319 4696.31 4266.45 4654.42 4227.99C4613.8 4189.02 4545.67 4119.2 4450.05 4018.54ZM11957.2 4593.82C11956.9 4593.57 11956.8 4593.19 11956.5 4592.93C11902.3 4555.23 11847 4511.69 11790.2 4462.19L10831.9 3020.8C10774.4 2955.18 10720.4 2888.79 10670 2821.51C10651 2795.23 10629.3 2767.31 10604.6 2737.73C10566.6 2690.38 10522 2639.61 10470.7 2585.41C10465.3 2576.9 10459.5 2568.9 10453.6 2561.29L10452.3 2558.75L10418 2471.8V2470.53C10417.3 2466.72 10416.8 2462.91 10416.8 2459.1C10387.6 2419.37 10356.3 2381.03 10322.8 2344.22L10337.4 2329.62C10371.3 2363.9 10399.3 2390.94 10421.2 2410.87C10457.3 2428.64 10495.5 2434.35 10536.1 2428L10580.5 2416.58C10595.8 2409.85 10611.5 2402.23 10627.5 2393.73V2395C10669 2440.7 10713.4 2491.09 10760.8 2546.05C10886.1 2692.03 10985.1 2805.64 11057.8 2886.88C11092.1 2924.08 11120.6 2954.54 11143.5 2978.28C11156.7 2992.24 11217.4 3077.04 11325.6 3232.79C11440.4 3396.54 11546.3 3533.89 11643.6 3644.71C11971.5 4012.45 12301.4 4196.25 12633.1 4196.25H12661.7H12662.9C12659.1 4212.37 12654.4 4227.99 12649 4243.22L12633.1 4291.46L12576.6 4422.2L12564.9 4443.78C12560.9 4451.02 12556.8 4458.13 12552.5 4465.36C12548.3 4472.98 12544 4480.72 12539.6 4488.46L12525.2 4512.33C12441.8 4612.61 12328.3 4658.56 12184.4 4650.06H12169.8C12168.9 4649.17 12168.1 4649.17 12167.2 4650.06C12122.4 4645.36 12079.3 4636.98 12037.8 4624.67C12012 4615.78 11986.4 4606.26 11961 4596.11C11961 4595.22 11960.6 4594.84 11959.7 4594.84C11958.8 4594.84 11957.9 4594.46 11957.2 4593.82Z" fill="#CEDEFE"/>
<path fill-rule="evenodd" clip-rule="evenodd" d="M11824.5 4516.09C11675.6 4378.58 11476.5 4232.2 11227.3 4076.96C11087.3 3989.83 10876 3860.29 10593.3 3688.6C10598 3626.4 10581.1 3468.07 10542.5 3213.87C10516.7 3044.11 10537 2885.91 10603.4 2739.15C10628.1 2768.71 10649.8 2796.59 10668.8 2822.81C10719.2 2890.15 10773.2 2956.59 10830.6 3022.13L11788.9 4463.52L11824.5 4516.09ZM14885.4 8040.41C14796.3 8095.41 14735.1 8166.07 14702.1 8252.38C14669.9 8338.7 14674.6 8414.85 14716.1 8480.86C14758 8547.29 14824.4 8584.73 14915.3 8593.19C15007.1 8600.81 15096.6 8577.13 15183.7 8522.11C15272.3 8467.11 15332.5 8396.67 15364.7 8310.77C15397.7 8224.45 15393.8 8148.09 15353.2 8081.66C15311.3 8015.23 15244.6 7978.21 15152.6 7970.59C15061.6 7962.13 14972.7 7985.4 14885.4 8040.41V8040.41ZM15711.1 9055.23H15708.7L13163.6 9550.26C13114.7 9559.56 13102.7 9538.63 13128.2 9487.43L13153.5 9434.75L14092.1 7581.61C14117.6 7530.42 14155 7499.95 14204.5 7490.21L16655.6 7014.22L16748.9 6995.81C16797.4 6986.08 16809 7006.82 16783.1 7058.01L16048.2 8510.71L15819.1 8964.49C15794.5 9014.85 15758.7 9045.09 15711.1 9055.26" fill="#AAC5FC"/>
<path fill-rule="evenodd" clip-rule="evenodd" d="M11757.6 10314.8C11789.8 10309.3 11780.7 10301.7 11730.3 10291.9L9839.5 9923.81C9789.24 9914.52 9747.99 9912.58 9715.75 9918.1L8046.66 10212.6C8014.5 10218.1 8023.59 10225.7 8073.95 10235.4L9964.55 10603.6C10014.9 10612.9 10056.2 10614.8 10088.3 10609.3L11757.6 10314.8ZM20379.6 9247.24L22919.1 9692.15C22982.5 9703.59 23008.5 9717.76 22997 9734.68C22976.4 9761.33 22855.6 9794.55 22634.6 9834.33L19610.4 10367.4V10327.5C19589.7 10354.1 19469 10387.3 19248 10427.1L18931.4 10482.3C18891.6 10462.5 18846.6 10452.5 18796.2 10452.5C18719.2 10452.5 18654.6 10476.2 18602.6 10523.6C18595 10530.4 18588 10537.6 18581.6 10545.2L18113.8 10627.7C18100.3 10601 18081.7 10578.2 18058 10559.1C18108.5 10545.2 18137.8 10530.6 18146.3 10515.3V10505.2C18146.3 10495.9 18141.1 10487 18131 10478.5C18179.3 10460.3 18219.1 10429.4 18250.4 10385.9C18290 10330.9 18310 10269.3 18310 10201.2C18310 10114.9 18280.5 10046.5 18221.7 9996.17C18203.6 9980.1 18183.6 9967.41 18162.1 9958.08C18409.3 9995.76 18692.4 10014.6 19012 10014.6C19422.4 10014.6 19772.8 9982.85 20063 9919.38C20352.8 9855.91 20497.7 9779.1 20497.7 9688.98C20497.7 9671.21 20492.1 9654.29 20480.6 9638.2V9429.39C20492.1 9412.06 20497.7 9394.49 20497.7 9376.73C20497.7 9330.18 20458.4 9287.02 20379.6 9247.24V9247.24ZM17665.8 8846.13C17620.5 8811.85 17565.1 8794.71 17499.5 8794.71C17433.2 8794.71 17377.2 8811.85 17331.9 8846.13C17280.9 8882.87 17255.3 8933.01 17255.1 8996.55C17255.5 8988.3 17264.3 9017.72 17281.8 9084.77C17322.9 9161.77 17395.4 9200.28 17499.5 9200.28C17596 9200.28 17664.3 9173.62 17704.5 9120.31C17729.9 9087.31 17742.6 9046.28 17742.6 8997.18C17742.6 8933.29 17717.1 8882.93 17665.8 8846.13V8846.13ZM16747.3 8610.03C16738.2 8639.65 16733.5 8672.44 16733.5 8708.39C16733.5 8727.45 16734.4 8744.37 16736 8759.17C16740.7 8795.56 16750.2 8828.36 16764.5 8857.55C16809.8 8950.65 16893.6 8997.18 17015.8 8997.18C17108.9 8997.18 17182.5 8960.59 17236.8 8887.38C17278.3 8830.69 17299.3 8770.6 17300.3 8707.13L18026.9 8834.7C18074.4 8916.37 18155.5 8957.19 18270 8957.19C18334.3 8957.19 18389.3 8940.06 18435.1 8905.78L18631.1 8940.06V9059.38C18381.1 9073.76 18158.3 9102.32 17962.8 9145.05C17816.1 9178.06 17706.1 9214.04 17633.4 9252.97C17600 9252.11 17565.4 9251.69 17529.3 9251.69C17358.1 9251.69 17210.2 9262.5 17085.8 9284.05C16966.4 9306.05 16906.7 9331.67 16906.7 9360.86V9366.57L17023.5 10435.4C16945.7 10454.4 16906.7 10475.8 16906.7 10499.5V10505.2C16909.6 10515.8 16920.6 10525.7 16939 10535C16926 10543.5 16913.4 10553 16901.1 10563.6C16842.3 10614.8 16812.8 10684.4 16812.8 10772.4C16812.8 10794.4 16813.8 10811.5 16816 10823.8C16816.8 10834.4 16818.1 10844.7 16819.8 10854.9L13537.2 11433.7C13385.8 11460.4 13251.3 11478.8 13133.5 11488.9C13125.4 11489.6 13117 11490.3 13108.9 11490.8C12959 11502.2 12837.8 11499.2 12745.2 11482H12743.8L6096.27 10314.8C6050.58 10306.3 6023.5 10296.4 6015.03 10284.9C6012.07 10282 6012.07 10277.8 6015.03 10272.3C6031.97 10246.5 6152.33 10213.2 6376.17 10172.6L7631.57 9952.37L8735.88 9757.55L9225.21 9670.58L9947.47 9544.27L10564.4 9434.47L10917.3 9372.27L13116.3 9791.81C13176.9 9803.23 13233.7 9804.5 13287 9795.62L16056.1 9317.06C16109.4 9307.33 16105.7 9296.76 16044.8 9285.33L15571.3 9195.83L15577 9194.57L15604.3 9174.9L15635.4 9161.56L15676.6 9122.22L15710.9 9059.38L15712.2 9054.94C15759.7 9044.78 15795.6 9014.53 15820.1 8964.17L16049.1 8510.37C16134.6 8509.54 16208.2 8514.82 16269.5 8526.25L16747.3 8610.03" fill="#F7A1A1"/>
<path fill-rule="evenodd" clip-rule="evenodd" d="M19063.8 8797.85L20295.1 6501.54C20312 6507.48 20330.9 6510.43 20351.5 6510.43H20635.9L19337.9 8933.04C19337 8842.91 19292.7 8797.85 19204.7 8797.85H19063.8ZM18512.2 4309.48L20310.3 5783.81C20307.8 5783.81 20305.5 5784.25 20303.3 5785.09C20294.1 5786.35 20285.6 5789.31 20278 5793.96C20238.1 5811.75 20218.2 5851.52 20218.2 5913.29V6102.43L18324.4 4550.07H18378.3C18403.4 4550.07 18424.2 4546.26 18441.2 4538.64C18461.2 4531.88 18477.1 4520.03 18489.4 4503.11C18504.6 4480.25 18512.2 4450.01 18512.2 4412.29V4309.48ZM17267 4336.69C17245.1 4298.69 17219.9 4264.04 17191.5 4232.73L17310.8 4073.3C17322.2 4057.34 17330.4 4043.06 17335 4030.9H17805.8V4336.69H17267" fill="#CED2F7"/>
<path fill-rule="evenodd" clip-rule="evenodd" d="M17992 12983.2C18023.3 12969.6 18048.5 12949.6 18067.5 12922.9C18092.8 12889.9 18105.9 12850.8 18106.9 12805.5C18153.5 12774.1 18208.5 12758.5 18271.8 12758.5C18347.6 12758.5 18412.7 12781.1 18466.7 12826.4C18525.5 12877.6 18555 12946 18555 13031.4C18555 13096.6 18533.6 13158.1 18490.9 13216.1C18437.2 13288.9 18363.7 13325.3 18270.6 13325.3C18148.4 13325.3 18064.6 13279 18019.3 13186.3C18004.9 13156.7 17995.4 13123.9 17990.7 13087.9C17988.6 13072.7 17987.6 13055.7 17987.6 13037.2C17987.6 13018.1 17989 13000.1 17992 12983.2V12983.2ZM17949.4 11825.5C17974.9 11789.4 17987.6 11750.2 17987.6 11707.4C17987.6 11685 17984.9 11664.3 17979.3 11645.2C17993.3 11618.6 18012.2 11594.8 18035.7 11574.1C18089.1 11527.6 18154.8 11504.3 18232.5 11504.3C18308.3 11504.3 18373.1 11526.9 18426.8 11572.2C18485.6 11623.4 18515 11691.7 18515 11777.3C18515 11842.9 18493.7 11904.3 18451.4 11962C18396.5 12035.2 18321.7 12071.8 18226.8 12071.8C18103.4 12071.8 18019.8 12025.2 17976 11932.1C17963.1 11902.9 17954.5 11870.3 17950.7 11834.4C17950.7 11831.3 17950.4 11828.4 17949.4 11825.5ZM18114.5 10627.1C18136.1 10666.1 18146.8 10713 18146.8 10768C18146.8 10773.5 18146.5 10779.7 18145.5 10786.4C18110.5 10794.9 18078.9 10811.8 18050.4 10837.2C18008.5 10876.1 17987.6 10926.1 17987.6 10987C17987.6 11003.1 17988.1 11018.7 17989.4 11034C17952.2 11051.8 17909.8 11060.6 17862.5 11060.6C17737.3 11060.6 17652.7 11014.7 17609.3 10922.9C17595.3 10893.3 17586.4 10860.1 17582.5 10823.3C17580.5 10811 17579.4 10793.8 17579.4 10771.8C17579.4 10754.1 17580.9 10736.5 17583.8 10719.2C17593.6 10677.7 17613.6 10640.5 17643.5 10607.5C17651.2 10599.8 17659.1 10592.2 17667.7 10584.6C17688.8 10566.4 17710.7 10551.6 17733.1 10540.2C17772.8 10520.3 17816.4 10508.4 17863.8 10504.6C17892.6 10502.9 17919.6 10504.4 17945 10509.1C17987.7 10515.9 18025.6 10532.4 18058.6 10558.6C18082.3 10577.6 18101.1 10600.5 18114.5 10627.1V10627.1ZM17649.2 9253.62C17678.9 9244.3 17710.7 9239.65 17744.4 9239.65C17794.9 9239.65 17840.3 9250.02 17880.9 9270.75C17902.1 9281.34 17921.5 9294.02 17939.3 9308.84C17978.3 9342.26 18003.9 9383.1 18016.1 9431.34C18023.7 9456.72 18027.4 9484.23 18027.4 9513.84C18027.4 9577.32 18007.6 9637.41 17967.9 9694.1C17914.5 9769 17839.6 9806.44 17743.2 9806.44C17617.8 9806.44 17533.5 9760.54 17489.9 9668.72C17476 9639.53 17467 9606.31 17463.3 9569.06C17461.2 9556.8 17460 9539.86 17460 9518.29C17460 9500.95 17461.2 9484.65 17463.3 9469.42C17464.9 9459.27 17467 9449.95 17469 9441.49C17481.2 9388.17 17507.7 9343.94 17548.3 9308.84C17558 9300.38 17568.6 9292.97 17579.4 9286.62C17601.3 9271.39 17624.7 9260.38 17649.2 9253.62ZM18932 10481.8C18952.8 10492.4 18971.6 10505.3 18988.5 10520.5C19047.3 10571.7 19076.7 10640.9 19076.7 10728.1C19076.7 10790.7 19057.3 10849.9 19018.3 10905.8C19015.7 10909.6 19013 10913.4 19010 10917.2C19009.3 10918 19007.8 10919.9 19005.6 10922.9C18955.3 10988.1 18884.7 11020.7 18793.5 11020.7C18732.3 11020.7 18680.6 11009.4 18638.7 10987C18637 10985.7 18634.7 10984.7 18631.8 10983.8C18593.7 10960.2 18564.4 10926.5 18543.6 10882.9C18530.5 10852.5 18521.9 10819.2 18518.1 10783.3C18516 10771 18515 10754.1 18515 10732.5C18515 10655.5 18537.5 10592.9 18582.2 10544.6C18588.6 10537 18595.6 10529.8 18603.1 10523C18655.3 10475.7 18719.9 10452 18796.8 10452C18847.2 10452 18892.2 10461.9 18932 10481.8V10481.8ZM18103.1 9775.35C18084.8 9756.31 18069.6 9734.09 18057.4 9708.69C18043 9679.08 18033.9 9645.89 18030 9609.05C18028.4 9596.78 18027.4 9579.66 18027.4 9557.64C18027.4 9505.6 18038 9460.11 18058.6 9421.18C18073 9393.67 18092.1 9369.57 18115.7 9348.82C18120.4 9345.01 18125 9341.22 18129.7 9337.39C18180.1 9298.47 18240.8 9279 18311.9 9279C18387.6 9279 18452.6 9302.27 18506.7 9348.82C18565.7 9399.18 18595 9467.51 18595 9553.85C18595 9601.23 18585 9645.66 18565.1 9687.13C18556.6 9704.48 18546.7 9721.19 18535.3 9737.26C18482.9 9810.04 18408 9846.43 18310.6 9846.43C18220.4 9846.43 18151.2 9822.73 18103.1 9775.35V9775.35ZM16747.9 8609.38C16762.4 8565.81 16786.9 8528.99 16821.5 8498.94C16874.8 8452.41 16940.5 8429.12 17018.4 8429.12C17094.1 8429.12 17158.8 8451.77 17212.5 8497.03C17271.3 8548.25 17300.8 8616.58 17300.8 8702.05V8706.49C17299.9 8769.96 17278.9 8830.06 17237.3 8886.75C17183.2 8959.95 17109.5 8996.56 17016.4 8996.56C16894.2 8996.56 16810.4 8950.01 16765.1 8856.92C16750.8 8827.73 16741.2 8794.94 16736.5 8758.54C16734.8 8743.74 16733.9 8726.8 16733.9 8707.76C16733.9 8671.8 16738.6 8639.01 16747.9 8609.38V8609.38ZM18027.4 8834.06C18024.6 8828.57 18021.7 8822.86 18019.3 8816.93C18004.9 8787.73 17995.4 8755.16 17990.7 8719.19C17988.6 8703.95 17987.6 8686.81 17987.6 8667.77C17987.6 8579.77 18016.9 8510.16 18075.7 8458.95C18129 8412.42 18194.5 8389.13 18271.8 8389.13C18347.6 8389.13 18412.7 8411.99 18466.7 8457.68C18525.5 8508.89 18555 8577.02 18555 8662.06C18555 8729.34 18533.6 8791.54 18490.9 8848.66C18474.7 8871.09 18456.4 8889.92 18435.6 8905.15C18389.9 8939.43 18334.9 8956.56 18270.6 8956.56C18155.9 8956.56 18074.9 8915.74 18027.4 8834.06V8834.06ZM17496.9 10608.7C17499.1 10620.1 17500 10631.5 17500 10643C17500 10676 17495.5 10707.7 17486.1 10738.2C17476.4 10769.5 17461.2 10799.3 17440.4 10827.7C17413.7 10864.5 17381.7 10892 17343.9 10910.2C17337.3 10923.3 17329.6 10936 17321 10948.2C17267.8 11023.2 17192.8 11060.6 17096.4 11060.6C16971.2 11060.6 16886.8 11014.7 16843.2 10922.9C16832.6 10902.1 16825 10879.3 16820.3 10854.3C16818.7 10844.2 16817.4 10833.8 16816.6 10823.2C16814.3 10810.9 16813.3 10793.8 16813.3 10771.8C16813.3 10683.8 16842.8 10614.2 16901.6 10563C16913.8 10552.4 16926.5 10542.9 16939.6 10534.4C16945.6 10530.6 16951.3 10527.4 16956.7 10524.9C16971.9 10493.6 16993.4 10466.1 17020.8 10442.4C17021.8 10441.1 17023.2 10440.1 17025.3 10439.2C17077.3 10396.5 17141.1 10375.1 17217 10375.1C17220.8 10387.8 17226.9 10417.2 17235.4 10463.3C17249 10493.8 17267.6 10518.1 17291.3 10536.3C17324.3 10560.9 17367.4 10573.1 17420.7 10573.1C17445.4 10573.1 17468 10569.8 17488.7 10563C17493.4 10577.4 17496.2 10592.6 17496.9 10608.7" fill="#6ECC00"/>
<path fill-rule="evenodd" clip-rule="evenodd" d="M18136.4 13617.6C18179.1 13582.4 18231 13564.9 18291.9 13564.9C18352.5 13564.9 18403.5 13582.4 18445.4 13617.6C18491.7 13656.1 18514.7 13708.1 18514.7 13773.7C18514.7 13815.6 18499.7 13855.3 18469.6 13893C18428.6 13946.4 18368.7 13973 18289.9 13973C18189.7 13973 18122 13936.5 18086.8 13863.2C18074 13796.4 18067.2 13766.5 18067.1 13773.3C18067.1 13708 18090.3 13656.1 18136.4 13617.6ZM18291.9 12326.6C18277.4 12258.1 18270.3 12226.4 18270.3 12231.5C18270.3 12168 18291.2 12117.6 18333.1 12080.4C18370.8 12046.5 18417.1 12029.6 18472.1 12029.6C18527.3 12029.6 18573.6 12046.5 18611.8 12080.4C18653.2 12117.6 18673.9 12168 18673.9 12231.5C18673.9 12277.5 18661.2 12319.3 18635.9 12356.5C18598.6 12408.5 18543.2 12434.5 18469.6 12434.5C18383.2 12434.5 18324 12398.6 18291.9 12326.6V12326.6ZM18106.6 12805.8C18105.6 12851.1 18092.6 12890.2 18067.1 12923.2C18048.1 12949.9 18023 12970 17991.7 12983.5C17961.2 12995.7 17924.8 13001.9 17882.5 13001.9C17784 13001.9 17717.5 12965.8 17683.2 12893.4C17670.1 12825.3 17663.5 12793.5 17663.5 12798.2C17663.5 12734.8 17686.6 12684.6 17732.6 12647.8C17774.6 12613.5 17825.4 12596.4 17885 12596.4C17944.6 12596.4 17995.4 12613.5 18037.3 12647.8C18083.5 12684.6 18106.6 12734.8 18106.6 12798.2V12805.8V12805.8ZM17978.9 11645.6C17984.5 11664.7 17987.2 11685.4 17987.2 11707.8C17987.2 11750.6 17974.5 11789.8 17949.1 11825.9C17949.1 11826.8 17948.7 11827.8 17947.9 11829.1C17908.8 11884.9 17847.2 11912.8 17762.6 11912.8C17662.2 11912.8 17594.6 11875 17559.4 11799.2C17546.6 11730.9 17540 11700.2 17539.8 11707.2C17539.9 11643.2 17563 11592.2 17608.9 11554.2C17651.7 11520.4 17703.5 11503.4 17764.4 11503.4C17825 11503.4 17876.1 11520.4 17918.1 11554.2C17948.1 11579.2 17968.4 11609.6 17978.9 11645.6V11645.6ZM18387 11031.2C18382.4 11068.1 18370.5 11101.7 18351.5 11132.1C18315.5 11191 18260.6 11220.4 18186.5 11220.4C18098.4 11220.4 18039.2 11183.8 18008.7 11110.6C18006.8 11107.2 18004.7 11103.6 18003 11099.8C18003 11097.7 18002.7 11096.2 18001.7 11095.3C17996 11076.3 17991.7 11056 17989.1 11034.4C17987.9 11019.2 17987.2 11003.5 17987.2 10987.4C17987.2 10926.5 18008.2 10876.6 18050 10837.7C18078.4 10812.3 18110.2 10795.3 18145.2 10786.9C18159.6 10783.9 18174.3 10782 18189 10781.2C18244.1 10778.2 18290.2 10793.9 18327.4 10828.1C18368.8 10865.8 18389.5 10920.2 18389.5 10991.2C18389.5 11003.5 18388.7 11015.4 18387 11026.8V11031.2ZM17522.6 10546.3C17512.1 10553.1 17500.6 10558.8 17488.3 10563.5C17467.7 10570.3 17445 10573.6 17420.4 10573.6C17367.1 10573.6 17324 10561.4 17290.9 10536.8C17267.3 10518.6 17248.7 10494.3 17235.1 10463.8C17226.6 10417.7 17220.5 10388.3 17216.6 10375.6C17215.9 10370.4 17215.5 10368.4 17215.4 10369.6C17215.5 10306.3 17236.9 10256.2 17279.5 10219.5C17317.3 10185.2 17364.1 10168.1 17420.4 10168.1C17475 10168.1 17521.3 10185.2 17559.4 10219.5C17602.2 10256.3 17623.5 10306.4 17623.5 10369.9C17623.5 10412.6 17608.8 10453.9 17579.1 10493.7C17563 10515.7 17544.2 10533.2 17522.6 10546.3V10546.3ZM18131.3 10478.4C18099.8 10488.6 18065.3 10493.7 18027.2 10493.7C18015.7 10493.7 18004.7 10493.2 17994.2 10492.4C17887.1 10484.8 17813.2 10439.3 17772.6 10355.9C17758.4 10326.7 17749.1 10293.5 17745.4 10256.3C17743.7 10243.2 17742.8 10226.2 17742.8 10205.5C17742.8 10117.1 17772.2 10047.3 17831 9996.07C17884 9949.95 17949.4 9926.89 18027.2 9926.89C18047.1 9926.89 18066.5 9928.58 18085.6 9931.98C18113.1 9937.04 18138.8 9945.73 18162.4 9957.99C18184 9967.31 18203.8 9980 18222 9996.07C18280.8 10046.4 18310.2 10114.8 18310.2 10201.1C18310.2 10269.2 18290.3 10330.8 18250.6 10385.8C18219.4 10429.3 18179.5 10460.2 18131.3 10478.4V10478.4ZM17666 8846.06C17717.4 8882.88 17742.8 8933.24 17742.8 8997.12C17742.8 9046.2 17730.1 9087.25 17704.8 9120.25C17664.5 9173.56 17596.2 9200.22 17499.7 9200.22C17395.6 9200.22 17323.1 9161.72 17282.1 9084.7C17264.5 9017.65 17255.7 8988.25 17255.4 8996.49C17255.5 8932.94 17281.1 8882.8 17332.2 8846.06C17377.6 8811.79 17433.4 8794.66 17499.7 8794.66C17565.4 8794.66 17620.7 8811.79 17666 8846.06" fill="#549C00"/>
<path fill-rule="evenodd" clip-rule="evenodd" d="M17880.9 9270.85C17840.2 9250.13 17794.9 9239.76 17744.4 9239.76C17710.7 9239.76 17678.9 9244.42 17649.2 9253.73C17644.6 9252.88 17639.5 9252.47 17634.1 9252.47C17706.8 9213.54 17816.6 9177.55 17963.4 9144.55C18158.8 9101.81 18381.6 9073.24 18631.8 9058.87V9385.75C18631.8 9479.67 18676.4 9527.69 18765.7 9529.82H19204.9C19229.4 9529.82 19250.3 9526.02 19267 9518.4C19287 9511.63 19303 9499.78 19315.2 9482.85C19330.5 9460 19338.2 9429.54 19338.2 9391.45V9056.33C19611 9068.6 19852.9 9098.02 20063.6 9144.55C20202.9 9175.45 20308.4 9209.52 20380.4 9246.74C20459.1 9286.51 20498.4 9329.68 20498.4 9376.23C20498.4 9393.99 20492.7 9411.55 20481.3 9428.9C20435.2 9496.18 20295.9 9555.43 20063.6 9606.62C19773.5 9670.09 19423 9701.83 19012.5 9701.83C18854.4 9701.83 18705.2 9696.96 18565.1 9687.24C18585.1 9645.77 18594.9 9601.33 18594.9 9553.95C18594.9 9467.61 18565.6 9399.28 18506.8 9348.93C18452.5 9302.38 18387.7 9279.1 18311.8 9279.1C18240.8 9279.1 18180.1 9298.57 18129.7 9337.51C18104.3 9316.77 18050 9298.78 17966.6 9283.55C17940 9278.91 17911.4 9274.68 17880.9 9270.85" fill="#60FFFC"/>
<path fill-rule="evenodd" clip-rule="evenodd" d="M18163.5 9957.5C18139.8 9945.24 18114.2 9936.55 18086.6 9931.49L18103.8 9775.34C18152 9822.73 18221.3 9846.42 18311.3 9846.42C18408.7 9846.42 18483.6 9810.03 18536.1 9737.25C18547.4 9721.17 18557.4 9704.47 18565.9 9687.13C18706 9696.85 18855.2 9701.72 19013.3 9701.72C19423.8 9701.72 19774.3 9669.98 20064.3 9606.51C20296.6 9555.32 20436 9496.07 20482.1 9428.79V9637.6C20493.4 9653.7 20499.2 9670.61 20499.2 9688.39C20499.2 9778.52 20354.2 9855.33 20064.3 9918.79C19774.3 9982.27 19423.8 10014 19013.3 10014C18693.9 10014 18410.6 9995.17 18163.5 9957.5" fill="#3AB3B0"/>
<path fill-rule="evenodd" clip-rule="evenodd" d="M22996.7 9734.79V10165.7C23025.2 10194.1 22904.4 10233 22634.5 10282.5L21525.6 10478.6L21057.8 10561.1L20573.1 10646.2L20093.8 10730L19004.8 10923.5C19006.9 10920.6 19008.4 10918.7 19009.1 10917.8C19012.3 10914 19014.9 10910.2 19017.4 10906.4C19056.4 10850.5 19075.8 10791.3 19075.8 10728.7C19075.8 10641.5 19046.4 10572.4 18987.6 10521.2C18970.8 10505.9 18951.9 10493 18931.1 10482.4L19247.7 10427.2C19468.7 10387.5 19589.5 10354.2 19610.2 10327.6V10367.6L22634.5 9834.45C22855.3 9794.67 22976.1 9761.46 22996.7 9734.79ZM18113.7 10627.8L18581.5 10545.3C18536.7 10593.5 18514.2 10656.1 18514.2 10733.1C18514.2 10754.7 18515.2 10771.6 18517.3 10783.9C18521.2 10819.9 18529.7 10853.1 18542.7 10883.6C18563.5 10927.1 18592.8 10960.8 18631 10984.5L18386.5 11027C18388.2 11015.6 18389.2 11003.7 18389.2 10991.4C18389.2 10920.4 18368.4 10866 18326.9 10828.3C18289.7 10794.1 18243.7 10778.4 18188.6 10781.4C18173.9 10782.2 18159.1 10784.1 18144.7 10787.1C18145.7 10780.3 18146.1 10774.2 18146.1 10768.7C18146.1 10713.7 18135.2 10666.7 18113.7 10627.8V10627.8ZM12880.8 11944.4C12830.4 11942.3 12785.1 11937.5 12744.9 11930.2L12721 11925.7L12250.6 11843.2L10099.7 11466.2L9641.5 11385.6L9165.51 11301.8L8678.08 11216.1L8396.32 11166.6L7924.11 11084.1L7785.13 11060L6096.36 10763C6029.94 10751.5 6002.86 10737.2 6015.12 10719.8V10285.1C6023.59 10296.5 6050.67 10306.4 6096.36 10314.9L12743.8 11482H12745C12837.6 11499.3 12958.9 11502.3 13108.8 11490.9C13116.9 11490.4 13125.2 11489.7 13133.4 11489C13251.1 11478.9 13385.7 11460.5 13537 11433.8L16819.6 10855C16824.3 10880 16831.9 10902.8 16842.4 10923.5C16886.1 11015.4 16970.6 11061.3 17095.7 11061.3C17192.2 11061.3 17267 11023.8 17320.4 10948.9C17328.9 10936.7 17336.5 10924 17343.2 10910.8C17380.8 10892.7 17413 10865.2 17439.7 10828.3C17460.5 10800 17475.7 10770.2 17485.3 10738.8L17583.2 10719.8C17580.2 10737.2 17578.7 10754.7 17578.7 10772.5C17578.7 10794.5 17579.8 10811.6 17581.8 10823.9C17585.7 10860.7 17594.5 10893.9 17608.5 10923.5C17652 11015.4 17736.6 11061.3 17861.8 11061.3C17909.1 11061.3 17951.4 11052.4 17988.6 11034.6C17991.3 11056.2 17995.4 11076.5 18001.4 11095.5L16697.8 11324L16170.3 11417.9L15689.2 11501.7L13672.3 11857.2L13537 11881.9C13414.9 11903.5 13303.6 11919.6 13203.2 11930.2C13079.1 11943.5 12971.6 11948.2 12880.8 11944.4H12880.8ZM10917.2 9372.38L10842.9 9358.41C10782.5 9345.71 10778.7 9335.13 10831.5 9326.68L11201.5 9262.59V9265.76C11212.9 9309.33 11243.7 9334.52 11293.5 9341.28L12864.3 9625.61C12929.1 9637.87 12983.6 9639.77 13028.1 9631.33C13032.8 9629.19 13037.9 9627.31 13043.9 9625.61L15571.3 9195.93L16044.7 9285.42C16105.5 9296.85 16109.3 9307.44 16056 9317.15L13287.1 9795.7C13233.7 9804.59 13176.9 9803.32 13116.3 9791.89L10917.2 9372.38" fill="#D4576A"/>
<path fill-rule="evenodd" clip-rule="evenodd" d="M18058.6 9421.38C18046.3 9424.34 18032.1 9427.72 18015.9 9431.53C18003.8 9383.29 17978.1 9342.47 17939.2 9309.03C17921.4 9294.24 17902 9281.55 17880.8 9270.96C17911.3 9274.78 17939.9 9279 17966.5 9283.65C18049.8 9298.88 18104.2 9316.87 18129.6 9337.6C18125 9341.42 18120.3 9345.22 18115.7 9349.02C18092 9369.77 18073 9393.88 18058.6 9421.38V9421.38ZM17633.8 9252.57C17639.3 9252.57 17644.6 9252.98 17649.1 9253.81C17624.7 9260.59 17601.3 9271.6 17579.3 9286.82C17563.2 9285.55 17546.8 9284.51 17529.9 9283.65C17406 9283.65 17303.9 9290.85 17223.9 9305.23C17139.7 9323.85 17095.7 9342.26 17091.9 9360.47C17095.7 9378.63 17121.3 9393.25 17168.7 9404.24C17183 9407.2 17201.5 9410.59 17223.9 9414.41C17291.2 9429.63 17372.8 9438.73 17469 9441.69C17466.9 9450.16 17464.9 9459.45 17463.2 9469.62C17319.8 9467.08 17194.1 9456.28 17086.2 9437.24C17072.2 9433.46 17056.1 9429.63 17037.9 9425.82C16957.6 9407.62 16914 9387.75 16907.2 9366.16V9360.47C16907.2 9331.26 16966.9 9305.66 17086.2 9283.65C17210.6 9262.09 17358.4 9251.29 17529.9 9251.29C17565.8 9251.29 17600.5 9251.7 17633.8 9252.57" fill="#A6ACE0"/>
<path fill-rule="evenodd" clip-rule="evenodd" d="M17993.5 10492.3C17980.4 10498.2 17963.9 10504 17944 10509.5C17918.6 10504.8 17891.6 10503.3 17862.7 10505C17815.3 10508.8 17771.7 10520.7 17732 10540.6C17670.7 10544.4 17603 10546.3 17528.9 10546.3H17521.9C17543.5 10533.2 17562.2 10515.6 17578.3 10493.6C17608.1 10453.8 17622.8 10412.6 17622.8 10369.8C17622.8 10306.4 17601.5 10256.2 17558.7 10219.4C17520.6 10185.1 17474.4 10168 17419.8 10168C17363.4 10168 17316.5 10185.1 17278.8 10219.4C17236.1 10256.2 17214.8 10306.2 17214.7 10369.5C17214.8 10368.3 17215.3 10370.3 17215.9 10375.5C17140.2 10375.5 17076.4 10396.9 17024.4 10439.7L17023 10435.2L16906.2 9366.38C16913.2 9387.96 16956.7 9407.84 17037.1 9426.04C17055.2 9429.84 17071.3 9433.68 17085.2 9437.47C17193.2 9456.51 17318.8 9467.3 17462.2 9469.84C17460.2 9485.06 17459.1 9501.37 17459.1 9518.71C17459.1 9540.28 17460.2 9557.22 17462.2 9569.48C17466 9606.72 17474.9 9639.94 17489 9669.13C17532.6 9760.96 17616.8 9806.86 17742.2 9806.86C17838.7 9806.86 17913.5 9769.4 17966.8 9694.51C18006.5 9637.83 18026.4 9577.74 18026.4 9514.26C18026.4 9484.65 18022.7 9457.15 18015.1 9431.76C18031.2 9427.95 18045.3 9424.56 18057.5 9421.6C18036.9 9460.53 18026.4 9506.01 18026.4 9558.06C18026.4 9580.07 18027.4 9597.2 18029 9609.46C18032.8 9646.29 18042 9679.5 18056.3 9709.11C18068.6 9734.5 18083.9 9756.71 18102 9775.75L18084.8 9931.9C18065.9 9928.51 18046.5 9926.81 18026.4 9926.81C17948.7 9926.81 17883.3 9949.88 17830.4 9995.99C17771.5 10047.2 17742.2 10117 17742.2 10205.4C17742.2 10226.2 17743 10243.1 17744.7 10256.2C17748.5 10293.5 17757.6 10326.7 17772 10355.9C17812.6 10439.2 17886.4 10484.7 17993.5 10492.3" fill="#345BA7"/>
<path fill-rule="evenodd" clip-rule="evenodd" d="M17468.6 9441.8C17372.6 9438.84 17290.9 9429.74 17223.6 9414.52C17201.2 9410.7 17182.9 9407.3 17168.5 9404.34C17121.2 9393.35 17095.5 9378.75 17091.6 9360.56C17095.5 9342.36 17139.6 9323.96 17223.6 9305.34C17303.7 9290.96 17405.8 9283.75 17529.5 9283.75C17546.6 9284.61 17563 9285.66 17579.1 9286.92C17568.2 9293.28 17557.8 9300.69 17548.1 9309.15C17507.4 9344.26 17481 9388.48 17468.6 9441.8" fill="#264376"/>
<path fill-rule="evenodd" clip-rule="evenodd" d="M17522.8 10546.4H17529.9C17604 10546.4 17671.6 10544.5 17732.9 10540.6C17710.6 10552.1 17688.7 10566.9 17667.5 10585.1C17659.1 10592.7 17651 10600.3 17643.5 10607.9C17607.5 10608.8 17569.5 10609.2 17529.9 10609.2H17496.8C17496.1 10593.1 17493.2 10577.9 17488.6 10563.5C17500.9 10558.8 17512.2 10553.1 17522.8 10546.4ZM17944.9 10509.6C17964.7 10504.1 17981.3 10498.3 17994.4 10492.4C18004.9 10493.2 18016 10493.7 18027.4 10493.7C18065.5 10493.7 18100.1 10488.6 18131.5 10478.4C18141.6 10486.9 18146.7 10495.8 18146.7 10505.1V10515.3C18138.2 10530.5 18108.8 10545.1 18058.5 10559.1C18025.4 10532.8 17987.7 10516.3 17944.9 10509.6V10509.6ZM17025.3 10439.7C17023.2 10440.6 17021.7 10441.6 17020.7 10442.9C16993.4 10466.6 16971.9 10494.1 16956.6 10525.4C16951.3 10528 16945.6 10531.1 16939.5 10535C16921.1 10525.6 16910.1 10515.7 16907.1 10505.1V10499.4C16907.1 10475.7 16946.1 10454.3 17024 10435.3L17025.3 10439.7Z" fill="#BB355A"/>
<path fill-rule="evenodd" clip-rule="evenodd" d="M5211.73 15128.7C5235.41 15257.3 5228.87 15383.5 5192.04 15507C5115.47 15694.5 5077.17 15788.5 5077.17 15789.4C5039.08 15900.2 5023.43 16000.8 5030.21 16090.9C5099.19 16150.6 5182.12 16189.5 5279 16207.7C5330.19 16216.9 5417.36 16222.7 5540.49 16224.8C5574.76 16224.8 5606.09 16225.7 5634.43 16227.4C5685.62 16416.1 5719.26 16595.7 5735.35 16766.2C5634.65 16732.3 5490.57 16689.2 5303.11 16636.7C5122.87 16597 4912.78 16518.4 4672.87 16401.3C4672.51 16401.3 4672.21 16401.1 4671.91 16400.9C4671.85 16400.4 4671.74 16399.9 4671.61 16399.4C4656.36 16349.5 4647.91 16298.8 4646.21 16247.7C4644.09 16178.2 4624.63 16083.9 4587.82 15964.6C4531.13 15694.2 4498.55 15532.6 4490.08 15479.7C4458.77 15293.8 4449.25 15129.6 4461.52 14986.5C4524.99 14958.2 4624.42 14923.9 4759.82 14883.7C4897.34 14843.1 4997.41 14809.1 5060.03 14781.5C5115.89 14907.6 5166.45 15023.3 5211.73 15128.7V15128.7ZM4304.75 9842.39C4269.63 9834.76 4250.17 9812.97 4246.36 9777.02C4267.5 9736.39 4296.06 9704.66 4332.05 9681.8C4374.79 9653.46 4414.98 9647.76 4452.63 9664.67C4486.06 9693.44 4496.65 9723.28 4484.36 9754.18C4472.95 9782.93 4447.78 9806.21 4408.84 9823.99C4371.61 9842.16 4336.9 9848.31 4304.75 9842.39ZM5088.6 9539.64C5157.56 9483.79 5237.97 9467.29 5329.77 9490.13C5431.32 9517.64 5474.49 9583.85 5459.26 9688.79C5459.26 9712.47 5456.93 9733.86 5452.27 9752.9C5440 9807.05 5407.85 9844.93 5355.8 9866.51C5294.87 9891.47 5226.12 9890.63 5149.53 9863.96C5071.67 9836.47 5021.95 9795.22 5000.37 9740.19C4975.42 9676.73 4999.96 9614.1 5074 9552.33C5078.64 9547.68 5083.52 9543.44 5088.6 9539.64V9539.64ZM5082.88 9538.38C4846.78 9484.21 4662.72 9452.48 4530.71 9443.18C4537.48 9408.9 4542.75 9373.78 4546.57 9337.8C4552.5 9207.05 4580.42 9082.88 4630.35 8965.25C4640.93 8941.55 4658.08 8931.61 4681.76 8935.41C4740.59 8945.99 4790.29 8973.93 4830.9 9019.19C4875.34 9069.55 4911.94 9124.54 4940.72 9184.21C4996.57 9298.87 5043.95 9416.93 5082.88 9538.38V9538.38ZM4101.64 16184.9C4067.37 16208.6 4030.98 16231.8 3992.48 16254.7C3942.12 16283 3887.55 16310.5 3828.74 16337.2C3785.14 16367.3 3739.24 16389.5 3691 16403.8C3569.57 16474 3453.84 16545.1 3343.83 16617.1C3342.98 16618 3342.14 16618.4 3341.29 16618.4C3340.02 16617.5 3338.97 16617.1 3338.11 16617.1V16614.5C3338.11 16613.3 3338.53 16612.3 3339.39 16611.4C3443.9 16543.2 3553.06 16476.4 3666.89 16410.8C3755.75 16358.8 3847.99 16307.6 3943.61 16257.2C3955.89 16229.7 3944.67 16102.7 3909.97 15876.4C3900.24 15822.2 3902.56 15701.9 3916.95 15515.3C3916.95 15514.4 3917.37 15513.6 3918.23 15512.7H3919.49C3920.77 15512.7 3921.83 15513.1 3922.67 15514C3923.5 15514 3923.93 15514.4 3923.93 15515.3C3923.09 15519.1 3922.67 15522.9 3922.67 15526.7C3967.1 15690.4 4026.76 15909.8 4101.64 16184.9ZM4028.02 9642.49C4041.13 9664.91 4050.45 9689.45 4055.96 9716.12C3998.41 9946.29 3918.42 10168.6 3816.05 10383.2C3788.55 10381.1 3763.36 10374.3 3740.5 10362.9C3710.05 10346.8 3685.49 10321.8 3666.89 10288C3626.7 10214.8 3591.99 10139.3 3562.8 10061.4C3498.47 9889.17 3451.51 9712.95 3421.9 9532.69C3411.74 9467.11 3410.47 9401.31 3418.08 9335.31C3425.27 9274.37 3449.81 9223.17 3491.72 9181.7C3508.64 9164.36 3528.09 9162.45 3550.1 9176C3658.85 9242.42 3753.21 9327.68 3833.18 9431.77C3874.65 9480.85 3919.07 9526.34 3966.47 9568.22C3992.27 9590.24 4012.8 9614.99 4028.02 9642.49ZM10658.7 1667.68L10743.7 1771.79C10800.1 1839.85 10795.8 1904.35 10731 1965.29L10699.9 1995.2L10337.5 2330.31L10322.9 2344.86L10302 2364.58C10237.2 2424.23 10176.9 2420.03 10121.1 2351.81L9832.92 1996.49C9855.39 1964.32 9879.5 1930.7 9905.27 1895.46C10013.2 1684.01 10068.6 1534.96 10071.6 1448.64C10074.6 1361.51 10117.8 1246.89 10201 1104.63V1102.05L10204.9 1106.57L10658.7 1667.68ZM17673.4 15764.2L17683.6 15843.6C17691.2 15908.3 17674.7 15966.2 17633.9 16017.5C17592.1 16068.6 17539 16098.1 17474.7 16105.7C17409.2 16113.3 17350.7 16096.6 17299.5 16055.6C17248.4 16014.1 17219 15961 17211.2 15896.3L17185.8 15676L17673.4 15764.2ZM9817.07 17114.9L9827.22 17194.2C9834.47 17258.9 9817.7 17317 9777.08 17368.1C9735.7 17419.3 9682.51 17448.7 9617.78 17456.3C9552.65 17463.9 9494.52 17447.2 9443.24 17406.2C9392.08 17364.7 9362.63 17311.6 9355.01 17246.9L9329.63 17026.6L9817.07 17114.9ZM11997.8 16770.9L11267.3 16633.1L10335.6 16456.7L9731.33 16341.2L9745.93 16475.1L9763.06 16621.7L9273.72 16533.5L9256.58 16376.7L9164.55 15555.4L9144.23 15367.6L9138.52 15325L9019.21 14255.6L8826.25 12534.3L8708.2 11476.2L8678.37 11216L9165.81 11301.7L9304.82 12549.5L9455.87 13888.7L9664.05 15740.1L9676.11 15848L10265.7 15960L10526 16009.3L12021.9 16293L11997.8 16770.9ZM13672.7 11857L14149.9 16125.4L14348 17877.1C14355.7 17941.4 14338.9 17999.2 14297.8 18050.4C14256.3 18101.5 14203.6 18131 14139.3 18138.6C14073.6 18146.2 14015.3 18129.4 13964 18088.4C13912.9 18046.9 13883.4 17994 13875.8 17929.8L13785.1 17109.1L12468.7 16860.3L12492.8 16382.4L12588 16399.5L13729.1 16615.9L13684.2 16207.8L13683.6 16201.1L13627 15698.8L13203.6 11930C13304 11919.4 13415.2 11903.3 13537.6 11881.7L13672.7 11857ZM17130.5 15182.8L16698.3 11323.9C16769.4 11314.6 16844.7 11302.7 16924.3 11288.3L17167.4 11245.8L17532.3 14497.4L19878.7 14942.3L19853.9 15420.2L17588.2 14990.5L17619.2 15271.1L17130.5 15182.8ZM20349.1 15031.7L21586.1 15265.3L21058.6 10560.9L21526.4 10478.4L22204.3 16526.4V16529C22211.9 16592.4 22195.4 16649.3 22154.8 16699.7C22112.9 16750.9 22059.7 16780.3 21995.4 16787.9C21929.8 16795.5 21871.6 16778.8 21820.3 16737.8C21769.1 16696.3 21739.7 16643.5 21732.1 16579.1L21716.9 16442L21641.2 15758.5L20324.9 15509.7L20349.1 15031.7" fill="black"/>
<path fill-rule="evenodd" clip-rule="evenodd" d="M12821 9236.81L12932 9267.91L12799.4 9285.05L12671.8 9258.39L12821 9236.81ZM12444 9343.44L12327.8 9319.33L12402.7 9312.34L12631.8 9265.39L12774 9295.2L12463 9343.44H12444ZM12478.2 9252.69L12588 9265.39L12381.8 9303.47L12360.2 9297.74L12357.7 9309.17L12218 9330.75L12164.1 9319.33L12167.2 9292.03L12291 9271.08L12320.8 9276.8V9267.91L12459.8 9241.25L12478.2 9252.69ZM12636.3 9218.41L12671.8 9231.1L12553.8 9249.5H12542.3L12487.1 9243.79L12484 9239.99L12602 9218.41H12636.3ZM12771.5 9191.11L12899 9219.67L12765.8 9236.81L12636.3 9215.87L12749.9 9191.11H12771.5ZM13035.5 9352.32L12926.3 9370.73L12792.4 9354.86L12902.2 9327.57L13035.5 9352.32ZM12890.8 9285.05L13001.9 9303.47L12890.8 9322.51H12874.9L12762.6 9306.64V9303.47L12872.4 9279.34L12890.8 9285.05ZM12843.8 9333.28L12612.2 9370.73L12484 9354.86L12730.2 9309.17L12843.8 9330.75V9333.28ZM12923.2 9206.98L12796.9 9188.57L12968.9 9153.03L13100.9 9177.15L12953 9206.98H12923.2ZM13015.8 9444.36L13004.4 9445.62H12982.8L12934.6 9431.66L13015.8 9420.24C13012.9 9430.82 13012.9 9438.86 13015.8 9444.36ZM13079.9 9289.49L13033 9292.03L12923.2 9282.51L12932 9276.8L13041.2 9249.5H13050.1L13093.9 9259.66L13079.9 9289.49ZM12982.8 9260.93L12961.9 9258.39L12850.8 9234.27L12961.9 9215.87L13086.9 9234.27L12982.8 9260.93ZM13018.4 9410.08L12910.5 9430.4L12784.2 9410.08L12974.6 9370.73H12982.8L13034.2 9377.71L13027.3 9391.68C13023.4 9398.45 13020.5 9404.57 13018.4 9410.08ZM13044.4 9358.04L13038.7 9370.73L13020.3 9367.56L13035.5 9358.04H13044.4ZM13051.4 9344.72L12953 9322.51L13071 9303.47L13051.4 9344.72ZM12880.6 9378.98L12874.9 9382.16L12741.6 9403.1L12631.8 9376.46H12638.8V9373.28L12756.9 9354.86L12880.6 9378.98ZM13104 9239.99L13095.2 9255.22L13083.7 9252.69L13095.2 9241.25L13104 9239.99ZM15711.4 9059.1L15635.8 9146.05L15577.4 9174.61L13044.4 9609.38L13033 9606.84L13011.4 9585.26L13008.8 9563.69V9537.02L13048.2 9455.79C13053.3 9454.93 13058.2 9454.09 13062.8 9453.24L13154.8 9434.2L13129.4 9486.88C13104 9538.09 13116 9559.02 13165 9549.71L15710.1 9054.66H15712.6L15711.4 9059.1ZM13109.8 9228.56L13008.8 9206.98L13126.9 9188.57H13129.4L13109.8 9228.56ZM13162.4 9125.74L13136.4 9174.61H13122.5L12998.7 9149.86L13162.4 9125.74ZM13180.8 9087.66L12762.6 9161.28H12711.8L12140 9052.12L12977.1 8909.95H13011.4L13251.9 8948.03L13180.8 9087.66Z" fill="#869DB8"/>
<path fill-rule="evenodd" clip-rule="evenodd" d="M12771.5 9191.13H12749.9L12636.3 9215.88L12765.8 9236.83L12899 9219.69L12771.5 9191.13ZM12636.3 9218.42H12602L12484 9240L12487.1 9243.81L12542.4 9249.52H12553.8L12671.8 9231.12L12636.3 9218.42ZM12478.2 9252.71L12459.8 9241.27L12320.8 9267.93V9276.81L12291 9271.1L12167.3 9292.05L12164.1 9319.35L12218 9330.76L12357.7 9309.18L12360.2 9297.76L12381.8 9303.48L12588 9265.4L12478.2 9252.71ZM12444 9343.45H12463L12774 9295.22L12631.8 9265.4L12402.7 9312.36L12327.8 9319.35L12444 9343.45ZM12821 9236.83L12671.8 9258.41L12799.4 9285.06L12932.1 9267.93L12821 9236.83ZM13035.5 9352.34L12902.2 9327.59L12792.4 9354.88L12926.3 9370.75L13035.5 9352.34ZM12843.8 9333.3V9330.76L12730.2 9309.18L12484 9354.88L12612.2 9370.75L12843.8 9333.3ZM12890.8 9285.06L12872.4 9279.35L12762.6 9303.48V9306.66L12874.9 9322.52H12890.8L13001.9 9303.48L12890.8 9285.06ZM12923.2 9207H12953L13100.9 9177.17L12968.9 9153.05L12796.9 9188.59L12923.2 9207ZM12982.8 9260.95L13086.9 9234.29L12961.9 9215.88L12850.8 9234.29L12961.9 9258.41L12982.8 9260.95ZM12880.6 9379L12756.9 9354.88L12638.8 9373.3V9376.47H12631.8L12741.6 9403.12L12874.9 9382.17L12880.6 9379ZM15711.4 9059.11L15677.1 9121.95L15635.8 9161.3L15604.7 9174.63L15577.4 9194.3L15571.7 9195.57L13044.4 9625.26C13038.4 9626.96 13033.2 9628.85 13028.5 9630.97C12984.1 9639.42 12929.5 9637.53 12864.8 9625.26L11293.9 9340.92C11244 9334.15 11213.3 9308.97 11201.9 9265.4V9262.23L11210.1 9207H11221.6L12874.9 9507.21L13008.8 9518.63L13017.1 9494.51L13028.5 9475.47L12966.3 9478.64L12097.4 9316.8V9313.62L12066.3 9312.36L12054.9 9309.18L12057.4 9300.93L13170.7 9107.35L13162.4 9125.76L12998.7 9149.87L13122.5 9174.63H13136.4L13129.4 9188.59H13126.9L13008.8 9207L13109.8 9228.58L13104.1 9240L13095.2 9241.27L13083.7 9252.71L13095.2 9255.23L13093.9 9259.68L13050.1 9249.52H13041.2L12932.1 9276.81L12923.2 9282.52L13033 9292.05L13079.9 9289.51L13071 9303.48L12953 9322.52L13051.4 9344.74L13044.4 9358.05H13035.5L13020.3 9367.57L13038.7 9370.75L13034.2 9377.73L12982.8 9370.75H12974.6L12784.2 9410.1L12910.5 9430.42L13018.4 9410.1C13017.6 9413.06 13016.7 9416.44 13015.8 9420.25L12934.6 9431.68L12982.8 9445.64H13004.4L13015.8 9444.37C13020.5 9452.84 13031.3 9456.65 13048.2 9455.81L13008.8 9537.04V9563.71L13011.4 9585.27L13033 9606.85L13044.4 9609.39L15577.4 9174.63L15635.8 9146.07L15711.4 9059.11Z" fill="#A7C4E4"/>
<path fill-rule="evenodd" clip-rule="evenodd" d="M12709.6 12163.7L12535.6 15556.5L12533.4 15598L12510.8 16033.7L12494.3 16357L12493.1 16382.2L12469 16860.1L12400.5 18196.7C12396.7 18260.9 12370.6 18315.4 12322.4 18359.8C12272.8 18403.4 12216 18423.9 12151.7 18421.4C12086.1 18417.6 12031.6 18391.3 11988 18342.7C11943.4 18294.4 11922.8 18237.7 11925.7 18172.6L11961.3 17504.3L9817.33 17114.6L9329.9 17026.4L9182.01 16999.7L8711.09 16912.8L8108.17 16803L8101.2 16932.4L8089.77 17151.4L8082.78 17285.3L8078.34 17371.6C8074.53 17436.4 8048.52 17490.9 8000.28 17535.4C7951.19 17578.9 7894.29 17599.2 7829.56 17596.3C7764.4 17592.5 7710.02 17566.5 7666.43 17518.2C7621.59 17470 7600.65 17413 7603.61 17347.5L7606.78 17275.1L7618.21 17074.6L7627.73 16878.5L7689.28 15682.7L7924.75 11083.9L8396.94 11166.4L8291.6 13224.7L8159.58 15813.6L8146.89 16075.7L8134.2 16324.5L8445.18 16381L8438.21 16344.2C8499.97 16348 8578.7 16357.9 8674.28 16374C8799.57 16394.7 8877.89 16407 8909.12 16410.8C8964.97 16442.1 9021.69 16471.1 9079.2 16497.8L9274.05 16533.3L9763.38 16621.6L9972.19 16659.6C10098.4 16654.9 10224 16638.4 10349.2 16610.1C10347.9 16627.9 10347.9 16659.6 10349.2 16705.3C10347.9 16713.8 10345.4 16721.3 10341.6 16728.2L10530.7 16761.8L11985.4 17026.5L11998 16770.7L12022.3 16292.8L12033.9 16065.8L12072.1 15328.3L12229.5 12270.5L12246.2 11943L12251.3 11843.1L12721.6 11925.6L12713.4 12090.3L12709.6 12163.7ZM15464.1 15894.8L15689.9 11501.5L16171 11417.8L15990.1 14973.9L17130.6 15182.7L17619.4 15270.9L19841.4 15675.9L19854.2 15420.1L19878.9 14942.2L20094.6 10729.8L20573.8 10646L20349.1 15031.7L20325 15509.6L20289.4 16191.9L20256.5 16846.2C20252.7 16910.6 20226.6 16964.9 20178.4 17009.3C20129.5 17052.9 20072.5 17073.4 20007.7 17070.9C19942.5 17067.1 19888.3 17040.8 19844.6 16992.2C19799.7 16944 19778.8 16887.2 19781.7 16822.1L19817.3 16153.8L17673.4 15764.1L17186 15675.9L17051.9 15651.8L15964.8 15452.5L15946.3 15809.8L15934.9 16021.1C15931.1 16085.9 15905.1 16140.5 15856.3 16184.9C15807.3 16228.4 15750.6 16248.7 15686.2 16245.8C15620.7 16242 15566.1 16216 15522.4 16167.8C15478 16119.5 15457.2 16062.7 15460.3 15997L15464.1 15894.8" fill="#666666"/>
<path fill-rule="evenodd" clip-rule="evenodd" d="M8887.17 974.515C8872.82 1004.98 8856.32 1035.06 8837.66 1064.64C8797.55 1125.95 8746.77 1187.52 8685.33 1249.34C8683.3 1250.99 8681.4 1252.89 8679.62 1255.05C8678.86 1255.94 8677.34 1257.21 8675.18 1258.86C8611.71 1277.01 8569.19 1246.8 8547.63 1168.1C8537.9 1121.51 8530.71 1087.11 8526.05 1064.64C8517.59 1024.91 8507.65 995.841 8496.22 977.688C8376.9 1049.66 8357.44 1196.4 8437.83 1418.16H8416.25C8296.93 1271.3 8262.44 1077.08 8312.8 835.518L8321.05 798.706C8322.32 795.786 8322.95 792.739 8322.95 789.82L8325.49 780.299C8326.33 773.572 8327.81 766.717 8329.93 759.989C8395.09 770.525 8467.66 789.185 8547.63 815.842C8675.43 859.382 8788.66 912.315 8887.17 974.515ZM10192.1 802.514C10095.6 829.171 9988.99 829.171 9872.21 802.514C9810.89 788.55 9708.07 754.023 9563.75 699.059C9432.24 647.903 9328.53 616.549 9252.75 605.125C9136.85 587.353 9029.59 598.397 8930.96 638.129L8932.86 645.11C8933.75 652.727 8934.64 659.708 8935.4 666.055C8936.29 674.941 8937.31 683.573 8938.58 692.077L8941.11 718.734C8854.8 696.266 8773.81 671.386 8698.03 643.841C8590.13 603.601 8498.13 562.347 8421.96 520.076C8427.04 511.571 8431.48 502.939 8435.29 494.054L8482.26 417.256C8516.11 365.211 8554.4 316.594 8597.11 271.277C8621.74 244.62 8647.76 220.248 8675.18 198.288C8676.07 197.399 8677.08 196.638 8678.35 195.749C8682.16 192.829 8685.33 190.418 8687.87 188.767C8872.82 278.894 8983.64 331.954 9020.45 348.075C9192.33 420.049 9337.03 455.972 9454.58 455.972C9927.3 455.972 10236.5 458.257 10382.5 462.954L10393.9 474.378C10407.5 486.691 10419.9 498.877 10431.4 511.19C10418.7 573.771 10390.1 631.147 10345.7 683.192C10304.3 732.698 10253 772.429 10192.1 802.514Z" fill="#132146"/>
<path fill-rule="evenodd" clip-rule="evenodd" d="M10658 1667.57L10204.2 1106.5C10244 1122.62 10292.9 1162.36 10350.8 1225.83C10409.7 1290.94 10460.8 1330.8 10504.4 1345.15C10571.6 1384.12 10616.7 1446.06 10639.5 1531.11C10647.2 1559.93 10653.4 1605.37 10658 1667.57ZM10699.2 1995.07C10702.3 2003.58 10705.6 2011.95 10709.4 2020.46C10741.6 2097 10800.1 2148.67 10885.2 2175.32C10843.8 2211.25 10772.7 2274.72 10671.9 2365.73C10664.3 2371.7 10656.9 2376.9 10649.7 2381.6L10646.5 2382.87C10639.8 2386.68 10633.2 2390.48 10626.9 2394.29C10610.9 2402.8 10595.1 2410.41 10579.9 2417.14L10535.5 2428.56C10494.8 2434.91 10456.6 2429.2 10420.6 2411.43C10398.6 2391.5 10370.7 2364.46 10336.8 2330.19L10699.2 1995.07Z" fill="#ED9870"/>
<path fill-rule="evenodd" clip-rule="evenodd" d="M4321.84 3669.39L4306.6 3683.99C4287.56 3693.26 4260.49 3697.95 4225.36 3697.95C4194.05 3697.95 4155.12 3688.43 4108.58 3669.39H4321.84ZM4450.04 4019.11C4236.79 4100.73 4006.81 4082.32 3760.14 3963.89C3573.54 3872.87 3385.47 3729.31 3195.9 3532.93C3215.77 3508.43 3237.15 3488.89 3260 3474.54C3281.58 3485.08 3305.28 3498.03 3331.09 3513.26L3508.8 3669.39H3581.15C3716.56 3758.63 3812.82 3817.91 3869.94 3847.11C3993.92 3912.73 4102.44 3945.48 4195.53 3945.48C4300.47 3945.48 4409.84 3915.65 4523.67 3855.99C4636.64 3796.33 4702.02 3766.5 4719.79 3766.5C4730.36 3766.5 4739.88 3766.88 4748.35 3767.77C4738.19 3823.62 4714.49 3872.49 4677.26 3914.38C4675.56 3916.03 4673.66 3918.44 4671.55 3921.36C4614.85 3980.14 4541.02 4012.76 4450.04 4019.11ZM8437.8 1418.78C8486.04 1503.45 8559 1548 8656.75 1552.7C8626.28 1756.69 8690.26 1946.59 8848.42 2122.65C8850.58 2124.81 8852.1 2126.71 8852.87 2128.36C8855.02 2129.25 8856.55 2130.65 8857.31 2132.81C8867.97 2144.23 8878.25 2155.02 8888.41 2165.17L9154.34 2370.18C9218.7 2409.15 9288.9 2445.07 9365.06 2478.08L9360.62 2485.06C9317.08 2546.88 9275.44 2584.96 9235.58 2599.3C9194.58 2612.38 9054.32 2549.42 8814.78 2410.17C8658.27 2319.15 8544.85 2231.82 8474.62 2148.04C8436.95 2102.72 8411.36 2058.29 8397.82 2014.75C8399.09 1999.52 8400.57 1984.67 8402.26 1970.32V1959.53L8405.43 1925.26L8409.24 1878.29C8409.24 1863.06 8408.81 1848.21 8407.97 1833.87V1819.9V1779.92L8406.7 1744.37C8405.87 1705.4 8405.43 1673.29 8405.43 1647.9C8404.16 1557.77 8407.76 1481.36 8416.22 1418.78H8437.8ZM10193.4 1005.59C10171.8 1006.48 10149.2 1007.24 10125.4 1008.13C10071.4 1009.78 10012.5 1010.67 9949 1010.67C9880.07 1010.67 9811.91 1007.12 9744.63 999.881C9611.85 983.379 9484.66 951.391 9363.18 904.043C9209.59 843.493 9068.05 809.093 8938.57 800.588H8936.67C8937.94 793.861 8939.08 787.26 8939.84 780.913C8940.73 775.835 8941.11 771.012 8941.11 766.315C8942 751.082 8942 735.469 8941.11 719.348L8938.57 692.691C8937.3 684.186 8936.29 675.554 8935.4 666.669C8934.64 660.322 8933.75 653.34 8932.86 645.724L8930.96 638.742C9029.59 599.01 9136.85 587.967 9252.75 605.738C9328.53 617.163 9432.24 648.516 9563.74 699.672C9708.07 754.637 9810.89 789.164 9872.2 803.127C9988.99 829.784 10095.6 829.784 10192.1 803.127C10190.4 875.482 10190.8 943.013 10193.4 1005.59Z" fill="#F18D69"/>
<path fill-rule="evenodd" clip-rule="evenodd" d="M8941.75 719.376C8942.64 735.497 8942.64 751.11 8941.75 766.343C8941.75 771.04 8941.37 775.863 8940.49 780.941C8939.72 787.288 8938.58 793.888 8937.31 800.616H8939.22C8935.41 829.812 8929.06 859.262 8920.18 888.838L8887.81 975.156C8789.3 912.957 8676.07 860.023 8548.27 816.483C8468.3 789.826 8395.73 771.167 8330.57 760.631C8334.38 745.398 8338.61 730.419 8343.27 715.568L8407.37 550.548C8412.88 540.012 8417.94 529.984 8422.6 520.717C8498.77 562.988 8590.77 604.243 8698.67 644.482C8774.45 672.028 8855.44 696.908 8941.75 719.376ZM8678.99 196.39C8910.91 6.74455 9211.37 -44.7924 9580.25 41.5256C9747.05 81.2573 9909.91 146.25 10069 236.376C10192.6 306.192 10297.3 381.974 10383.1 463.595C10237.2 458.898 9927.94 456.614 9455.22 456.614C9337.67 456.614 9192.97 420.69 9021.09 348.716C8984.28 332.595 8873.46 279.535 8688.51 189.409C8685.97 191.059 8682.8 193.471 8678.99 196.39Z" fill="#17388E"/>
<path fill-rule="evenodd" clip-rule="evenodd" d="M8421.94 520.095C8417.28 529.362 8412.22 539.39 8406.71 549.926C8416.01 530.885 8425.53 512.225 8435.27 494.073C8431.46 502.959 8427.02 511.59 8421.94 520.095Z" fill="#FF6633"/>
<path fill-rule="evenodd" clip-rule="evenodd" d="M3260 3473.9C3265.5 3470.09 3271.64 3467.3 3278.41 3465.65L3331.09 3512.62C3305.28 3497.39 3281.58 3484.44 3260 3473.9ZM4748.35 3767.13C4739.89 3766.24 4730.37 3765.86 4719.79 3765.86C4702.02 3765.86 4636.65 3795.69 4523.67 3855.35C4409.85 3915.01 4300.48 3944.84 4195.54 3944.84C4102.44 3944.84 3993.92 3912.09 3869.94 3846.47C3812.82 3817.27 3716.56 3757.99 3581.16 3668.75H4108.58C4155.12 3687.79 4194.05 3697.31 4225.37 3697.31C4260.49 3697.31 4287.57 3692.62 4306.61 3683.35L4321.84 3668.75H4383.41L4235.52 3283.5C4364.15 3302.54 4453.22 3329.19 4502.73 3363.47C4587.78 3387.97 4653.15 3434.81 4698.85 3503.73C4741.59 3568.47 4759.99 3640.19 4754.06 3718.89C4753.23 3735.78 4751.31 3751.9 4748.35 3767.13ZM9365.09 2477.44C9288.93 2444.43 9218.73 2408.51 9154.37 2369.54L8888.44 2164.54C8878.28 2154.38 8868 2143.59 8857.34 2132.17C8856.57 2130.01 8855.05 2128.61 8852.89 2127.72C8852.13 2126.07 8850.61 2124.17 8848.45 2122.01C8690.29 1945.95 8626.31 1756.05 8656.77 1552.06C8559.03 1547.36 8486.07 1502.81 8437.83 1418.14C8357.44 1196.38 8376.9 1049.64 8496.22 977.663C8507.65 995.815 8517.59 1024.88 8526.05 1064.62C8530.71 1087.08 8537.9 1121.48 8547.63 1168.07C8569.19 1246.77 8611.71 1276.98 8675.18 1258.83C8677.34 1257.18 8678.86 1255.91 8679.62 1255.02C8681.4 1252.87 8683.3 1250.96 8685.33 1249.31C8746.77 1187.49 8797.55 1125.93 8837.66 1064.62C8856.32 1035.04 8872.82 1004.95 8887.17 974.49L8919.54 888.172C8928.42 858.595 8934.77 829.145 8938.58 799.95C9068.05 808.454 9209.59 842.855 9363.18 903.404C9484.66 950.752 9611.86 982.741 9744.63 999.243C9811.91 1006.48 9880.08 1010.03 9949 1010.03C10012.5 1010.03 10071.4 1009.14 10125.4 1007.49C10149.2 1006.6 10171.8 1005.84 10193.4 1004.95L10196.5 1054.46C10197.4 1069.69 10198.9 1085.31 10201 1101.43V1103.97C10117.7 1246.14 10074.5 1360.76 10071.5 1447.97C10068.6 1534.29 10013.1 1683.19 9905.21 1894.79C9879.44 1929.95 9855.32 1963.59 9832.85 1995.71C9746.54 2117.19 9682.43 2218.1 9640.54 2298.46L9608.17 2382.23C9557.91 2447.86 9476.79 2479.6 9365.09 2477.44Z" fill="#FFB087"/>
<path fill-rule="evenodd" clip-rule="evenodd" d="M9608.17 2382.27C9637.37 2441.93 9631.66 2518.73 9591.04 2612.66C9546.23 2712.95 9520.58 2768.8 9514.24 2780.22L9336.52 2813.23C9175.31 2759.02 9018.42 2674.23 8865.58 2558.72C8713.26 2441.93 8548.47 2292.14 8371.19 2109.35L8397.84 2014.15C8411.39 2057.69 8436.98 2102.12 8474.64 2147.44C8544.87 2231.21 8658.29 2318.55 8814.81 2409.56C9054.34 2548.81 9194.61 2611.78 9235.61 2598.7C9275.47 2584.36 9317.1 2546.28 9360.64 2484.46L9365.09 2477.47C9476.79 2479.63 9557.9 2447.9 9608.17 2382.27Z" fill="#D67958"/>
<path fill-rule="evenodd" clip-rule="evenodd" d="M8827.51 8199.05C8695.49 8170.7 8543.82 8140.87 8372.46 8109.55C8370.76 8109.55 8368.86 8109.14 8366.74 8108.28C8278.73 8087.14 8195.38 8064.28 8116.68 8039.74C8073.94 8025.36 8032.68 8010.76 7992.91 7995.94C7989.1 7993.84 7985.3 7992.35 7981.49 7991.5C7816.47 7925.93 7677.67 7848.28 7565.13 7758.57C7563.86 7758.57 7562.81 7757.94 7561.96 7756.67C7514.57 7735.94 7479.45 7705.26 7456.6 7664.64C7451.94 7654.9 7447.71 7644.96 7443.91 7634.81C7435.44 7608.15 7430.79 7578.74 7429.94 7546.58C7429.94 7523.73 7444.11 7433.61 7472.47 7276.2C7607.02 6858.22 7682.76 6516.5 7699.69 6251.2C7724.65 5856.81 7641.29 5525.5 7449.62 5257.28C7326.49 5063.95 7220.91 4882.43 7132.91 4712.71C7236.15 4624.74 7348.9 4532.46 7471.2 4435.99C7590.52 4342.94 7691.02 4237.58 7772.67 4119.91C7855.18 4003.51 7897.29 3872.76 7898.98 3727.67C7898.14 3711.55 7897.29 3695.94 7896.44 3680.7L7826.62 3456.02C7825.77 3453.48 7824.72 3451.58 7823.45 3450.31C7821.75 3446.5 7819.86 3443.33 7817.74 3440.79C7816.05 3436.98 7814.13 3434.06 7812.03 3431.91C7811.17 3428.99 7809.91 3426.19 7808.22 3423.65C7805.26 3417.69 7801.87 3412.86 7798.06 3409.06L7769.5 3369.71C7766.96 3365.9 7764.21 3362.47 7761.25 3359.55C7759.13 3357.39 7757.66 3355.49 7756.81 3353.84C7708.57 3292.02 7649.76 3238.96 7580.36 3194.53C7485.59 3131.95 7386.15 3095.9 7282.06 3086.63C7169.08 3076.1 7065.2 3096.79 6970.43 3148.83C6955.63 3160.26 6939.96 3172.06 6923.46 3184.38C6946.31 3154.29 6971.49 3126.37 6998.99 3100.6C7006.6 3091.33 7014.64 3081.81 7023.11 3072.04C7032.84 3061.88 7042.78 3051.47 7052.94 3040.94C7127.83 2964.39 7229.38 2880.99 7357.59 2790.87C7541.22 2852.69 7702.64 2982.92 7841.86 3181.84C8053.41 3484.33 8159.2 3881.52 8159.2 4373.15C8159.2 4502.25 8198.97 4652.8 8278.52 4825.05C8325.91 4928.76 8413.08 5102.67 8540.02 5346.77C8795.14 5878.64 8922.71 6464.46 8922.71 7104.23C8922.71 7105.08 8902.4 7373.34 8861.78 7909.02C8850.35 8016.08 8838.93 8112.75 8827.51 8199.07V8199.05ZM9640.54 2298.96C9682.43 2218.6 9746.54 2117.69 9832.85 1996.21L10121 2351.64C10176.9 2419.8 10237.2 2423.99 10301.9 2364.33L10322.8 2344.65C10356.3 2381.47 10387.6 2419.8 10416.8 2459.53C10416.8 2463.34 10417.3 2467.15 10418 2470.96V2472.23L10452.3 2559.18L10453.6 2561.72C10459.5 2569.34 10465.3 2577.33 10470.7 2585.84C10522 2640.04 10566.6 2690.82 10604.6 2738.16C10538.2 2885.03 10517.9 3043.2 10543.7 3212.91C10582.3 3467.17 10599.2 3625.46 10594.5 3687.66C10604.3 3874.64 10564 4150.99 10473.9 4516.57C10466.3 4546.14 10459.2 4575.59 10452.3 4604.79C10421.1 4744.04 10397.3 4869.71 10381.2 4981.8C10373.6 4949.68 10366 4916.8 10358.4 4883.42C10253.5 4405.75 10174.3 4053.24 10121 3826.02C10028.3 3430.87 9908.64 3077.34 9761.77 2765.45C9761.77 2767.11 9761.13 2769.01 9759.87 2771.17C9759.87 2741.59 9757.96 2711.13 9754.15 2679.77C9748.69 2633.19 9738.29 2583.55 9723.05 2530.62L9640.54 2298.96Z" fill="#B9BD22"/>
<path fill-rule="evenodd" clip-rule="evenodd" d="M9336.53 2813.84L9514.24 2780.84L9569.46 2884.93C9577.96 2895.08 9595.1 2928.34 9620.87 2984.57C9621.76 2985.46 9622.14 2986.22 9622.14 2987.11C9642.07 3030.65 9663.39 3055.91 9686.24 3062.64C9693.86 3050.33 9700.46 3037.51 9705.92 3023.92C9724.19 2928.34 9742.09 2844.05 9759.86 2771.32C9761.13 2769.16 9761.77 2767.25 9761.77 2765.6C9908.64 3077.49 10028.3 3431.01 10121 3826.17C10174.3 4053.39 10253.5 4405.9 10358.4 4883.57C10366 4916.95 10373.6 4949.83 10381.2 4981.94C10361.4 5125 10354.8 5246.23 10361.6 5345.62C10333.2 5644.31 10327.2 5910.75 10343.1 6144.7C10361.8 6431.2 10413.8 6690.28 10499.3 6922.2C10586.5 7132.89 10638.1 7297.49 10654.1 7415.96C10680 7617.79 10630.7 7770.75 10506.3 7874.84C10425 7942.97 10302.4 8051.08 10138.1 8199.17C9988.35 8315.53 9842.37 8380.06 9700.2 8392.75C9627.47 8408.83 9548.77 8405.88 9464.1 8383.86C9409.13 8369.9 9335.76 8341.56 9243.86 8298.82C9144.47 8270.47 9016.01 8239.15 8858.6 8204.88C8848.07 8202.77 8837.66 8200.86 8827.5 8199.17C8838.93 8112.85 8850.35 8016.17 8861.78 7909.12C8902.4 7373.44 8922.71 7105.18 8922.71 7104.33C8922.71 6464.58 8795.13 5878.76 8540.01 5346.87C8413.08 5102.77 8325.91 4928.86 8278.52 4825.15C8198.97 4652.9 8159.2 4502.35 8159.2 4373.25C8159.2 3881.62 8053.41 3484.43 7841.85 3181.94C7702.64 2983.02 7541.21 2852.79 7357.59 2790.97C7414.28 2751.23 7475.84 2709.98 7542.28 2667.2C7764 2527.19 7929.87 2410.53 8039.88 2317.49C8071.18 2292.1 8097.63 2267.98 8119.21 2245.13C8191.57 2423.23 8333.74 2593.32 8545.73 2755.42C8616.02 2808.36 8711.36 2873.22 8831.95 2950.27C8988.08 3050.55 9082.27 3111.74 9114.38 3133.7C9125.81 3142.97 9136.47 3151.09 9146.12 3157.82C9183.82 3178.51 9215.55 3170.89 9241.32 3134.97C9243.86 3130.27 9248.18 3121.26 9254.02 3107.68C9264.17 3082.29 9279.4 3041.29 9299.71 2984.55L9336.53 2813.82" fill="#D3D727"/>
<path fill-rule="evenodd" clip-rule="evenodd" d="M4321.84 3669.41H3508.8L3331.09 3513.28L3278.41 3466.31L1369.26 1772.96H3653.51L4235.52 3284.16L4383.41 3669.41H4321.84Z" fill="#E9EDF8"/>
<path fill-rule="evenodd" clip-rule="evenodd" d="M8925.25 15329.2L8821.8 15331.7C8596.36 15252.1 8417.52 15170.8 8285.51 15087.4C8320.63 14826.6 8371.83 14569.2 8439.1 14315C8555.05 13879.9 8638.63 13440.3 8689.78 12996.1C8700.83 12893.6 8726.47 12792.7 8766.58 12693.3C8787.4 12640 8807.2 12586.8 8826.24 12534L9019.19 14255.3C8997.61 14453.7 8979.2 14655.1 8963.97 14859.5C8949.62 15048.3 8936.68 15204.8 8925.25 15329.2V15329.2ZM9304.8 12549.2L9165.8 11301.4L9641.82 11385.2C9629 11426.2 9615.54 11468.6 9601.58 11512.4C9575.3 11595 9546.99 11682.9 9516.53 11775.8C9503.2 11816.2 9489.62 11857.6 9475.53 11900C9414.22 12111.1 9357.35 12327.5 9304.8 12549.2ZM8089.39 17151.4C8135.93 17155.2 8197.5 17157.5 8274.08 17158.4C8384.1 17158.4 8525.42 17155.2 8698.03 17148.8C8706.54 17249.1 8642.69 17299.7 8506.38 17300.5C8469.99 17300.5 8411.18 17297 8329.94 17289.7C8256.74 17282.1 8206.39 17279.6 8178.88 17282.1C8145.88 17285.1 8113.71 17286.1 8082.41 17285.3L8089.39 17151.4ZM7617.82 17074.6C7469.73 16929.9 7426.98 16763.6 7489.61 16575.7C7502.72 16608.7 7539.11 16675.6 7598.77 16776.3C7604.69 16813.1 7614.21 16847.1 7627.34 16878.5L7617.82 17074.6ZM7688.9 15682.7C7658.44 15656.4 7617.6 15620.5 7566.41 15574.8L7482.63 15489.8V13785C7480.51 13740.6 7479.02 13697.8 7478.18 13656.8V13655.5C7474.38 13490.5 7477.75 13350.2 7488.34 13234.7C7503.57 13123.9 7539.11 12995 7594.97 12848.2C7663.93 12681.4 7714.5 12555.8 7746.66 12471.2C7865.13 12164 7896.44 11902.5 7840.59 11686.7C7834.24 11521.7 7815.84 11312.6 7785.37 11059.6L7924.37 11083.7L7688.9 15682.7ZM8678.36 11215.8L8708.19 11476C8639.64 11865.7 8559.04 12240.9 8466.4 12601.9C8459.62 12629.5 8401.23 12836.9 8291.22 13224.6L8396.58 11166.3L8678.36 11215.8ZM9225.46 9670.28C9256.81 9336.85 9288.17 9003.86 9319.39 8671.28L9700.21 8392.65C9842.38 8379.96 9988.36 8315.43 10138.1 8199.07C10302.4 8050.98 10425 7942.87 10506.3 7874.74C10507.5 7881.52 10508.7 7888.29 10509.4 7895.05C10531 8005.92 10549 8116.77 10563.4 8227.63C10536.7 8255.14 10507.8 8284.55 10476.4 8315.85C10194.3 8597.24 10038.4 8779.61 10008.7 8862.96C9962.59 8995.82 9940.38 9160.84 9942.03 9358.01C9942.91 9407.95 9944.82 9469.94 9947.74 9543.98L9225.46 9670.28ZM8736.11 9757.25L7631.78 9952.09C7575.93 9541.66 7543.14 9218.81 7533.4 8983.55C7452.16 8558.3 7462.73 8149.98 7565.14 7758.59C7677.68 7848.3 7816.47 7925.95 7981.49 7991.53C7985.3 7992.38 7989.11 7993.86 7992.92 7995.97C8032.69 8010.78 8073.94 8025.38 8116.68 8039.76C8195.38 8064.3 8278.73 8087.16 8366.75 8108.31C8368.87 8109.16 8370.76 8109.58 8372.46 8109.58C8543.83 8140.89 8695.49 8170.72 8827.51 8199.07C8837.66 8200.76 8848.07 8202.67 8858.61 8204.78C8848.07 8261.48 8836.27 8321.56 8823.07 8385.03C8746.52 8763.31 8708.19 9064.79 8708.19 9289.47C8708.19 9497.23 8717.58 9653.15 8736.11 9757.25Z" fill="#003151"/>
<path fill-rule="evenodd" clip-rule="evenodd" d="M11825.8 4514.85L11790.2 4462.17C11847 4511.67 11902.3 4555.21 11956.5 4592.91C11956.8 4593.17 11956.9 4593.55 11957.2 4593.8C11949.2 4590.12 11940.9 4586.06 11932.4 4581.49L11909.6 4568.79C11881.3 4552.67 11853.3 4534.77 11825.8 4514.85Z" fill="#FBF1E9"/>
<path fill-rule="evenodd" clip-rule="evenodd" d="M9138.5 15324.8H9091.54L8925.25 15329.2C8936.67 15204.8 8949.62 15048.3 8963.96 14859.5C8979.2 14655.2 8997.6 14453.7 9019.18 14255.3L9138.5 15324.8ZM9455.85 13888.5L9304.79 12549.3C9357.35 12327.5 9414.21 12111.1 9475.53 11900C9489.62 11857.6 9503.2 11816.2 9516.53 11775.8C9546.99 11682.9 9575.3 11595.1 9601.57 11512.5C9615.54 11468.6 9628.99 11426.2 9641.81 11385.2L10100.1 11465.8C10074.9 11552.9 10049.3 11639.9 10023 11726.7C9983.53 11856.5 9942.91 11986.3 9900.77 12115.8C9890.87 12146.6 9880.96 12177.4 9871.32 12208.4C9697.67 12758.7 9559.18 13318.8 9455.85 13888.5ZM8285.51 15087.4C8279.16 15150 8276.4 15258.9 8277.25 15414.2C8277.25 15553.4 8271.54 15661.9 8260.12 15739.8L8192.21 15800.8C8182.47 15805.5 8171.48 15809.7 8159.2 15813.5L8291.22 13224.6C8401.22 12836.9 8459.61 12629.5 8466.39 12601.9C8559.03 12240.9 8639.64 11865.7 8708.18 11476L8826.24 12534C8807.2 12586.8 8787.39 12640 8766.58 12693.3C8726.46 12792.7 8700.82 12893.6 8689.78 12996.1C8638.62 13440.4 8555.05 13879.9 8439.1 14315C8371.82 14569.2 8320.63 14826.7 8285.51 15087.4ZM9225.46 9670.29L8736.11 9757.26C8717.58 9653.16 8708.18 9497.24 8708.18 9289.48C8708.18 9064.8 8746.52 8763.32 8823.06 8385.04C8836.26 8321.57 8848.07 8261.49 8858.61 8204.79C9016.01 8239.06 9144.47 8270.38 9243.86 8298.72C9335.77 8341.46 9409.14 8369.81 9464.1 8383.77C9548.77 8405.78 9627.47 8408.74 9700.21 8392.66L9319.39 8671.29C9288.16 9003.87 9256.81 9336.86 9225.46 9670.29ZM10563.4 8227.64C10615.4 8631.3 10615.9 9033.49 10564.7 9434.19L9947.73 9543.99C9944.82 9469.95 9942.91 9407.96 9942.02 9358.02C9940.37 9160.85 9962.59 8995.83 10008.7 8862.96C10038.4 8779.62 10194.2 8597.25 10476.4 8315.86C10507.8 8284.56 10536.7 8255.15 10563.4 8227.64Z" fill="#00558C"/>
<path fill-rule="evenodd" clip-rule="evenodd" d="M5315.77 10383C5351.73 10276.8 5375 10192 5385.59 10128.6C4797.01 10235.6 4532.56 10602.9 4592.22 11230.4C4618.88 11497.4 4732.07 11576.5 4931.78 11467.7C5132.76 11357.7 5237.92 11176.2 5247.22 10923.2C5256.96 10668.9 5279.79 10488.8 5315.77 10383ZM4304.71 9842.29C4336.86 9848.22 4371.57 9842.08 4408.8 9823.9C4447.73 9806.12 4472.9 9782.85 4484.32 9754.08C4496.6 9723.19 4486.01 9693.34 4452.59 9664.58C4414.93 9647.66 4374.74 9653.37 4332 9681.72C4296.03 9704.57 4267.46 9736.3 4246.32 9776.92C4250.12 9812.88 4269.58 9834.68 4304.71 9842.29ZM4027.98 9642.37C4154.92 9559.86 4250.54 9500.63 4314.86 9464.65C4352.94 9442.64 4424.87 9435.46 4530.66 9443.09C4662.67 9452.39 4846.73 9484.12 5082.84 9538.29C5084.53 9539.13 5086.44 9539.55 5088.55 9539.55C5083.47 9543.35 5078.6 9547.59 5073.95 9552.24C4999.91 9614.01 4975.37 9676.64 5000.33 9740.11C5021.91 9795.12 5071.63 9836.38 5149.48 9863.87C5226.07 9890.54 5294.82 9891.38 5355.75 9866.41C5407.8 9844.83 5439.95 9806.97 5452.23 9752.8C5512.74 9847.59 5531.14 9941.1 5507.45 10033.3C5428.74 10160.3 5377.12 10306 5352.58 10470.6C5328.88 10636.5 5321.28 10864.6 5329.73 11154.8C5338.62 11444.7 5358.08 11634.7 5388.12 11724.8C5417.74 11814 5453.28 11906.6 5494.75 12002.2C5536.64 12097.8 5594.4 12191.6 5668.02 12283.3C5859.7 12472 5951.3 12732.7 5942.84 13065.3C5936.93 13227.8 5882.33 13505.1 5779.09 13897.4C5580.22 13582.6 5306.25 13535.1 4957.17 13755.2C4847.58 13823.4 4721.06 13926 4577.62 14063.6C4432.92 14201.1 4354.43 14274.1 4342.15 14282.6C4298.58 14318.5 4228.76 14402.3 4132.71 14534C4072.2 14617.7 4001.12 14720.6 3919.45 14842.4C3872.06 14912.6 3830.81 14973.3 3795.69 15024.6L3919.45 15512.6H3918.18C3917.33 15513.5 3916.91 15514.3 3916.91 15515.2C3902.52 15701.8 3900.19 15822.1 3909.93 15876.3C3944.62 16102.7 3955.84 16229.6 3943.57 16257.1C3847.95 16307.5 3755.7 16358.7 3666.84 16410.7C3553.02 16476.4 3443.85 16543.1 3339.34 16611.3C3338.49 16612.2 3338.07 16613.2 3338.07 16614.5V16615.7C3330.46 16617.4 3322.42 16619.3 3313.96 16621.5C3278.83 16605.3 3244.77 16587.4 3211.77 16567.5C3104.71 16504 3152.96 16283.2 3356.48 15904.9C3560.43 15526.6 3529.12 15216.2 3262.55 14973.8C2997.25 14731 2794.98 14619 2655.78 14638C2516.57 14657.1 2381.38 14698.3 2250.22 14761.8C2119.47 14825.3 1967.99 14975.8 1795.78 15213.7C1760.65 15267 1736.33 15324.4 1722.79 15385.7C1683.02 15572.3 1686.39 15871.4 1732.94 16283.2C1741.4 16360.6 1759.38 16430.7 1786.89 16493.2C1747.96 16480.9 1708.19 16468.2 1667.57 16455.2L1635.2 16443.7C1633.08 16437 1631.18 16429.8 1629.49 16422.2C1566.86 16169 1550.15 15895.7 1579.35 15602.1C1584.01 15598.3 1588.87 15593.5 1593.95 15587.5C1600.29 15510.1 1608.76 15433.3 1619.33 15357.1C1687.45 14978 1816.3 14616.1 2005.86 14271.2C2167.92 13975.4 2335.26 13684.9 2507.9 13399.8C2685.19 13105.6 2884.69 12827.9 3106.41 12566.4C3395.41 12228.2 3579.26 11843.1 3657.96 11410.6C3672.34 11330.2 3686.1 11249.2 3699.21 11167.5L3753.16 10819.1L3740.47 10362.7C3763.32 10374.2 3788.5 10380.9 3816 10383C3918.38 10168.5 3998.37 9946.17 4055.91 9716C4050.4 9689.33 4041.1 9664.78 4027.98 9642.37Z" fill="url(#paint0_linear)"/>
<path fill-rule="evenodd" clip-rule="evenodd" d="M6175.77 16441.8C6218.51 16585.3 6299.96 16662.7 6420.13 16674.1C6489.53 16711.7 6528.86 16760.4 6538.18 16820.1C6545.8 16871.3 6530.78 16922 6493.12 16972.4C6455.04 17021.6 6407.65 17057.1 6350.95 17079.1C6287.48 17101 6228.65 17100.3 6174.5 17076.5C6149.97 17051.5 6114.41 17036.8 6067.88 17032.1C6055.6 17030.4 6013.93 17029.6 5942.84 17029.6C5836.63 17029.6 5771.26 16994 5746.72 16922.9C5744.6 16871.8 5740.79 16819.5 5735.3 16766.2C5719.21 16595.7 5685.58 16416.1 5634.38 16227.3C5599.26 16096.6 5556.11 15961.6 5504.91 15822.4C5468.93 15724.6 5371.2 15493.3 5211.68 15128.7C5166.4 15023.3 5115.84 14907.5 5059.99 14781.5C4997.36 14809 4897.29 14843 4759.78 14883.7C4624.37 14923.9 4524.94 14958.2 4461.47 14986.5C4449.2 15129.5 4458.72 15293.8 4490.04 15479.6C4498.5 15532.6 4531.09 15694.2 4587.78 15964.5C4624.59 16083.9 4644.05 16178.2 4646.17 16247.6C4647.86 16298.8 4656.32 16349.4 4671.56 16399.3C4671.7 16399.8 4671.8 16400.3 4671.87 16400.8C4676.52 16417.7 4682.12 16434.3 4688.69 16450.7C4713.23 16517.1 4738.42 16575.9 4764.22 16627.2C4799.33 16697 4854.35 16748.6 4929.24 16782C4990.59 16784.9 5039.26 16816.3 5075.22 16876C5108.66 16928.9 5123.88 16990.5 5120.92 17060.7C5117.95 17130.8 5096.58 17183.5 5056.81 17218.7C5012.39 17257.2 4954.63 17260.7 4883.54 17229.5C4739.68 17258.2 4630.3 17273 4555.41 17273.9C4422.54 17273.9 4332.42 17223.5 4285.03 17122.8C4261.34 16881.3 4208.23 16598 4125.72 16273C4124.04 16267 4122.13 16261.3 4120.01 16255.9C4114.51 16231.4 4108.37 16207.6 4101.61 16184.8C4026.71 15909.7 3967.05 15690.4 3922.62 15526.6C3922.62 15522.8 3923.04 15519 3923.89 15515.2C3923.89 15514.3 3923.46 15513.9 3922.62 15513.9C3921.78 15513 3920.72 15512.6 3919.45 15512.6L3795.68 15024.6C3830.81 14973.3 3872.06 14912.6 3919.45 14842.4C4001.12 14720.5 4072.19 14617.7 4132.71 14533.9C4228.76 14402.3 4298.57 14318.5 4342.15 14282.6C4354.43 14274.1 4432.91 14201.1 4577.62 14063.6C4721.06 13926 4847.58 13823.3 4957.17 13755.2C5306.25 13535.1 5580.22 13582.5 5779.09 13897.4L5753.7 13984.3C5742.28 14012.6 5732.33 14042.4 5723.87 14073.8C5710.76 14117.3 5700.81 14153.8 5694.04 14183C5638.19 14410.6 5644.74 14667.9 5713.72 14954.7C5743.35 15078.3 5796.01 15251.4 5871.76 15473.9C5952.15 15710 6005.68 15879.7 6032.33 15982.9C6083.53 16140.3 6130.93 16292 6174.5 16438C6174.5 16438.8 6174.93 16440.2 6175.77 16441.8" fill="url(#paint1_linear)"/>
<path fill-rule="evenodd" clip-rule="evenodd" d="M3313.96 16621.4C3434.55 16676.4 3564.02 16706.7 3702.39 16712.2C3811.97 16694.4 3921.79 16721.5 4031.79 16793.4C4141.81 16864.5 4184.53 16924.9 4160 16974.9C4134.18 17024.5 4107.52 17057.6 4080.03 17074.6C3777.91 17255.7 3567.2 17283.5 3447.88 17158.4C3328.12 17032.7 3189.14 16973 3030.88 16979.4C2872.63 16985.2 2617.7 16945.5 2266.08 16860.1C2027.44 16800.4 1867.71 16678.2 1786.89 16493.2C1759.38 16430.6 1741.4 16360.6 1732.94 16283.1C1686.39 15871.3 1683.02 15572.3 1722.79 15385.7C1736.33 15324.4 1760.65 15267 1795.78 15213.7C1967.99 14975.8 2119.47 14825.2 2250.22 14761.8C2381.38 14698.3 2516.57 14657.1 2655.78 14638C2794.98 14619 2997.25 14730.9 3262.55 14973.8C3529.12 15216.2 3560.43 15526.6 3356.48 15904.9C3152.96 16283.1 3104.71 16504 3211.77 16567.5C3244.77 16587.4 3278.83 16605.3 3313.96 16621.4Z" fill="#333333"/>
<path fill-rule="evenodd" clip-rule="evenodd" d="M1635.2 16443.7C1341.97 16663.3 1016.37 16770.3 658.409 16764.9C607.214 16761.1 558.762 16755.7 513.064 16749C329.423 16717.7 201.013 16653.8 127.807 16557.3C38.9508 16435.9 -3.57339 16320.8 0.234748 16212.1C4.89337 16102.9 59.2609 16050.6 163.35 16055.3C650.792 16147.1 1065.88 16047.3 1408.61 15755.7C1467.42 15706.2 1524.34 15654.9 1579.34 15602.1C1550.15 15895.7 1566.85 16169 1629.48 16422.1C1631.17 16429.8 1633.08 16437 1635.2 16443.7Z" fill="url(#paint2_linear)"/>
<path fill-rule="evenodd" clip-rule="evenodd" d="M11757.2 10314.5L10088 10609C10055.9 10614.5 10014.6 10612.6 9964.24 10603.3L8073.49 10235.2C8023.14 10225.4 8014.05 10217.8 8046.2 10212.3L9715.44 9917.84C9747.68 9912.33 9788.93 9914.25 9839.2 9923.55L11729.9 10291.7C11780.3 10301.4 11789.5 10309 11757.2 10314.5Z" fill="white"/>
<path fill-rule="evenodd" clip-rule="evenodd" d="M5315.76 10383.1C5279.79 10488.8 5256.95 10668.9 5247.22 10923.2C5237.91 11176.2 5132.76 11357.7 4931.77 11467.8C4732.06 11576.6 4618.87 11497.4 4592.22 11230.4C4532.55 10602.9 4797 10235.6 5385.58 10128.6C5374.99 10192 5351.72 10276.8 5315.76 10383.1Z" fill="url(#paint3_linear)"/>
<path fill-rule="evenodd" clip-rule="evenodd" d="M8723.41 17079.1C8718.84 17102.7 8710.34 17126 8698.03 17148.9C8525.42 17155.2 8384.1 17158.4 8274.08 17158.4C8197.5 17157.5 8135.92 17155.2 8089.38 17151.4L8100.81 16932.4C8187.13 16947.7 8289.95 16957.6 8409.27 16962.3C8539.18 16967.4 8644.97 16972.6 8726.59 16978.1C8732.17 17013.2 8731.03 17046.9 8723.41 17079.1ZM7627.33 16878.5C7614.2 16847.1 7604.68 16813.1 7598.77 16776.3C7539.11 16675.7 7502.71 16608.8 7489.6 16575.8C7501.03 16353.1 7510.13 16186.4 7516.89 16075.6C7529.17 15880.1 7545.66 15713.2 7566.4 15574.8C7617.59 15620.5 7658.43 15656.5 7688.89 15682.7L7627.33 16878.5ZM9091.56 15324.8C9109.84 15337.1 9127.36 15351.2 9144.24 15367.3L9164.55 15555.2C9115.93 15556.1 9033.42 15554 8917.02 15549.5C8830.7 15546.5 8781.07 15549.7 8767.87 15559C8706.18 15603.8 8663.78 15654.6 8640.93 15711.3C8626.2 15751 8618.72 15802.7 8618.72 15866.2C8618.72 15893.6 8644.74 15938.3 8696.78 16000.1C8758.22 16072.8 8835.4 16141 8928.44 16204.5C9031.77 16276.8 9141.07 16334.1 9256.58 16376.5L9273.72 16533.2L9078.87 16497.7C9021.36 16471 8964.62 16442 8908.77 16410.7C8877.54 16406.9 8799.22 16394.6 8673.93 16373.9C8578.35 16357.8 8499.62 16347.9 8437.85 16344.1L8350.9 16061C8298.86 16070.7 8237.29 16075.6 8166.21 16075.6H8146.53L8159.23 15813.5C8171.5 15809.7 8182.49 15805.5 8192.23 15800.8L8260.14 15739.9C8271.57 15661.9 8277.28 15553.4 8277.28 15414.3C8276.43 15258.9 8279.18 15150 8285.53 15087.4C8417.54 15170.8 8596.37 15252.2 8821.82 15331.8L8925.27 15329.2L9091.56 15324.8ZM10345.7 16479.3C10358 16516.1 10360.3 16553.9 10352.7 16592.9C10351.9 16598.3 10350.7 16604.1 10348.9 16610C10223.7 16638.3 10098.1 16654.8 9971.87 16659.5L9763.06 16621.4L9745.92 16474.8C9773.47 16475.7 9801.4 16476.1 9829.7 16476.1C10030.8 16476.1 10202.8 16477.1 10345.7 16479.3Z" fill="#0D8E90"/>
<defs>
<linearGradient id="paint0_linear" x1="4062.26" y1="12904.4" x2="1650.56" y2="14291.5" gradientUnits="userSpaceOnUse">
<stop stop-color="#474747"/>
<stop offset="1"/>
</linearGradient>
<linearGradient id="paint1_linear" x1="5187.81" y1="16091.3" x2="4737.68" y2="14411.1" gradientUnits="userSpaceOnUse">
<stop stop-color="#303030"/>
<stop offset="1"/>
</linearGradient>
<linearGradient id="paint2_linear" x1="1429.43" y1="16183.6" x2="211.142" y2="16183.6" gradientUnits="userSpaceOnUse">
<stop stop-color="#303030"/>
<stop offset="1"/>
</linearGradient>
<linearGradient id="paint3_linear" x1="5124.09" y1="11204.5" x2="4912.14" y2="10413.3" gradientUnits="userSpaceOnUse">
<stop stop-color="#303030"/>
<stop offset="1"/>
</linearGradient>
</defs>
</svg>
