<svg width="400" height="400" viewBox="0 0 21009 19341" fill="none" xmlns="http://www.w3.org/2000/svg">
<path fill-rule="evenodd" clip-rule="evenodd" d="M15838.3 13310L13516.4 13719.3C13328.7 13752.6 13327.5 13785.8 13513.1 13819.1C13327.5 13852.3 13328.7 13885.6 13516.4 13918.9L15097.3 14197.3C15286.6 14230.7 15475.8 14230.7 15664.8 14197.3L17986.8 13788C18175 13754.7 18176.1 13721.3 17990.3 13688.2C18176.1 13654.9 18175 13621.7 17986.8 13588.4L16405.9 13310C16217 13276.4 16027.7 13276.4 15838.3 13310ZM15757.7 17508.4V18640.9L19605 17962V17752.3L21008.4 17995.1L15826.3 18891.9L11824.8 18199.3L12528.7 18075.8L15756.4 18644.7V17508.8L15757.7 17508.4ZM15496.1 14453L11912.2 13820.9L15758.2 13142.7L15971.6 13180.2L19604.3 13820.9L15758.2 14499.1L15496.1 14453" fill="#F8F5FC"/>
<path fill-rule="evenodd" clip-rule="evenodd" d="M4100.1 16437.8L3087.88 16612.8L3255.04 16262.3L4290.46 16080.2C4229.53 16203.7 4166.07 16323 4100.1 16437.8V16437.8ZM7144.08 15911.5L5910.96 16124.7C6002.78 16041.3 6094.62 15965.1 6186.49 15896.2C6228.35 15855.9 6266.79 15812.2 6301.85 15765.3L7144.08 15911.5ZM10430.4 3305.33C10281.4 3610.32 10104.3 3863.56 9899.66 4064.9C9695.01 4265.71 9509.06 4434.93 9341.7 4572.7C9173.8 4706.61 9002.46 4833.36 8827.4 4952.81C8738.48 4632.42 8694.01 4312.29 8694.01 3992.43C8768.21 3988.58 8838.81 3973.58 8905.57 3947.3L9034.05 4254.29C9644.7 4127.94 10041.1 3759.5 10223.9 3148.98C10257.3 3186.27 10298.2 3221.58 10346.5 3255.02C10372.4 3269.89 10400.3 3286.61 10430.4 3305.33V3305.33ZM2515.13 16392.3L2434.41 16560.5C2397.12 16638.8 2393.51 16718.9 2423.6 16800.8C2453.27 16878.7 2507.07 16934.4 2585.05 16968C2659.61 17005.2 2737.8 17009 2819.59 16979.4C2882.13 16958.8 2930.45 16921.3 2964.51 16867.1L3687.2 16992.1C3603.64 17058.6 3541.55 17127 3500.96 17197.4C3479.75 17212.8 3458.77 17230.7 3438.04 17251L1306.25 16876.4C790.56 16785.7 643.092 16721.1 863.876 16682.6L2515.13 16392.3ZM1971.05 18760.4C1967.22 18812.5 1978.45 18864.6 2004.73 18916.7C2031.99 18971.3 2066.86 19017.7 2109.29 19055.9C1789.44 19015.8 1489.74 18964.9 1210.21 18903.4C403.409 18725.8 0 18511.3 0 18260.1C0 18008.8 403.409 17794.6 1210.21 17617.5C1823.48 17482.5 2533.88 17398.8 3341.47 17366.5C3340.66 17367.7 3339.81 17369 3338.92 17370.3C3305.45 17414.8 3268.15 17483.7 3227.05 17576.9C3141.44 17662.4 2929.37 17822.6 2590.81 18057.4C2315.37 18243.4 2125.53 18423.9 2021.29 18598.9C1987.81 18651 1971.08 18704.8 1971.08 18760.4H1971.05ZM11912.6 16047.1V13822.2L15496.2 14454L15756.8 14499.7V16160.2L15758.1 16160.6V16468.5L15756.8 16468.2V17183.6L15758.1 17183.3V17508.4L15756.8 17508.7V18644.6L12529.2 18075.7L11825.3 18199.3L10663 18403.7C10442.2 18442.2 10073.9 18416.4 9557.72 18326.1L8198.51 18087.4C8244.03 18142.8 8266.73 18200.4 8266.73 18260C8266.73 18511.2 7863.38 18725.7 7056.57 18903.3C6250.21 19080.9 5275.83 19169.6 4133.36 19169.6C3945.69 19169.6 3762.53 19167.2 3583.87 19162.2C3658.44 19128 3733.12 19088.9 3807.92 19045C3874.88 19008.1 3954.95 18952.3 4048.19 18877.8C4178.27 18769.8 4258.14 18706.5 4287.82 18687.8C4477.65 18550.1 4652.66 18505.4 4812.83 18553.7C5062.43 18520.1 5250.35 18401.1 5376.62 18196.5C5510.95 17980.7 5479.37 17779.6 5281.91 17593.3C5263.26 17541.2 5218.57 17468.7 5147.79 17375.9C5113.88 17320.5 5085.39 17271.6 5062.31 17229.7L9525.49 18001.6L9530.93 18023.6C9549.65 18105.3 9596.23 18168.5 9670.69 18213C9741.17 18257.9 9817.48 18269.1 9899.5 18246.7C9981.26 18228 10044.4 18183.3 10088.9 18112.6C10094.3 18103.7 10099.3 18094.8 10103.6 18085.9C10292.6 18103.4 10440.1 18103 10546 18084.6L11912.5 17848.2V16047.1" fill="#E6E8FF"/>
<path fill-rule="evenodd" clip-rule="evenodd" d="M2964.73 16867C2973.24 16853.4 2980.85 16838.7 2987.62 16822.9L3088.05 16612.8L4100.3 16437.7C4002.89 16607.2 3900.04 16767.1 3791.69 16917.6C3753.9 16942.2 3719.15 16966.9 3687.45 16992L2964.73 16867ZM9526.06 18001.6L5062.68 17229.7C5045.35 17198.4 5031.04 17170.8 5019.79 17147.1C5243.1 16860.2 5423.6 16636.9 5561.35 16477.1C5677.97 16348 5794.59 16230.4 5911.26 16124.6L7144.42 15911.4L8280.53 16108.5L8615.52 16169.5L8967.65 16231.1L9084.62 16253.4L9240.98 16862.3L9526.06 18001.6ZM11913.2 16047V17848.1L10546.6 18084.6C10440.8 18103 10293.2 18103.4 10104.2 18085.8C10136.7 18019.6 10143.1 17950.3 10123.2 17878L9854.98 16794.9L9749.51 16365.2L9838.88 16378.5L9928.15 16393.2H9933.15L11913.2 16047ZM15758.8 16160.5V14499.7L19606.2 13820.8V17962L15758.8 18640.9V17183.4L15757.5 17183.6V16468.3L15758.8 16468.5V16160.6" fill="#CED2F7"/>
<path fill-rule="evenodd" clip-rule="evenodd" d="M7609.31 10425.5V10421.7L7755.52 10393.7L8075.25 10453.4L7908.08 10473.8L7609.31 10425.5ZM7637.29 10300.3L7831.8 10327.6L7664.62 10362.5L7494.26 10341.6L7637.29 10300.3ZM7567.37 10487.8L7560.37 10484.6L7720.56 10453.4L7873.75 10477.6V10480.8H7883.92L7741.53 10515.8L7567.37 10487.8ZM8287.56 10341.6V10352.4L8325.71 10345.4L8485.89 10373.4L8489.07 10407.7L8419.78 10421.7L8238.62 10393.7L8235.44 10380.3L8207.47 10386.7L7939.85 10338.4L8082.24 10320.6L8106.4 10307.3L8287.56 10341.6ZM8276.76 10407.7L8127.39 10439.5H8103.23L7699.58 10376.5L7883.92 10338.4L8179.51 10397.5L8276.76 10407.7ZM7501.26 10473.8L7358.87 10449.6L7533.03 10418.5L7675.42 10453.4L7501.26 10473.8ZM7428.15 10331.4L7292.75 10296.4L7456.11 10272.3L7598.51 10296.4L7456.11 10327.6L7428.15 10331.4ZM7300.77 10367.3L7281.7 10329.8L7341.7 10317.4H7351.87L7494.26 10352.4L7505.06 10359.4L7362.04 10373.4L7300.77 10367.3ZM7337.25 10439.8L7310.55 10386.7H7313.74L7466.93 10411.5L7337.25 10439.8ZM7234.91 10237.3H7240.63L7393.83 10261.5L7260.97 10288.8L7234.91 10237.3ZM7384.68 10569.5C7387.72 10561.6 7387.35 10550.9 7383.41 10537.4L7491.09 10553.9L7428.15 10571.7H7400.82L7384.68 10569.5ZM7379.2 10525C7376.8 10518.4 7373.61 10511.3 7369.67 10503.7L7358.87 10482.4L7428.15 10473.8H7438.95L7685.59 10526.6L7522.23 10550.7L7379.2 10525ZM7354.41 10473.5L7345.51 10456L7358.87 10456.6L7379.84 10470.6L7354.41 10473.5ZM7193.33 10155.3L7196.77 10156C7216.86 10173.1 7243.42 10177.1 7276.23 10168L7279.41 10168.7C7290.22 10173.2 7302.29 10175.1 7315.64 10174.4L7407.82 10188.4L7247.63 10220.2H7229.83L7226.01 10219.5L7193.33 10155.3ZM7836.88 10294.2L7831.8 10293.3L7834.72 10292C7835.36 10292.8 7836.13 10293.6 7836.88 10294.2V10294.2ZM7827.73 10280.6L7710.38 10300.3L7536.22 10279.3L7703.4 10241.1H7730.73L7826.71 10261.5C7825.44 10268.7 7825.69 10275 7827.73 10280.6V10280.6ZM7546.38 10362.5L7571.18 10355.6L7713.57 10386.7V10390.5L7567.37 10411.5H7546.38L7403.99 10386.7L7546.38 10362.5ZM7686.87 10197.6C7698.31 10187.3 7708.73 10175.6 7718.01 10162.3C7721.45 10158.5 7726.91 10154.9 7734.54 10151.5C7745.6 10140.1 7752.97 10134.4 7756.79 10134.4C7764.04 10127.1 7773.32 10121.6 7784.76 10117.8L8019.32 9974.8L8089.87 9986.87C8048.94 10019.1 8025.16 10038.6 8018.68 10045.4C7963.12 10091.4 7915.33 10137.6 7875.41 10183.9L7779.68 10202.4H7713.57L7686.87 10197.6ZM7489.17 10257.7C7496.8 10253.8 7504.3 10252 7511.43 10252C7559.47 10253.9 7601.04 10246.8 7636.4 10230.6L7668.43 10237.3L7505.06 10261.5H7466.93L7275.59 10223.4L7421.16 10196.6C7421.79 10228.6 7444.56 10248.9 7489.17 10257.7V10257.7ZM7431.07 10152.5L7343.36 10136.9C7367.38 10122 7393.83 10102.5 7422.42 10078.4C7470.74 10037.7 7498.7 10015.5 7506.33 10011.7C7517.4 10007.8 7500.62 10039.4 7456.11 10106.4C7445.19 10123.1 7436.8 10138.5 7431.07 10152.5ZM7177.06 10089.9H7171.98C7171.98 10093.3 7170.58 10098 7167.53 10104.2L7097.36 9965.25C7135.87 9973.52 7175.67 9970.34 7216.47 9955.72C7212.67 9982 7199.56 10026.7 7177.06 10089.9V10089.9ZM7872.49 10299.6C7895.23 10298.7 7927.01 10293.4 7967.58 10283.7L8075.25 10303.4L8072.08 10310.4L7998.97 10317.4H7985L7872.49 10299.6ZM4958.7 8746C4844.7 8674.8 4728.37 8644.3 4609.71 8654.46C4491.05 8665.06 4405.03 8713.37 4351.64 8799.39C4297.82 8885.43 4292.3 8984.37 4335.11 9096.25C4377.49 9207.71 4455.88 9299.25 4570.31 9370.85C4683.88 9442.48 4800 9473 4918.65 9462.39C5037.3 9452.22 5123.54 9403.91 5177.35 9317.47C5230.76 9231.44 5236.26 9132.7 5193.88 9021.24C5151.09 8909.36 5072.68 8817.62 4958.7 8746V8746ZM17877.2 13767.7C17990.8 13747.6 17992 13727.4 17880.7 13707.3L15667 14097.6C15478 14131.1 15288.8 14131.1 15099.3 14097.6L13627 13838.3C13516.5 13858.4 13517.8 13878.6 13631 13898.7L15211.9 14177.1C15326.9 14197.4 15441.2 14197.4 15555.2 14177.1L17877.2 13767.7ZM15840.6 13309.4C16030.1 13275.8 16219.2 13275.8 16408.3 13309.4L17989.1 13587.8C18177.4 13621.1 18178.5 13654.3 17992.6 13687.6C18178.5 13720.8 18177.4 13754.1 17989.1 13787.4L15667 14196.8C15478 14230.2 15288.8 14230.2 15099.3 14196.8L13518.5 13918.4C13330.7 13885 13329.7 13851.7 13515 13818.6C13329.7 13785.2 13330.7 13752.1 13518.5 13718.8L15840.6 13309.4ZM16296.4 13329.1C16181.9 13308.8 16067.4 13308.8 15952.4 13329.1L13630.4 13738.5C13517.8 13758.6 13516.8 13778.7 13627.2 13798.9C13628.5 13799 13629.8 13799.2 13631 13799.5L15211.9 14077.9C15326.9 14098.3 15441.2 14098.3 15555.2 14077.9L17877.2 13668.5C17878.5 13668.3 17879.7 13668 17880.7 13667.9C17992 13647.7 17990.8 13627.6 17877.2 13607.5L16296.4 13329.1ZM3773.26 3570.05C3829.28 3570.64 3886.06 3570.93 3943.62 3570.93C3981.66 3570.93 4019.38 3570.79 4056.76 3570.64V7555.96L3773.26 7500.66V3570.05ZM4595.17 3557.21V4287.39C4595.07 4292.41 4594.55 4297.28 4593.58 4302C4617.12 4311.74 4638.63 4326.35 4658.1 4345.83C4697.51 4385.23 4717.21 4432.46 4717.21 4487.5C4717.21 4542.69 4697.51 4589.62 4658.1 4628.73C4619.11 4668.13 4572.06 4687.75 4516.98 4687.75C4461.9 4687.75 4414.63 4668.13 4375.23 4628.73C4336.24 4589.62 4316.75 4542.69 4316.75 4487.5C4316.75 4432.46 4336.24 4385.23 4375.23 4345.83C4395.05 4326.2 4416.88 4311.45 4440.7 4301.56C4439.85 4297.13 4439.43 4292.26 4439.43 4287.39V3563.26C4492.09 3561.64 4544.01 3559.57 4595.17 3557.21V3557.21ZM3889.58 10062.3C3849.91 10054.7 3816.22 10036.5 3788.51 10007.6C3778.47 9997.32 3769.25 9985.68 3760.87 9972.68C3755.55 9964.47 3750.57 9955.78 3745.92 9946.63L3150.31 8768.09L2494.94 7471.97C2461.89 7406.3 2476.93 7379.39 2540.07 7391.25L2660.84 7414.78L5841.73 8033.91C5904.88 8046.2 5952.97 8085.19 5986.03 8150.86L7203.66 10559.4L7236.99 10625.5C7270.03 10690.8 7255.03 10717.2 7191.84 10705L3890.24 10062.3H3889.61" fill="#367DD1"/>
<path fill-rule="evenodd" clip-rule="evenodd" d="M4913.81 13512.7L2646.94 13121.2L2323.41 12088.3C2349.25 12092.1 2377.01 12095.7 2406.67 12099.1L5396.65 12617.1C5388.01 12629 5379.73 12640.6 5371.86 12652.1C5226.51 12864.4 5122.29 13030 5059.15 13149.1C4994.03 13273.2 4945.62 13394.4 4913.9 13512.7H4913.81ZM4871.86 13756.8C4859.86 13923.1 4883.07 14083.5 4941.47 14238C4825.5 14692.6 4698.27 15101 4559.78 15463.1L3707.73 15315.3L3629.54 15304.5L3037.78 13439.6L4871.86 13756.8ZM9240.73 14260.2L6902.33 13856.2C6966.21 13815.9 7023.59 13781.2 7074.59 13752.3C7220.34 13659.8 7544.21 13434.5 8046.35 13076.3L9531.2 13333.5L9529.03 13340.7L9240.73 14260.2ZM7144.21 15911.6L6301.97 15765.4C6441.8 15578.5 6528.14 15339.4 6560.98 15047.8C6575.83 14902.5 6573.9 14582.3 6555.26 14087.4C6570.76 14076.7 6586.01 14066.1 6601.02 14055.8L8816.76 14438.9L8280.33 16108.6L7471.79 15968.4L7144.21 15911.6ZM13483.2 10356.2C13480.8 10339.6 13478.4 10322.7 13475.9 10305.7V9793.05H13643.7C13669.2 9793.05 13681.8 9805.77 13681.8 9831.19V10322.5C13681.8 10345 13669.2 10356.2 13643.7 10356.2H13483.2ZM14908.6 10465.6C14797.1 10301.7 14642.9 10224.3 14446.5 10233.6L13904.3 10328.9V10322.5V9831.19C13904.3 9657.46 13817.4 9570.59 13643.7 9570.59H13475.9V9432.67V9419.96C13466.7 9392.91 13417.8 9369.59 13328.8 9350.04C13270.4 8981.84 13217.8 8664.14 13170.7 8396.91L13446 8444.26C14271.3 8832.54 14748 9403.75 14876.2 10157.9C14893 10257.3 14903.8 10359.8 14908.6 10465.5V10465.6ZM5546.9 152.884C5536.26 150.079 5525.36 147.272 5514.15 144.34C5440.43 127.381 5353.13 110.424 5252.28 93.4648C4892.11 36.7226 4456.07 8.28676 3944.16 8.28676H3932.08C3428.25 8.28676 2998.15 36.7226 2641.81 93.4648C2540.54 110.424 2455.15 127.381 2385.66 144.34C2326.93 159.003 2277.23 174.305 2236.61 190.116C2329.63 151.481 2474.44 116.544 2671.05 85.1766C2772.75 67.4527 2881.86 53.171 2998.39 42.5876C3279.35 14.2803 3594.18 -0.00142994 3942.94 -0.00142994C4437.44 -0.00142994 4863.94 28.4344 5222.37 85.1766C5353.53 106.088 5461.69 128.657 5546.86 152.884H5546.9ZM3772.6 3571.32C3210.56 3565.45 2724.73 3530.13 2315.16 3465.48C1893.53 3398.03 1668.09 3314.64 1638.86 3215.05V3199.11C1638.86 3188.15 1641.41 3177.31 1646.48 3166.72L2106.04 327.955C2144.14 402.038 2322.74 464.648 2641.86 515.525C3002.05 572.267 3436.17 600.7 3944.25 600.7C4456.15 600.7 4892.18 572.267 5252.37 515.525C5572.63 462.735 5750.91 400.127 5787.24 327.701L6240.12 3161.62C6244.77 3168.76 6249.66 3177.69 6254.74 3188.27V3199.11V3209.31C6235.25 3308.9 6009.82 3394.2 5578.44 3465.48C5289.45 3511.13 4961.47 3542.12 4594.5 3558.56C4543.35 3560.86 4491.44 3562.9 4438.77 3564.56C4315.39 3568.51 4187.83 3571.06 4056.14 3571.95C4018.77 3572.08 3981.04 3572.21 3943 3572.21C3885.44 3572.21 3828.67 3571.95 3772.65 3571.32" fill="#FFBD59"/>
<path fill-rule="evenodd" clip-rule="evenodd" d="M7697.03 6986.79C7699.45 7060.39 7702.49 7141.64 7705.93 7230.55C7707.96 7309.45 7709.74 7383.18 7711.39 7451.76L7441.89 7405.04L6410.53 7226.75H6405.45C6218.99 7208.1 6044 7208.1 5880.42 7226.75L7282 7014.44C7345.81 6982.73 7484.13 6973.51 7697.07 6986.79H7697.03ZM16410.9 10236.5L14909 10465.4C14904.2 10359.6 14893.4 10257.1 14876.6 10157.7C14748.3 9403.53 14271.7 8832.31 13446.3 8443.96L13171.2 8396.61L12258.4 8239.3C12259.2 8060.02 12259.6 7898.35 12259.6 7754.3L12873 7860.14C12857.9 7903.63 12835.8 7944.73 12806.6 7983.45C12719.4 8099.12 12706.7 8174.46 12768.1 8209.42C12829.5 8244.31 12905 8259.57 12994.1 8255.18C13083.4 8250.82 13209.2 8162.25 13371.3 7989.48C13301.5 8134.09 13254.4 8227 13230.6 8268.21C13206.6 8309.33 13253.2 8345.23 13370.6 8375.95C13488.1 8406.79 13570.1 8394.07 13616.6 8337.81C13663.4 8281.52 13698.7 8222.52 13722.9 8160.79C13746.9 8099.11 13807.3 8065.32 13904 8059.4C13934.4 8057.57 13964.6 8055.55 13994.9 8053.37L14009.4 8055.92C13998.1 8062.26 13986.9 8069.58 13975.8 8077.83C13971.3 8080.82 13967.3 8084.84 13964.3 8089.92C13948.2 8113.23 13939.6 8139.5 13938.3 8168.73C13936.3 8213.24 13944.6 8254.97 13963.8 8293.96C13982.1 8331.68 14009.7 8363.02 14047 8388.03C14116.2 8419.91 14220.1 8432.94 14358.5 8427.12C14496.9 8421.28 14610.9 8415.24 14700.9 8409C14790.6 8402.73 14895.3 8393.09 15015.1 8380.08C15033.7 8378.1 15051.3 8374.49 15068.2 8369.28C15140.3 8439.94 15205 8516.33 15262.3 8598.42C15322 8683.61 15370.4 8775.13 15407.2 8873.01C15459 9009 15507.4 9156.68 15552.5 9316.05C15597.5 9475.5 15619 9610.37 15617.1 9720.63C15615.2 9830.87 15564.7 9910.32 15466.1 9959C15367.3 10007.6 15292.9 9989.95 15242.6 9905.94C15218.1 9854.64 15183.8 9811.21 15139.6 9775.63C15114.2 9755.28 15084.7 9744.05 15050.6 9741.93C14935.9 9733.45 14878.3 9784.94 14878.3 9896.41C14878.7 10032.8 14937.5 10137.3 15054.4 10209.8C15157.1 10272.5 15268.5 10297.5 15388.9 10284.8C15454.1 10281.8 15518.1 10269.9 15580.8 10249.2C15759.1 10192 15878.2 10074.6 15938 9897.02C15990.1 9741.56 16001.3 9553.93 15971.5 9334.17C15951.8 9189.59 15897.4 9013.2 15808.1 8805.01C16105.7 9110.25 16293.9 9473.4 16372.1 9894.48C16387.2 9974.81 16398.2 10057.2 16405.2 10141.7C16405.2 10171.4 16407.1 10203 16410.9 10236.5" fill="url(#paint0_linear)"/>
<path fill-rule="evenodd" clip-rule="evenodd" d="M4914.21 13512.4C4892.09 13595.2 4878.11 13676.6 4872.26 13756.5L3038.05 13439.3L3629.83 15304.3L3406.72 15264.9L3328.54 15248.4L2647.13 13120.9L4914.21 13512.4ZM7555.56 9447.48C7451.83 9514.43 7373.77 9562.97 7321.65 9593.04C7261.9 9638.14 7209.26 9678.29 7163.75 9713.51C7189.18 9662.1 7213.33 9617.07 7236.47 9578.44L7287.96 9499.6C7207.99 9306.6 7095.23 9160.6 6949.8 9061.65C7104.26 9159.61 7218.67 9308.57 7293.04 9508.52L7376.95 9464.02L7555.94 9447.16L7555.56 9447.48ZM8191.59 9908.33C8151.42 9920.9 8112.39 9935.09 8074.63 9950.91L8065.73 9949.32C8109.08 9927.64 8154.47 9911.22 8202.01 9900.06C8198.45 9902.81 8194.89 9905.57 8191.59 9908.33ZM6902.76 13855.9L9241.29 14260L8615.82 16169.4L8280.83 16108.4L8817.32 14438.6L6601.46 14055.5C6714.21 13978.2 6814.65 13911.6 6902.73 13855.9H6902.76ZM3760.52 9973.16C3768.91 9986.15 3778.13 9997.8 3788.17 10008.1C3694.21 10043.5 3598.65 10089 3501.5 10144.8C3386.23 10211.7 3304.45 10260.1 3256.14 10289.7C3084.93 10405 2982.59 10563.2 2949.12 10764.5C2949.12 10771.7 2947.21 10783 2943.4 10798.2C2928.56 11013.9 2990.02 11188.7 3127.74 11322.6C3243 11419.7 3395.56 11499.8 3585.4 11562.9C3665.53 11581.2 3744.98 11600.6 3823.77 11620.8L2256.27 11892.2L1759.2 10312C1848.61 10293.3 1939.94 10276.6 2033.16 10261.8C2515.08 10180 3090.86 10083.8 3760.58 9973.19L3760.52 9973.16ZM13484 10355.8H13476.6V10305.3C13479.1 10322.3 13481.5 10339.2 13484 10355.8ZM12153.8 9406.16V10637.4L11402.5 10769.9C11417.3 10632.3 11409.8 10498.5 11380.2 10368.5C11357.7 10260.5 11335.4 10152.4 11312.9 10044.4C11283.2 9910.45 11253.5 9778.22 11223.9 9647.71C11210.4 9580.29 11196.9 9512.71 11183.6 9444.95C11543.8 9324.29 11788.4 9213.49 11917.3 9112.5C12140.2 8941.29 12253.6 8723.28 12257.4 8458.42C12257.9 8382.64 12258.3 8309.54 12258.7 8239.12L13171.5 8396.44C13218.5 8663.68 13271.1 8981.39 13329.5 9349.61C13306.9 9344.72 13281.8 9340.07 13254.1 9335.61C13116.8 9310.18 12957 9295.99 12774.8 9293.02C12593 9293.02 12442 9304.25 12321.6 9326.71C12198.3 9346.63 12142.4 9373.11 12153.8 9406.16ZM7711.68 7451.55C7715.24 7625.37 7717.02 7765.63 7717.02 7872.35C7615.19 7983.92 7479.92 8101.72 7311.22 8225.77C7142.4 8349.82 7017.94 8450.26 6937.72 8527.07C6762.6 8639.61 6623.18 8738.04 6519.49 8822.32L6127.93 8047.79C6094.88 7982.53 6046.78 7943.76 5983.64 7931.47L4783.87 7697.87C5057.43 7469.06 5423.03 7311.95 5880.67 7226.54C6044.25 7207.9 6219.25 7207.9 6405.71 7226.54H6410.8L7442.16 7404.83L7711.68 7451.55" fill="#FD9C3C"/>
<path fill-rule="evenodd" clip-rule="evenodd" d="M9838.79 16378.6L9749.42 16365.2L9084.54 16253.4L8967.58 16231.1L9838.79 16378.6ZM9529.23 13340.4L9531.39 13333.2L9533.68 13326.8L9529.23 13340.4Z" fill="#FFC2C2"/>
<path fill-rule="evenodd" clip-rule="evenodd" d="M9084.92 16253.3L9749.8 16365.2L9855.31 16794.9C9788.32 16869.5 9704.67 16906.8 9604.24 16906.8C9466.56 16906.8 9345.53 16891.9 9241.28 16862.3L9084.92 16253.3ZM3401 15957.1C3181.49 15935.1 2991.64 15860.6 2831.46 15734L3076.82 15209L3272.6 15242.7L3406.72 15264.9L3629.83 15304.3L3708.01 15315.1L3401 15957.1Z" fill="#726A4E"/>
<path fill-rule="evenodd" clip-rule="evenodd" d="M3328.54 15248.4L3406.72 15264.9L3272.6 15242.7L3328.54 15248.4ZM10104.5 18085.9C10100.2 18094.8 10095.2 18103.7 10089.9 18112.6C10045.4 18183.3 9982.19 18228.1 9900.45 18246.7C9818.32 18269.1 9742.05 18257.9 9671.62 18213C9597.12 18168.6 9550.46 18105.4 9531.78 18023.6L9526.44 18001.6L9241.29 16862.3C9345.53 16891.9 9466.56 16906.8 9604.24 16906.8C9704.67 16906.8 9788.32 16869.5 9855.32 16794.9L10123.6 17878.1C10143.4 17950.4 10137 18019.7 10104.5 18085.9ZM3088.26 16612.7L2987.83 16822.9C2981.07 16838.7 2973.44 16853.4 2964.95 16867C2930.89 16921.2 2882.57 16958.7 2820.02 16979.3C2738.23 17008.9 2660.04 17005.1 2585.47 16967.8C2507.49 16934.3 2453.69 16878.6 2424.02 16800.6C2393.92 16718.8 2397.53 16638.7 2434.82 16560.4L2515.55 16392.2L2831.46 15734C2991.64 15860.7 3181.5 15935.1 3401 15957.1L3255.44 16262.3L3088.26 16612.7Z" fill="#A89D80"/>
<path fill-rule="evenodd" clip-rule="evenodd" d="M3149.92 8768.63L3745.52 9947.13C3750.16 9956.28 3755.14 9964.96 3760.45 9973.17C3090.79 10083.8 2515.01 10180 2033.03 10261.8C1939.81 10276.6 1848.48 10293.3 1759.07 10312L1608.42 9842.87C1597.4 9806 1588.08 9772.53 1580.45 9742.43C1576.64 9738.62 1573.03 9733.12 1569.65 9725.91C1506.08 9543.27 1448.24 9431.6 1396.12 9390.94C1229.04 9257.27 1052.65 9182.7 866.944 9167.18C866.664 9167.21 866.346 9167.21 865.99 9167.18L3149.86 8768.63" fill="url(#paint1_linear)"/>
<path fill-rule="evenodd" clip-rule="evenodd" d="M9241.29 14260L9529.61 13340.5L9534.06 13326.9L9690.69 12830.4L9693.86 12820.9L9767.6 12585.7L9913.8 12120.7L10008.5 11819.1L10129.3 11434.5C10173.8 11300.6 10238.9 11187 10324.4 11093.8C10421.5 10989.6 10531.4 10924.5 10654.3 10898.7C10669.2 10894.8 10686 10892.9 10704.5 10892.9C10720.3 10891.1 10736.6 10890.6 10753.5 10891.4C10808.8 10893.5 10870.7 10908.9 10939.1 10937.4C10987.4 10952.3 11030.2 10967.1 11067.5 10981.9C11137.3 11013.7 11200.1 11056.5 11256 11110.3C11364.2 11214.3 11446.5 11359.7 11502.9 11546.4C11525 11646.8 11539.8 11708.2 11547.4 11730.7C11584.8 11902 11594.1 12104.8 11575.4 12339.1C11534.3 12584.8 11413.3 12789.5 11212.4 12953.1L9928.42 16393.2L9839.17 16378.6L8967.96 16231.1L8615.81 16169.5L9241.29 14260ZM2647.12 13120.9L3328.53 15248.4L3272.6 15242.7L3076.82 15209L1832.23 14991.6L553.316 11105.3C410.157 10954 306.763 10779.2 243.123 10580.9C220.545 10510.9 202.963 10438 190.364 10362.2C145.869 10068.1 184.86 9796.48 307.322 9547.3C356.051 9439.24 432.544 9351.74 536.79 9284.78C604.613 9239.56 676.644 9207.04 752.908 9187.21C789.674 9177.57 827.393 9170.9 866.053 9167.19C866.409 9167.23 866.727 9167.23 867.006 9167.19C1052.72 9182.71 1229.11 9257.28 1396.18 9390.95C1448.3 9431.62 1506.15 9543.29 1569.71 9725.92C1573.09 9733.13 1576.7 9738.63 1580.52 9742.45C1588.14 9772.54 1597.46 9806.01 1608.48 9842.88L1759.13 10312L2256.2 11892.2L2323.58 12088L2647.12 13120.9Z" fill="#FFDB59"/>
<path fill-rule="evenodd" clip-rule="evenodd" d="M5657.91 12298C5401.27 12184.2 5220.74 12074.6 5116.34 11969.1C5220.74 12074.6 5401.27 12184.2 5657.91 12298ZM9531.78 13333.2L8046.91 13076C8155.48 12998.5 8272.31 12914.7 8397.53 12824.7C8462.5 12778 8529.88 12729.7 8599.29 12679.8C8610.35 12661.1 8623.31 12644.3 8638.06 12629.5C8686.88 12659.2 8731.5 12659.2 8772.18 12629.5C8865.49 12625.7 8973.55 12640.5 9096.36 12674C9099.79 12670.2 9105.26 12668.3 9112.89 12668.3V12674C9142.63 12681.7 9170.6 12685.5 9196.79 12685.5H9219.04C9412.78 12730 9559.74 12770.8 9660.18 12808.2C9671.62 12812.5 9682.8 12816.7 9693.86 12820.9L9690.69 12830.4C9539.02 12838 9370.58 12841.8 9185.35 12841.8C9046.14 12841.8 8909.99 12840.3 8777.01 12837.4C8647.72 12834.6 8521.23 12830.3 8397.53 12824.7C8521.23 12830.3 8647.72 12834.6 8777.01 12837.4C8909.99 12840.3 9046.14 12841.8 9185.35 12841.8C9370.58 12841.8 9539.02 12838 9690.69 12830.4L9534.06 13326.8L9531.78 13333.2ZM5396.92 12616.8L2406.85 12098.8C2377.18 12095.3 2349.43 12091.8 2323.58 12088L2256.21 11892.2L3823.7 11620.8C3968.02 11657.9 4109.98 11698.2 4249.58 11741.5C4309.33 11752.6 4393.24 11773.1 4501.3 11803.2C4612.75 11829 4724.41 11857 4836.28 11887.1C4951.54 11924 5039.05 11949.8 5098.8 11964.7C5104.64 11966.1 5110.46 11967.6 5116.28 11969.1C5298.66 12015.4 5521.24 12079.2 5784.02 12160.4C5739.17 12208.1 5697.11 12254 5657.85 12298C5550.29 12418.3 5463.3 12524.5 5396.92 12616.8ZM5357.51 186.14C5291.83 172.155 5212.38 159.443 5119.14 148.001C4797.09 105.158 4405.53 83.8007 3944.47 83.8007H3938.75C3481.09 83.8007 3091.44 105.158 2769.8 148.001C2680.4 159.443 2602.83 172.155 2537.16 186.14C2397.74 214.489 2316.38 247.416 2293.07 284.665C2289.26 290.131 2287.35 295.852 2287.35 301.827V314.54C2306.42 370.858 2467.24 419.167 2769.8 459.467C3095.25 502.31 3486.81 523.668 3944.47 523.668C4405.53 523.668 4797.09 502.31 5119.14 459.467C5433.15 419.167 5595.87 369.46 5607.32 310.091V292.928C5607.32 290.004 5605.41 285.682 5601.59 280.215C5578.29 245.89 5496.92 214.489 5357.51 186.14ZM2236.75 189.318C2277.39 173.554 2327.08 158.298 2385.81 143.551C2455.3 126.643 2540.69 109.608 2641.98 92.6997C2998.36 35.873 3428.48 7.52318 3932.33 7.52318H3944.41C4456.32 7.52318 4892.37 35.873 5252.56 92.6997C5353.41 109.608 5440.71 126.643 5514.45 143.551C5525.65 146.475 5536.56 149.271 5547.18 152.068L5687.03 202.284C5736.06 224.532 5767.74 247.797 5782.05 271.952C5785.87 277.418 5789.68 284.411 5793.5 292.928V301.827V310.091C5792.36 315.811 5790.36 321.404 5787.46 326.871C5751.12 399.461 5572.83 462.01 5252.56 514.769C4892.37 571.595 4456.32 599.945 3944.41 599.945C3436.31 599.945 3002.17 571.595 2641.98 514.769C2322.85 463.79 2144.23 401.369 2106.13 327.253C2103.99 323.058 2102.3 318.863 2101.04 314.54V301.827C2101.04 292.928 2102.95 284.283 2106.77 275.766C2123.86 245.255 2167.19 216.524 2236.75 189.318" fill="#FFECA8"/>
<path fill-rule="evenodd" clip-rule="evenodd" d="M7092.81 10761.6C7092.43 10762.6 7092.04 10763.6 7091.54 10764.5L7085.81 10770.2C7057.59 10823.8 7015.51 10898.7 6959.7 10994.9C6836.88 10949.6 6670.66 10874.7 6461 10770.2C6301.27 10695.5 6163.86 10633.2 6048.79 10583.3L7092.81 10761.6ZM4923.74 10391.4C4910.99 10394.5 4898.59 10397.9 4886.55 10401.5C4889.3 10397.7 4890.89 10392.5 4891.32 10386L4923.74 10391.4Z" fill="#132146"/>
<path fill-rule="evenodd" clip-rule="evenodd" d="M3788.58 10007.7C3816.28 10036.5 3849.97 10054.8 3889.65 10062.4L3932.88 10150.1L3985 10202.2L4026.96 10220L4061.92 10244.2L4891.79 10385.6C4891.35 10392.1 4889.76 10397.3 4887.01 10401.2C4899.07 10397.6 4911.46 10394.2 4924.21 10391L6049.34 10583C6164.42 10632.9 6301.83 10695.2 6461.58 10769.9C6671.25 10874.4 6837.48 10949.3 6960.29 10994.6C6942.24 11025.3 6922.93 11058.3 6902.07 11093.4C6813.1 11164.2 6731.31 11231.2 6656.72 11294.3C6533.83 11435.9 6375.54 11590.6 6181.88 11758.4C6145.35 11793.9 6109.85 11828.7 6075.41 11862.6C5735.5 11768.3 5397.22 11677.2 5060.55 11589.3C5054.86 11587.8 5049.14 11586.4 5043.4 11584.9C4905.9 11548.7 4774.74 11512.9 4649.91 11477.4C3757.95 11223.9 3191.18 10986.1 2949.45 10764.2C2982.92 10562.9 3085.27 10404.6 3256.47 10289.3C3304.79 10259.7 3386.57 10211.4 3501.84 10144.4C3599 10088.6 3694.55 10043.1 3788.52 10007.7H3788.58ZM9518.8 9894.57C9582.15 9951.83 9646.18 10009 9711.01 10066.2C9812.08 10144.6 9912.61 10222.8 10013 10300.8C10176.6 10427.5 10334.6 10552.3 10487.2 10675.2C10574.5 10746.5 10660.9 10816.6 10746.9 10885.3L10705.2 10892.6C10686.7 10892.6 10669.9 10894.5 10655 10898.3C10532 10924.2 10422.3 10989.2 10325.1 11093.4C10239.6 11186.7 10174.5 11300.2 10129.9 11434.2L10009.2 11818.8C10002.9 11809.4 9996.63 11800.3 9990.19 11791.4C9923.21 11709.6 9839.46 11679.9 9739.06 11702.5C9737.85 11703.1 9736.78 11703.7 9735.57 11704.4C9621.08 11770.6 9506.72 11831.4 9392.63 11886.8C9362.97 11901.7 9331.43 11916.4 9297.87 11931.3C9238.14 12002 9174.79 12074.4 9107.81 12148.7C8932.92 12350 8778.43 12506.3 8644.48 12617.8C8640.58 12617.8 8637.09 12619.7 8633.6 12623.5L8638.7 12629.3C8623.94 12644 8610.92 12660.8 8599.91 12679.5C8530.52 12729.5 8463.14 12777.8 8398.18 12824.4C8272.95 12914.4 8156.04 12998.2 8047.45 13075.8C7545.34 13434 7221.4 13659.3 7075.58 13751.9C7024.6 13780.7 6967.26 13815.4 6903.32 13855.7C6815.22 13911.4 6714.79 13978 6602.03 14055.3C6587.02 14065.6 6571.76 14076.2 6556.26 14086.9C6574.9 14581.8 6576.82 14902.1 6561.99 15047.4C6529.13 15339 6442.78 15578.1 6302.95 15765C6267.87 15812 6229.42 15855.7 6187.57 15896C6095.7 15964.9 6003.84 16041.1 5912.02 16124.4C5795.34 16230.2 5678.71 16347.8 5562.07 16477C5424.33 16636.8 5243.82 16860.1 5020.48 17147C5001.06 17169.9 4981.36 17191.6 4961.36 17212.1C4874.34 17301.3 4782.37 17367.1 4685.48 17409.5C4555.39 17465 4426.98 17474.1 4300.27 17436.9C4289.25 17433.4 4279.93 17429.9 4272.3 17426C4205.35 17399.7 4147.7 17375.6 4099.4 17353.6C4167.25 17279 4232.52 17193.5 4295.19 17097C4427.38 16893.7 4548.16 16641.8 4657.52 16341.2C4672.54 16300 4687.38 16257.7 4702.01 16214.5C4723.34 16152.2 4746.76 16079.2 4772.25 15995.4C4812.26 15864.5 4857.4 15706.9 4907.66 15523.1C4954.04 15353.5 5004.78 15161.4 5059.89 14946.9C5189.99 14440.6 5295.95 14092.3 5377.73 13902.5C5385.73 13884.3 5393.89 13866 5402.2 13847.9C5437.38 13771.2 5475.73 13694 5517.25 13616.5C5670.54 13330.7 5867.59 13038.4 6108.44 12739.9C6166.13 12668.3 6226.3 12596.5 6288.97 12524.4C6636.64 12123.9 7061.47 11712.2 7563.58 11289.2C7581.3 11274.2 7599.29 11259.1 7617.14 11244.1C7672.71 11198.4 7733.78 11148.9 7800.22 11095.7C7953.9 10972.4 8136.85 10829.2 8349.19 10666L9620.14 10435.5C9684.97 10426.2 9724.43 10393.8 9738.39 10338.3L9727.65 10261.4V10251.2L9724.43 10244.2L9713.56 10237.2L9672.35 10223.2L9056.94 10118C9142.98 10045.1 9186.06 9999.87 9186.06 9982.3C9186.06 9956.74 9185.39 9932.37 9184.05 9909.2C9190.22 9907.6 9195.59 9906.35 9200.02 9905.4H9205.12L9233.04 9899.66C9326.06 9903.96 9421.35 9902.27 9518.8 9894.57V9894.57ZM15809.4 8804.4C15898.7 9012.6 15953.2 9189 15972.8 9333.6C16002.7 9553.37 15991.5 9741 15939.3 9896.48C15879.6 10074.1 15760.5 10191.4 15582.2 10248.7C15519.5 10269.4 15455.3 10281.3 15390.1 10284.2C15269.8 10297 15158.4 10272 15055.7 10209.2C14938.8 10136.8 14880 10032.3 14879.6 9895.86C14879.6 9784.4 14937.2 9732.9 15052 9741.38C15085.9 9743.5 15115.6 9754.72 15141 9775.08C15185.1 9810.67 15219.4 9854.09 15243.9 9905.4C15294.1 9989.41 15368.6 10007.1 15467.4 9958.46C15566.1 9909.78 15616.4 9830.32 15618.4 9720.08C15620.4 9609.81 15598.9 9474.93 15553.8 9315.48C15508.7 9156.1 15460.3 9008.4 15408.6 8872.41C15371.7 8774.52 15323.4 8682.98 15263.7 8597.8C15206.3 8515.71 15141.6 8439.31 15069.6 8368.64C15052.7 8373.85 15034.9 8377.46 15016.4 8379.45C14896.6 8392.45 14791.9 8402.09 14702.1 8408.37C14612.3 8414.6 14498.2 8420.64 14359.7 8426.49C14221.4 8432.32 14117.5 8419.28 14048.3 8387.39C14011 8362.39 13983.3 8331.03 13964.9 8293.32C13945.9 8254.32 13937.5 8212.58 13939.6 8168.08C13940.8 8138.84 13949.5 8112.57 13965.6 8089.26C13968.5 8084.17 13972.4 8080.16 13977 8077.19C13988.1 8068.92 13999.3 8061.61 14010.7 8055.26C14013.4 8053.86 14015.9 8052.49 14018.7 8051.12C14011.2 8051.69 14003.7 8052.2 13996.1 8052.71C13965.9 8054.88 13935.7 8056.91 13905.2 8058.75C13808.5 8064.67 13748.1 8098.45 13724.1 8160.14C13700 8221.87 13664.5 8280.87 13618 8337.18C13571.4 8393.43 13489.4 8406.14 13371.9 8375.31C13254.5 8344.6 13207.8 8308.68 13231.8 8267.57C13255.7 8226.35 13302.7 8133.43 13372.6 7988.83C13210.3 8161.6 13084.6 8250.18 12995.3 8254.54C12906 8258.93 12830.7 8243.67 12769.3 8208.77C12707.9 8173.8 12720.5 8098.46 12807.8 7982.79C12836.9 7944.05 12859.2 7902.95 12874.2 7859.47C12903.9 7772.95 12905.6 7676.96 12879.6 7571.5C12840.3 7412.93 12810.7 7271.81 12790.9 7148.15C12771 7024.57 12735.2 6779.74 12683.5 6413.63C12631.7 6047.64 12618 5781.61 12642.2 5615.85C12666.4 5450.22 12699.9 5324.99 12742.6 5240.16C12785.4 5155.33 12823.1 5001.64 12855.7 4779.37C12888.5 4556.96 12857.7 4431.33 12763.5 4402.34C12669.4 4373.48 12566.1 4264.09 12454 4074.03C12342.6 3884.91 12410 3680.35 12656.1 3459.96C12657.5 3458.75 12658.7 3457.68 12660 3456.47C12668.5 3311.11 12692.4 3207.08 12731.8 3144.4C12736.5 3136.75 12741.2 3129.64 12745.8 3122.79C12795.8 3047.76 12835.6 3017.02 12864.7 3030.58C12896 3045.48 12939.2 3096.21 12994.4 3183.19C13049.4 3270.03 13106.6 3353.65 13165.9 3434.19C13276.2 3457.14 13343.9 3476.33 13369.4 3492.04C13394.1 3507.34 13517.4 3438.89 13740 3286.81C13962.4 3134.6 14095.5 3088.16 14139.1 3147.49C14126.1 3188.16 14113.8 3226.81 14102.1 3263.59L14041.3 3450.43C14040.1 3454.19 14039 3457.95 14037.8 3461.57C14037.5 3461.97 14037.3 3462.51 14037.1 3463.18C14032.4 3477.41 14027.9 3491.1 14023.4 3504.52C14008.9 3548.41 13996.1 3587.34 13984.6 3621.16C13983.4 3625.05 13982.1 3628.95 13980.9 3632.84L13939.3 3780.62C13892.6 3977.93 13881.2 4177.92 13905.2 4380.73C13944.6 4717.23 14091.1 4933.06 14344.5 5028.22C14597.9 5123.25 14767.3 5241.63 14852.8 5383.51C14938.3 5525.38 15018 5743.9 15092 6038.92C15166.1 6333.93 15221.1 6608.44 15257.1 6862.42C15293 7116.41 15317.5 7357.97 15330.1 7587.07C15333.6 7649.92 15334.7 7709.45 15333.3 7765.7C15366.7 7892.14 15469.6 8121.2 15641.9 8452.87C15707.3 8578.63 15763.1 8695.81 15809.4 8804.4" fill="#003151"/>
<path fill-rule="evenodd" clip-rule="evenodd" d="M10007.9 11819.1L9913.17 12120.6C9882.66 12045.1 9855.71 11978.3 9832.44 11920.2C9792.91 11822.4 9761.89 11751.2 9739.64 11706.6C9739 11705.2 9738.37 11703.9 9737.73 11702.8C9838.16 11680.3 9921.94 11709.9 9988.81 11791.8C9995.3 11800.7 10001.7 11809.7 10007.9 11819.1ZM9055.69 10118.4L8645.44 10048.1C8688.92 10050.4 8793.55 10027.1 8959.07 9978.2C9068.53 9942.58 9143.15 9919.7 9182.82 9909.55C9184.09 9932.73 9184.72 9957.1 9184.72 9982.65C9184.72 10000.2 9141.75 10045.5 9055.69 10118.4ZM4098.31 17353.7C3986.43 17305 3919.48 17273.2 3897.44 17258.3C3798.86 17189 3755.53 17105 3767.46 17006C3770.93 16977.7 3778.87 16948.3 3791.29 16917.6C3899.63 16767.1 4002.49 16607.2 4099.9 16437.7C4165.88 16322.9 4229.34 16203.7 4290.27 16080.1C4361.76 15935.3 4429.77 15784.6 4494.31 15627.9C4516.28 15574 4538.01 15519.1 4559.47 15462.9C4697.96 15100.8 4825.2 14692.3 4941.17 14237.7C4882.77 14083.3 4859.57 13922.8 4871.57 13756.5C4877.42 13676.6 4891.4 13595.2 4913.52 13512.5C4945.24 13394.1 4993.65 13272.9 5058.76 13148.9C5121.91 13029.7 5226.14 12864.1 5371.5 12651.8C5379.37 12640.4 5387.63 12628.7 5396.29 12616.8C5462.68 12524.5 5549.66 12418.3 5657.22 12298C5696.48 12254 5738.55 12208.1 5783.4 12160.4C5520.61 12079.2 5298.03 12015.4 5115.65 11969.1C5109.83 11967.6 5104.01 11966.1 5098.17 11964.7C5038.42 11949.8 4950.91 11924 4835.65 11887.1C4723.78 11857 4612.12 11829 4500.67 11803.2C4392.61 11773.1 4308.71 11752.6 4248.96 11741.5C4109.36 11698.2 3967.39 11657.9 3823.07 11620.8C3744.29 11600.6 3664.84 11581.2 3584.71 11562.9C3394.87 11499.7 3242.31 11419.7 3127.05 11322.6C2989.33 11188.7 2927.87 11013.9 2942.71 10798.2C2946.52 10783 2948.43 10771.7 2948.43 10764.5C3190.08 10986.5 3756.85 11224.2 4648.77 11477.8C4773.59 11513.2 4904.75 11549.1 5042.24 11585.2C5047.98 11586.7 5053.7 11588.1 5059.4 11589.6C5396.05 11677.5 5734.31 11768.6 6074.2 11863C6108.64 11829 6144.14 11794.2 6180.67 11758.7C6374.33 11590.9 6532.6 11436.2 6655.5 11294.7C6730.09 11231.5 6811.87 11164.6 6900.83 11093.8C6921.68 11058.6 6941.01 11025.7 6959.06 10995C7014.87 10898.8 7056.95 10823.9 7085.17 10770.3L7090.89 10764.5C7091.4 10763.6 7091.78 10762.7 7092.16 10761.7L7347.05 10805.2C7354.3 10807.3 7361.29 10809.5 7368.03 10811.6C7426.13 10823.4 7496.94 10821.3 7580.34 10805.2L8347.94 10666.3C8135.63 10829.6 7952.7 10972.8 7799 11096C7732.51 11149.2 7671.49 11198.7 7615.93 11244.4C7598.01 11259.5 7580.08 11274.5 7562.28 11289.6C7060.25 11712.6 6635.45 12124.2 6287.82 12524.7C6225.16 12596.7 6164.99 12668.6 6107.3 12740.1C5866.46 13038.6 5669.41 13330.9 5516.15 13616.7C5474.62 13694.3 5436.27 13771.4 5401.1 13848.1C5392.78 13866.3 5384.62 13884.6 5376.62 13902.7C5294.84 14092.5 5188.89 14440.8 5058.8 14947.1C5003.69 15161.6 4952.96 15353.7 4906.57 15523.3C4856.31 15707.1 4811.18 15864.6 4771.17 15995.5C4745.69 16079.3 4722.27 16152.3 4700.94 16214.6C4686.3 16257.8 4671.47 16300.1 4656.44 16341.3C4547.08 16641.9 4426.31 16893.8 4294.12 17097.1C4231.46 17193.6 4166.19 17279 4098.35 17353.7" fill="#00558C"/>
<path fill-rule="evenodd" clip-rule="evenodd" d="M9096.36 12674C9099.8 12659.2 9101.45 12649.9 9101.45 12646.1C9105.26 12649.9 9109.08 12657.2 9112.89 12668.3C9105.26 12668.3 9099.8 12670.2 9096.36 12674Z" fill="#713D22"/>
<path fill-rule="evenodd" clip-rule="evenodd" d="M11309.7 4307.15C11458 4322.02 11521.2 4467.33 11499.1 4743.2C11428.4 5059.75 11419 5389.27 11471.1 5731.63C11523.3 6078.31 11556.8 6389.27 11571.6 6664.76C11572.8 6680.4 11574.1 6695.78 11575.4 6710.78C11584.7 6824.82 11592.5 6921.1 11598.9 6999.72C11602.7 7018.37 11606.5 7037.01 11610.3 7055.66C11620.9 7119.68 11628 7316.31 11631.9 7645.54C11632.2 7662.73 11632.5 7680.32 11632.6 7698.3C11636 7858.71 11614.8 7999.29 11568.8 8120.05C11512.3 8268.38 11418.6 8386.71 11287.4 8475.06C11213.1 8524.8 11136.5 8572.91 11058 8619.35C10889.5 8718.62 10711.5 8810.16 10524 8893.95C10252.9 9013.03 10070.8 9091.21 9978 9128.5L9276.25 9335.08C9191.08 9160.07 9057.47 9102.44 8875.16 9162.19C8868.04 9166 8860.54 9169.82 8852.92 9173.63C9001.66 9076.59 9131.84 9003.91 9243.2 8955.6C9555.17 8836.1 9863.21 8703.89 10167.4 8558.96C10356.8 8461.92 10531.4 8379.92 10691.2 8312.97C10762 8279.49 10829 8253.43 10892.1 8234.78C10918 8223.77 10940.2 8214.44 10958.8 8206.81V8201.09C10925.4 8018.88 10901.2 7793.64 10886.3 7525.4C10874.9 7216.06 10863.7 6983.19 10852.6 6826.85C10815.8 6323.8 10721.1 5915.97 10568.5 5603.23C10553.6 5569.8 10537 5538.14 10518.3 5508.52C10507.4 5381.77 10513.1 5262.53 10535.5 5150.65C10602.1 4882.41 10770.9 4649.76 11042.1 4452.71C11138.7 4385.33 11227.9 4336.77 11309.7 4307.15V4307.15ZM4299.17 17437.1C4161.44 17612 3936.22 17850.3 3623.48 18152.2C3068.78 18688.3 2733.8 18956.2 2618.53 18956.2C2346.89 18956.2 2130.99 18891 1970.81 18760.5C1970.81 18704.9 1987.54 18651.1 2021.02 18599C2125.27 18424 2315.11 18243.4 2590.56 18057.4C2929.14 17822.6 3141.23 17662.5 3226.84 17576.9C3267.94 17483.7 3305.24 17414.8 3338.71 17370.3C3339.6 17369 3340.45 17367.8 3341.25 17366.5C3372.81 17321.9 3405.01 17283.4 3437.87 17251.1C3458.61 17230.7 3479.58 17212.8 3500.8 17197.4C3541.39 17127 3603.47 17058.6 3687.04 16992.1C3718.75 16967.1 3753.49 16942.3 3791.29 16917.7C3778.87 16948.4 3770.92 16977.9 3767.45 17006.1C3755.53 17105.1 3798.85 17189.2 3897.44 17258.4C3919.47 17273.3 3986.43 17305.1 4098.3 17353.8C4146.61 17375.8 4204.25 17399.9 4271.2 17426.2C4278.83 17430.1 4288.15 17433.6 4299.17 17437.1ZM8392.07 3785.92L8515.39 3930.85C8570.94 4585.94 8637.94 5049.33 8716.25 5321.01C8917.12 5187.14 9114.42 5041.96 9308.04 4885.59C9501.78 4729.22 9715.74 4535.73 9950.04 4305.24C10125.1 4130.19 10337.1 3832.32 10586.3 3411.52C10590.1 3411.52 10595.8 3413.43 10603.5 3417.25C10685.3 3473.18 10797 3543.99 10938.5 3629.55C11076.3 3711.3 11210.1 3798.63 11340.2 3891.44C11500.4 3999.5 11642 4107.56 11764.8 4215.62C11634.7 4200.74 11506.3 4186 11379.6 4171.12C11264.4 4193.12 11154.6 4226.68 11050.3 4271.55C10946.1 4319.86 10851.2 4384.95 10765.6 4466.7C10668.6 4563.7 10584.7 4669.85 10513.9 4785.16C10454.5 4885.59 10404.3 4989.83 10363.2 5097.89C10326 5205.95 10298 5315.67 10279.3 5427.16C10257.3 5542.85 10246.2 5658.28 10246.2 5773.59C10246.2 5892.71 10249.9 6011.7 10257.1 6130.82C10264.7 6268.5 10262.8 6406.31 10251.3 6543.99C10236.6 6681.67 10212.4 6819.48 10178.9 6957.13C10156.9 7042.74 10138.2 7130.24 10122.9 7219.65C10113.6 7273.49 10103.6 7327.32 10092.8 7381.11C10086.3 7412.92 10079.7 7444.7 10072.7 7476.46C10054 7562.06 10039.3 7662.7 10028.2 7778.39C10025 7802.86 10021.7 7827.97 10018.4 7853.71C10006.9 7945.18 9995.29 8044.66 9983.72 8152.15C9968.85 8289.88 9907.45 8397.94 9799.39 8476.33C9743.45 8520.82 9683.95 8554.3 9620.77 8576.76C9486.91 8636.09 9356.6 8676.99 9229.85 8699.44C9103.23 8721.9 8984.11 8729.31 8872.62 8721.69C8756.93 8714.49 8648.87 8705.16 8548.44 8693.72C8448.01 8682.71 8342.11 8669.78 8230.62 8654.94C8107.81 8628.68 7984.88 8593.29 7861.95 8548.79C7884.07 8377.6 7895 8200.67 7895 8018.03C7896.53 7837.64 7887.5 7658.07 7868.05 7479.32C7850.51 7316.98 7824.32 7155.31 7789.48 6994.32C7761.39 6864.35 7727.7 6734.68 7688.42 6605.65C7591.8 6363.72 7517.43 6105.01 7465.31 5829.52C7387.38 4790.88 7603.24 4126.37 8113.03 3836.14C8172.78 3809.82 8232.4 3783.76 8291.64 3757.95C8317.96 3746.51 8342.11 3735.32 8364.11 3724.26L8386.99 3774.48V3780.2L8392.07 3785.92Z" fill="#88D637"/>
<path fill-rule="evenodd" clip-rule="evenodd" d="M9738.37 11702.8C9739 11703.9 9739.64 11705.2 9740.27 11706.6C9762.52 11751.2 9793.54 11822.4 9833.08 11920.2C9856.34 11978.3 9883.29 12045.1 9913.81 12120.6L9767.61 12585.7C9517.04 12513.7 9382.53 12381.4 9363.97 12188.4C9356.85 12095.2 9408.98 11996.4 9520.34 11892.2C9539.03 11873.5 9557.72 11856.9 9576.28 11842C9647.09 11786.4 9701.12 11741.7 9738.37 11707.9V11702.8ZM10587 3410.77C10337.8 3831.57 10125.7 4129.43 9950.67 4304.49C9716.37 4534.97 9502.42 4728.46 9308.67 4884.83C9115.06 5041.2 8917.75 5186.38 8716.89 5320.25C8638.58 5048.58 8571.58 4585.19 8516.03 3930.09L8566.24 3986.03C8610.74 3993.28 8653.58 3995.18 8694.64 3991.75C8694.64 4311.74 8739.14 4631.85 8828.13 4952.21C9003.18 4832.71 9174.55 4705.96 9342.36 4572.1C9509.79 4434.42 9695.78 4265.08 9900.46 4064.21C10105.1 3862.97 10282.1 3609.73 10431.2 3304.62C10464.7 3327.12 10503.7 3355.09 10548.2 3388.52C10559.2 3392.34 10572.2 3399.71 10587 3410.77ZM8113.66 3835.38C7603.88 4125.62 7388.01 4790.12 7465.94 5828.77C7432.51 5743.21 7404.54 5674.31 7382.04 5622.18C7367.29 5566.25 7341.23 5462 7303.85 5309.45C7278.05 5149.26 7265.08 5039.3 7265.08 4979.55C7276.14 4868.05 7294.83 4758.34 7321.02 4650.28C7346.95 4549.85 7389.67 4454.88 7449.42 4365.51C7501.54 4279.95 7566.63 4203.68 7644.56 4136.68C7708.12 4073.5 7777.03 4019.47 7851.14 3974.59C7940.64 3918.65 8028.11 3872.25 8113.66 3835.38ZM6578.97 8939.87L6519.53 8822.28C6623.22 8737.99 6762.64 8639.57 6937.76 8527.02C7017.98 8450.21 7142.44 8349.78 7311.27 8225.72C7479.97 8101.67 7615.23 7983.87 7717.06 7872.31C7717.06 7765.58 7715.28 7625.32 7711.72 7451.51C7710.07 7382.93 7708.29 7309.2 7706.26 7230.3C7702.82 7141.39 7699.77 7060.14 7697.36 6986.53C7691.89 6819.7 7689.09 6692.45 7689.09 6604.85C7728.38 6733.89 7762.06 6863.56 7790.16 6993.52C7824.99 7154.52 7851.18 7316.19 7868.73 7478.52C7888.18 7657.28 7897.2 7836.85 7895.68 8017.23C7895.68 8199.88 7884.74 8376.8 7862.62 8548C7851.18 8622.58 7838.09 8696.95 7823.21 8771.11C7808.47 8841.88 7791.69 8914.56 7773 8989.14C7754.44 9059.91 7732.19 9132.37 7706.26 9206.54C7685.02 9270.18 7662.27 9335.12 7637.99 9401.35C7634.68 9403.79 7631.38 9406.25 7628.07 9408.66L7561.33 9441.73L7555.99 9447.12L7376.99 9463.98L7293.09 9508.47C7218.72 9308.52 7104.3 9159.56 6949.84 9061.6C6932.68 9049.9 6915.13 9038.88 6897.08 9028.55C6792.37 8965.57 6686.31 8936.01 6578.97 8939.87ZM9518.18 9894.93C9420.67 9902.64 9325.45 9904.33 9232.4 9900.02C9240.02 9885.18 9247.52 9868.45 9254.64 9849.8C9256.17 9846.6 9257.69 9843.42 9259.09 9840.27C9283.25 9788.46 9301.05 9739.62 9312.49 9693.75C9320.75 9660.54 9325.58 9628.85 9327.11 9598.72C9330.92 9505.5 9314.27 9417.78 9276.89 9335.56L9978.64 9128.98C10071.4 9091.69 10253.5 9013.51 10524.7 8894.42C10712.2 8810.63 10890.2 8719.1 11058.6 8619.82C11137.2 8573.38 11213.7 8525.28 11288.1 8475.53C11419.3 8387.19 11513 8268.86 11569.4 8120.52C11615.4 7999.76 11636.7 7859.19 11633.2 7698.77C11633.1 7680.8 11632.8 7663.2 11632.6 7646.02C11628.6 7316.79 11621.5 7120.16 11611 7056.14C11607.2 7037.49 11603.3 7018.85 11599.5 7000.2C11593.2 6921.58 11585.3 6825.3 11576 6711.26C11574.7 6696.26 11573.5 6680.88 11572.2 6665.24C11557.5 6389.75 11523.9 6078.79 11471.8 5732.11C11419.6 5389.75 11429.1 5060.23 11499.7 4743.68C11521.9 4467.81 11458.7 4322.5 11310.3 4307.63C11583 4214.19 11824.4 4310.17 12034.7 4595.58C12042.1 4605.49 12049.3 4615.66 12056.6 4626.09C12138.4 4819.71 12182.9 5058.07 12190 5341.19C12190 5501.37 12186.5 5743.55 12179.2 6067.73C12231.4 6391.53 12257.4 6790.08 12257.4 7263.36C12259.1 7394.17 12260 7557.75 12260 7754.07C12260 7898.13 12259.6 8059.8 12258.7 8239.07C12258.3 8309.49 12257.9 8382.59 12257.4 8458.37C12253.6 8723.23 12140.2 8941.25 11917.4 9112.45C11788.4 9213.44 11543.8 9324.25 11183.6 9444.91C11025.2 9497.88 10844.5 9552.75 10641.6 9609.53L9990.08 9816.11C9827.36 9856.87 9669.97 9883.13 9518.18 9894.93" fill="#76C524"/>
<path fill-rule="evenodd" clip-rule="evenodd" d="M9767.6 12585.7L9693.87 12820.9C9682.81 12816.7 9671.62 12812.5 9660.18 12808.1C9559.75 12770.8 9412.79 12730 9219.04 12685.5H9196.8C9170.61 12685.5 9142.64 12681.6 9112.89 12674V12668.3C9109.08 12657.2 9105.26 12649.9 9101.45 12646.1C9101.45 12649.9 9099.8 12659.1 9096.36 12674C8973.56 12640.5 8865.5 12625.7 8772.19 12629.5C8731.51 12659.1 8686.88 12659.1 8638.07 12629.5L8632.98 12623.8C8636.41 12620 8639.97 12618.1 8643.79 12618.1C8777.78 12506.6 8932.24 12350.2 9107.17 12149C9174.17 12074.7 9237.48 12002.3 9297.23 11931.6C9330.79 11916.7 9362.32 11902 9391.94 11887.1C9506.1 11831.7 9620.39 11770.9 9734.93 11704.7L9738.36 11702.8V11707.8C9701.12 11741.7 9647.09 11786.4 9576.28 11842C9557.71 11856.8 9539.03 11873.5 9520.34 11892.2C9408.97 11996.4 9356.85 12095.2 9363.97 12188.4C9382.53 12381.4 9517.03 12513.7 9767.6 12585.7ZM10746.2 10885.6C10660.2 10816.9 10573.7 10746.9 10486.5 10675.5C10334 10552.6 10175.9 10427.8 10012.3 10301.1C9911.89 10223.1 9811.34 10144.9 9710.4 10066.5C9645.56 10009.4 9581.49 9952.16 9518.18 9894.91C9669.97 9883.12 9827.35 9856.85 9990.08 9816.09L10641.6 9609.51C10844.5 9552.73 11025.2 9497.86 11183.6 9444.89C11196.9 9512.65 11210.4 9580.23 11223.9 9647.65C11253.5 9778.16 11283.2 9910.38 11312.9 10044.3C11335.4 10152.3 11357.7 10260.4 11380.2 10368.5C11409.9 10498.5 11417.4 10632.3 11402.5 10769.9L10746.2 10885.6ZM2109.76 19055.9C2067.32 19017.6 2032.46 18971.2 2005.19 18916.7C1978.92 18864.6 1967.69 18812.5 1971.5 18760.3C2131.69 18890.9 2347.59 18956.1 2619.22 18956.1C2734.49 18956.1 3069.48 18688.1 3624.18 18152C3936.91 17850.2 4162.13 17611.8 4299.87 17436.9C4426.57 17474.2 4554.97 17465 4685.06 17409.6C4781.95 17367.1 4873.91 17301.4 4960.93 17212.2C4980.92 17191.7 5000.62 17169.9 5020.05 17147.1C5031.31 17170.8 5045.61 17198.4 5062.95 17229.7C5086.04 17271.6 5114.53 17320.5 5148.45 17375.9C5219.22 17468.7 5263.92 17541.2 5282.57 17593.3C5353.34 17872.5 5232.35 18090.4 4919.62 18246.7C4882.33 18265.4 4744.6 18321.4 4506.45 18414.5C4335.26 18481.5 4210.46 18544.6 4132.06 18604C3856.61 18864.6 3564.43 19045.2 3255.5 19146.2C3251.59 19147.4 3247.67 19148.7 3243.74 19150C2887.15 19268.5 2554.17 19265.3 2244.83 19140.4C2193.51 19119 2148.49 19090.9 2109.76 19055.9ZM8853.55 9174.15C8712.44 9188.99 8500.77 9200.01 8218.54 9207.21C7982.72 9229.19 7789.1 9293.91 7637.95 9401.4C7662.23 9335.16 7684.98 9270.23 7706.21 9206.59C7732.15 9132.42 7754.4 9059.95 7772.96 8989.18C7791.64 8914.61 7808.42 8841.93 7823.17 8771.16C7838.05 8697 7851.14 8622.63 7862.58 8548.04C7985.51 8592.54 8108.45 8627.93 8231.25 8654.2C8342.75 8669.03 8448.64 8681.96 8549.08 8692.97C8649.51 8704.41 8757.57 8713.74 8873.25 8720.94C8984.75 8728.57 9103.87 8721.16 9230.49 8698.69C9357.23 8676.24 9487.54 8635.34 9621.41 8576.01C9684.59 8553.55 9744.09 8520.08 9800.02 8475.58C9908.08 8397.19 9969.48 8289.13 9984.36 8151.4C9995.93 8043.91 10007.5 7944.43 10019.1 7852.97C10022.4 7827.22 10025.7 7802.11 10028.9 7777.64C10039.9 7661.95 10054.7 7561.32 10073.3 7475.71C10080.3 7443.95 10087 7412.17 10093.4 7380.36C10104.2 7326.57 10114.3 7272.75 10123.6 7218.91C10138.8 7129.5 10157.5 7042 10179.5 6956.39C10213.1 6818.73 10237.2 6680.92 10252 6543.24C10263.4 6405.56 10265.3 6267.75 10257.7 6130.07C10250.6 6010.95 10246.9 5891.96 10246.9 5772.84C10246.9 5657.53 10257.9 5542.1 10279.9 5426.41C10298.6 5314.92 10326.6 5205.21 10363.8 5097.15C10404.9 4989.09 10455.1 4884.84 10514.5 4784.41C10585.3 4669.1 10669.2 4562.95 10766.2 4465.95C10851.9 4384.21 10946.7 4319.12 11051 4270.81C11155.2 4225.93 11265.1 4192.37 11380.2 4170.38C11507 4185.25 11635.4 4200 11765.4 4214.87C11858.7 4300.43 11938.8 4406.58 12005.7 4533.33C12017.8 4552.4 12027.4 4573.25 12034.7 4595.62C11824.4 4310.22 11583 4214.23 11310.3 4307.67C11228.6 4337.3 11139.3 4385.86 11042.7 4453.24C10771.5 4650.29 10602.7 4882.93 10536.1 5151.18C10513.7 5263.05 10508 5382.3 10518.9 5509.05C10537.6 5538.67 10554.3 5570.32 10569.1 5603.76C10721.7 5916.49 10816.4 6324.33 10853.3 6827.38C10864.3 6983.72 10875.5 7216.58 10887 7525.93C10901.8 7794.17 10926 8019.4 10959.4 8201.62V8207.34C10940.9 8214.97 10918.6 8224.3 10892.7 8235.31C10829.6 8253.96 10762.6 8280.02 10691.8 8313.49C10532 8380.45 10357.5 8462.45 10168.1 8559.49C9863.84 8704.41 9555.81 8836.63 9243.83 8956.13C9132.47 9004.44 9002.29 9077.12 8853.55 9174.15Z" fill="#6B9C38"/>
<path fill-rule="evenodd" clip-rule="evenodd" d="M2244.77 19140.5C2554.11 19265.3 2887.08 19268.5 3243.68 19150C3247.61 19148.7 3251.52 19147.4 3255.44 19146.2C3564.36 19045.2 3856.54 18864.6 4131.99 18604C4210.39 18544.6 4335.19 18481.5 4506.38 18414.5C4744.53 18321.4 4882.27 18265.4 4919.55 18246.7C5232.29 18090.4 5353.28 17872.5 5282.5 17593.3C5479.97 17779.7 5511.55 17980.8 5377.22 18196.5C5250.94 18401.2 5063 18520.2 4813.4 18553.8C4653.22 18505.4 4478.21 18550.2 4288.36 18687.9C4258.69 18706.6 4178.81 18769.9 4048.72 18877.9C3955.49 18952.4 3875.41 19008.2 3808.45 19045.1C3733.63 19089 3658.95 19128.1 3584.38 19162.3C3399.43 19247.8 3215.41 19303.6 3032.33 19329.9C2719.59 19367.1 2457.07 19304.1 2244.77 19140.5" fill="#040404"/>
<path fill-rule="evenodd" clip-rule="evenodd" d="M9537.5 736.093C9526.57 750.967 9513.6 777.028 9498.73 814.277C9483.47 843.898 9468.47 881.274 9453.6 926.151C9427.79 970.646 9386.86 1033.96 9330.92 1116.21C9274.98 1190.33 9206.21 1266.6 9124.34 1345.04C8871.35 1572.22 8504.84 1708 8024.67 1752.49C7771.31 1774.99 7527.47 1761.77 7293.05 1713.08C7278.3 1709.65 7265.08 1708 7253.64 1708V1696.55C7477 1383.82 7735.71 1136.3 8029.76 954.119C8350.12 752.874 8687.01 641.127 9040.43 619.134C9215.49 607.692 9381.14 646.721 9537.5 736.093ZM9749.81 892.462C9809.18 944.585 9859.39 998.614 9900.46 1054.55H9894.74C9876.17 1136.3 9857.49 1262.79 9838.8 1434.03C9805.36 1631.46 9773.84 1785.93 9744.09 1897.42C9695.78 2080.1 9602.85 2273.72 9465.04 2478.4C9312.49 2366.52 9221.21 2241.68 9191.08 2104C9172.9 2026.07 9174.81 1944.2 9196.8 1858.64C9215.49 1854.83 9237.99 1838.05 9264.18 1808.43C9286.3 1760.12 9327.11 1683.84 9386.86 1579.59C9450.04 1482.6 9511.44 1374.54 9571.19 1255.42C9630.56 1140.11 9690.06 1019.21 9749.81 892.462Z" fill="#7A3A1E"/>
<path fill-rule="evenodd" clip-rule="evenodd" d="M9810.83 2171.39C9788.84 2215.88 9770.4 2277.29 9755.53 2355.73C9729.34 2441.28 9693.87 2510.19 9649.38 2562.31C9630.82 2562.31 9615.69 2565.87 9604.25 2573.12C9548.82 2543.5 9502.42 2511.84 9465.04 2478.41C9602.85 2273.73 9695.78 2080.11 9744.09 1897.43C9773.84 1785.93 9805.36 1631.47 9838.8 1434.04C9857.49 1262.8 9876.17 1136.3 9894.73 1054.56H9900.46C9948.76 1125.37 9993.51 1199.74 10034.6 1277.67C10131.2 1475.1 10179.5 1680.03 10179.5 1892.34C10183.3 2115.71 10125.7 2307.16 10006.6 2466.96L9978.64 2484.13C9974.83 2387.13 9969.36 2316.32 9962.11 2271.82C9954.49 2182.45 9922.7 2119.01 9866.77 2081.76C9848.08 2100.45 9829.52 2130.33 9810.83 2171.39ZM9196.8 1858.65C9156.12 1847.59 9117.22 1840.22 9079.84 1836.4C9016.28 1821.53 8930.72 1830.94 8823.04 1864.37C8744.73 1875.43 8614.42 1921.83 8432.12 2003.58C8257.19 2067.14 8121.29 2106.3 8024.67 2121.17C7879.36 2146.98 7752.62 2133.89 7644.56 2081.76C7577.69 2044.51 7495.82 1994.3 7399.2 1931.11C7309.83 1864.12 7261.26 1789.75 7253.64 1708C7265.08 1708 7278.3 1709.66 7293.05 1713.09C7527.47 1761.78 7771.31 1775 8024.67 1752.5C8504.84 1708 8871.35 1572.23 9124.34 1345.05C9206.21 1266.61 9274.98 1190.33 9330.92 1116.22C9386.86 1033.96 9427.79 970.654 9453.6 926.158C9468.47 881.282 9483.47 843.906 9498.73 814.285C9513.6 777.036 9526.57 750.974 9537.5 736.1C9552.38 743.728 9563.56 749.449 9571.19 753.263C9589.88 760.509 9606.66 773.349 9621.41 792.037C9625.22 788.223 9632.72 788.223 9643.66 792.037C9677.22 821.658 9712.56 855.22 9749.81 892.469C9690.06 1019.22 9630.56 1140.12 9571.19 1255.42C9511.44 1374.54 9450.04 1482.6 9386.86 1579.6C9327.11 1683.85 9286.3 1760.13 9264.18 1808.44C9237.99 1838.06 9215.49 1854.84 9196.8 1858.65Z" fill="#452312"/>
<path fill-rule="evenodd" clip-rule="evenodd" d="M7661.09 10216.9C7652.95 10222.1 7644.43 10226.8 7635.41 10230.8C7600.06 10247 7558.49 10254.1 7510.44 10252.2C7503.32 10252.2 7495.82 10254 7488.19 10257.9C7495.44 10241.1 7504.08 10223.9 7514.25 10206.4C7516.92 10201.9 7519.72 10197.3 7522.52 10192.7C7526.97 10185.7 7531.67 10178.6 7536.5 10171.4C7587.22 10097.6 7664.26 10017.9 7767.62 9932.41C7778.17 9923.57 7789.1 9914.67 7800.29 9905.72C7800.8 9905.28 7801.44 9904.85 7801.94 9904.44C8024.04 9722.63 8192.36 9628.14 8306.9 9620.94L8312.62 9659.72C8316.43 9689.81 8268.13 9756.97 8167.69 9861.23C8145.7 9887.07 8125.36 9909.32 8106.67 9927.97C8091.04 9933.78 8075.91 9940.67 8061.29 9948.63C8048.07 9955.7 8035.23 9963.64 8022.77 9972.47L8018.32 9975L7783.77 10118C7772.32 10121.8 7763.04 10127.3 7755.8 10134.6C7751.98 10134.6 7744.61 10140.3 7733.55 10151.7C7725.92 10155.1 7720.46 10158.7 7717.02 10162.5C7707.74 10175.8 7697.32 10187.5 7685.88 10197.8C7678.12 10204.8 7669.86 10211.2 7661.09 10216.9ZM7275.25 10168.2C7242.45 10177.3 7215.88 10173.3 7195.8 10156.2C7193.76 10154.4 7191.73 10152.5 7189.82 10150.4L7166.56 10104.4C7169.61 10098.2 7171 10093.5 7171 10090.1H7176.09C7215.88 10031.8 7283.26 9960.95 7378.22 9877.43C7392.34 9865.12 7407.08 9852.52 7422.47 9839.6C7429.46 9833.76 7436.45 9827.82 7443.7 9821.81C7670.49 9639.17 7830.17 9547.84 7922.97 9547.84C7855.85 9637.52 7760.75 9747.05 7637.57 9876.47C7628.41 9886.08 7619.13 9895.82 7609.6 9905.72C7576.67 9939.73 7541.97 9975.12 7505.35 10011.9C7497.73 10015.7 7469.76 10037.9 7421.45 10078.6C7392.84 10102.7 7366.4 10122.2 7342.37 10137.1C7330.42 10144.5 7319.11 10150.7 7308.3 10155.8C7296.61 10161.3 7285.67 10165.5 7275.25 10168.2ZM7163.12 9713.44C7208.63 9678.21 7261.27 9638.07 7321.02 9592.97C7373.14 9562.9 7451.2 9514.36 7554.93 9447.41C7555.19 9447.33 7555.44 9447.23 7555.57 9447.09C7559.64 9445.86 7563.45 9444.69 7567.39 9443.6C7638.46 9421.29 7686.51 9418.97 7711.3 9436.6C7636.8 9518.4 7510.44 9628.15 7332.46 9765.88C7310.47 9782.87 7289.62 9798.76 7269.91 9813.56C7211.81 9857.52 7163.89 9892.15 7126.26 9917.47C7111 9927.79 7097.52 9936.58 7085.57 9943.86L7039.43 9852.32C7067.4 9807.2 7098.16 9769.06 7131.6 9737.9C7141.77 9730.02 7152.19 9721.87 7163.12 9713.44ZM9648.74 2562.17C9693.24 2510.05 9728.71 2441.14 9754.9 2355.59C9769.77 2277.15 9788.2 2215.74 9810.2 2171.25C9844.14 2215.74 9864.73 2267.87 9871.85 2327.62C9871.85 2331.43 9873.76 2379.74 9877.57 2472.55C9866.51 2572.98 9823.8 2628.91 9749.17 2640.36C9686.12 2647.6 9652.56 2621.54 9648.74 2562.17ZM9276.26 9335.61C9313.63 9417.83 9330.29 9505.55 9326.47 9598.77C9324.95 9628.9 9320.12 9660.59 9311.85 9693.8C9300.41 9739.67 9282.61 9788.51 9258.46 9840.32C9257.06 9843.47 9255.53 9846.65 9254.01 9849.85C9243.08 9868.5 9226.29 9887.15 9203.79 9905.8H9198.71C9194.26 9906.75 9188.92 9908.01 9182.82 9909.6C9143.15 9919.75 9068.53 9942.63 8959.07 9978.25C8793.55 10027.1 8688.92 10050.5 8645.44 10048.2L8630.44 10045.6C8563.57 10082.9 8396.4 10148 8128.92 10240.8C8121.29 10244.6 8112.01 10246.5 8100.95 10246.5C8063.7 10258.1 8030.27 10267.7 8000.52 10275.4C7988.57 10278.6 7977.25 10281.5 7966.58 10284C7926.02 10293.7 7894.24 10299 7871.48 10299.9C7857.12 10300.6 7846.31 10299.5 7839.07 10296.7C7840.08 10296.3 7840.97 10295.9 7841.99 10295.4C7856.86 10289 7872.37 10282.5 7888.39 10275.7C7899.2 10271.2 7910.39 10266.5 7921.7 10261.8C8041.84 10212.3 8190.32 10154.8 8367.29 10089.5C8376.95 10085.9 8386.74 10082.3 8396.53 10078.7C8422.08 10069.8 8446.87 10060.9 8471.28 10052C8492.13 10044.3 8512.59 10036.7 8532.55 10029.1C8938.86 9873.56 9156.37 9716.77 9185.1 9558.73C9188.28 9540.28 9189.05 9521.85 9187.27 9503.42C9184.85 9468.6 9162.48 9428.02 9119.89 9381.7C9093.95 9353.62 9060.77 9323.42 9020.09 9291.12C8942.16 9231.37 8893.85 9188.58 8875.16 9162.72C9057.47 9102.97 9191.08 9160.59 9276.26 9335.61ZM9190.44 2103.87C9120.14 2089 9053.14 2083.53 8989.58 2087.34C8822.28 2098.4 8671.63 2139.21 8537.64 2210.02C8411.02 2284.65 8196.81 2336.77 7895 2366.39C7831.95 2370.21 7750.08 2359.15 7649.64 2333.34C7645.83 2314.65 7643.92 2298 7643.92 2283.12L7638.2 2093.06C7642.02 2089.25 7643.92 2085.44 7643.92 2081.62C7751.98 2133.75 7878.73 2146.84 8024.04 2121.03C8120.66 2106.16 8256.56 2067 8431.49 2003.44C8613.79 1921.69 8744.1 1875.29 8822.41 1864.23C8930.08 1830.8 9015.64 1821.39 9079.21 1836.26C9116.58 1840.08 9155.48 1847.45 9196.16 1858.51C9174.17 1944.07 9172.26 2025.94 9190.44 2103.87Z" fill="#ED9870"/>
<path fill-rule="evenodd" clip-rule="evenodd" d="M9232.39 9900.05L9204.43 9905.78C9226.93 9887.13 9243.71 9868.48 9254.64 9849.83C9247.52 9868.48 9240.02 9885.22 9232.39 9900.05ZM7555.57 9447.47L7555.95 9447.15L7561.29 9441.76L7628.03 9408.7C7631.34 9406.28 7634.64 9403.83 7637.95 9401.39C7789.1 9293.9 7982.72 9229.18 8218.54 9207.2C8500.77 9200 8712.44 9188.98 8853.55 9174.14C8861.18 9170.33 8868.68 9166.52 8875.8 9162.7C8894.49 9188.56 8942.79 9231.35 9020.72 9291.1C9061.41 9323.41 9094.59 9353.6 9120.52 9381.68C9163.11 9428.01 9185.48 9468.59 9187.9 9503.41C9189.68 9521.83 9188.92 9540.26 9185.74 9558.71C9157.01 9716.76 8939.49 9873.54 8533.19 10029.1C8513.23 10036.7 8492.76 10044.3 8471.91 10052C8447.5 10060.9 8422.71 10069.8 8397.16 10078.7C8387.37 10082.3 8377.58 10085.9 8367.92 10089.5C8190.96 10154.8 8042.47 10212.2 7922.33 10261.7C7911.02 10266.5 7899.83 10271.1 7889.02 10275.7C7873.01 10282.5 7857.5 10289 7842.62 10295.4C7841.61 10295.8 7840.72 10296.3 7839.7 10296.7C7838.56 10295.9 7837.54 10295.2 7836.52 10294.5C7835.76 10293.8 7835 10293.1 7834.36 10292.2C7831.05 10288.9 7828.64 10285.1 7827.37 10280.8C7825.33 10275.3 7825.08 10268.9 7826.35 10261.7C7827.37 10256.9 7829.02 10251.8 7831.44 10246.2C7835.63 10236.3 7842.24 10225.1 7851.14 10212.8C7858.77 10203.3 7866.65 10193.7 7875.04 10184.2C7914.96 10137.9 7962.76 10091.7 8018.32 10045.6C8024.8 10038.9 8048.57 10019.4 8089.51 9987.13C8100.31 9978.79 8112.14 9969.57 8125.1 9959.48C8144.55 9944.32 8166.8 9927.27 8191.59 9908.31C8194.9 9905.56 8198.46 9902.8 8202.02 9900.05C8154.47 9911.21 8109.08 9927.63 8065.73 9949.31C8051.37 9956.5 8037.26 9964.23 8023.4 9972.53C8035.86 9963.7 8048.7 9955.76 8061.92 9948.69C8076.54 9940.73 8091.67 9933.84 8107.31 9928.03C8125.99 9909.38 8146.33 9887.13 8168.33 9861.29C8268.76 9757.03 8317.07 9689.87 8313.25 9659.78L8307.53 9621C8192.99 9628.2 8024.67 9722.69 7802.58 9904.5C7802.07 9904.91 7801.43 9905.34 7800.93 9905.78C7789.74 9914.73 7778.8 9923.63 7768.25 9932.47C7664.9 10018 7587.86 10097.6 7537.13 10171.5C7532.3 10178.6 7527.6 10185.7 7523.15 10192.8C7520.35 10197.4 7517.56 10201.9 7514.89 10206.4C7504.72 10224 7496.07 10241.1 7488.82 10257.9C7444.2 10249.2 7421.45 10228.8 7420.81 10196.9C7420.68 10190.3 7421.57 10183.2 7423.35 10175.6C7424.88 10168.4 7427.42 10160.7 7430.73 10152.7C7436.45 10138.7 7444.84 10123.4 7455.77 10106.6C7500.27 10039.7 7517.05 10008.1 7505.99 10011.9C7542.6 9975.18 7577.31 9939.79 7610.23 9905.78C7619.77 9895.88 7629.05 9886.14 7638.2 9876.53C7761.39 9747.11 7856.48 9637.58 7923.6 9547.9C7830.8 9547.9 7671.13 9639.23 7444.33 9821.87C7437.08 9827.88 7430.09 9833.82 7423.1 9839.66C7407.72 9852.58 7392.97 9865.18 7378.86 9877.49C7283.89 9961.01 7216.51 10031.9 7176.72 10090.1C7199.23 10027 7212.32 9982.27 7216.13 9955.99C7175.32 9970.61 7135.53 9973.79 7097.01 9965.52L7086.21 9943.92C7098.16 9936.64 7111.63 9927.85 7126.89 9917.53C7164.52 9892.21 7212.45 9857.58 7270.54 9813.62C7290.25 9798.82 7311.1 9782.93 7333.09 9765.94C7511.07 9628.21 7637.44 9518.46 7711.93 9436.67C7687.14 9419.03 7639.09 9421.35 7568.03 9443.66C7564.08 9444.75 7560.27 9445.92 7556.2 9447.15C7556.08 9447.29 7555.82 9447.39 7555.57 9447.47ZM8516.02 3930.07L8392.71 3785.14L8387.62 3773.7L8364.74 3723.48C8324.06 3675.17 8285.16 3624.96 8247.78 3572.83C8139.72 3431.34 8044.88 3286.16 7963.01 3137.42C7896.14 3006.85 7834.61 2874.64 7778.68 2740.77C7752.87 2673.78 7728.72 2608.56 7706.21 2544.99C7676.59 2474.18 7657.91 2403.63 7650.28 2333.32C7750.71 2359.13 7832.58 2370.19 7895.64 2366.38C8197.44 2336.76 8411.65 2284.63 8538.27 2210.01C8672.26 2139.2 8822.91 2098.39 8990.21 2087.33C9053.78 2083.51 9120.77 2088.98 9191.08 2103.86C9221.21 2241.54 9312.48 2366.38 9465.04 2478.25C9502.41 2511.69 9548.82 2543.34 9604.24 2572.96C9615.69 2565.72 9630.81 2562.16 9649.38 2562.16C9653.19 2621.53 9686.75 2647.59 9749.81 2640.34C9824.43 2628.9 9867.15 2572.96 9878.21 2472.53C9874.39 2379.73 9872.49 2331.42 9872.49 2327.6C9865.37 2267.85 9844.77 2215.73 9810.83 2171.23C9829.52 2130.17 9848.08 2100.3 9866.77 2081.61C9922.7 2118.86 9954.48 2182.29 9962.11 2271.67C9969.36 2316.16 9974.82 2386.97 9978.64 2483.97C9978.64 2580.59 9947.11 2669.83 9883.93 2751.58C9869.18 2770.27 9852.4 2788.83 9833.71 2807.52L9632.21 2829.76C9654.71 3310.31 9435.16 3671.61 8973.69 3913.54C8951.31 3924.6 8928.81 3935.53 8906.31 3946.59C8839.44 3972.91 8768.88 3987.91 8694.64 3991.72C8653.58 3995.16 8610.73 3993.25 8566.24 3986L8516.02 3930.07Z" fill="#FFAA83"/>
<path fill-rule="evenodd" clip-rule="evenodd" d="M8388.26 3773.21L8393.34 3784.65L8388.26 3778.93V3773.21Z" fill="#FFB087"/>
<path fill-rule="evenodd" clip-rule="evenodd" d="M6949.16 9061.66C7094.6 9160.62 7207.36 9306.61 7287.32 9499.62L7235.84 9578.45C7212.7 9617.09 7188.54 9662.12 7163.12 9713.53C7152.18 9721.96 7141.76 9730.1 7131.59 9737.99C7098.16 9769.15 7067.39 9807.28 7039.42 9852.4L6578.29 8939.93C6685.64 8936.07 6791.69 8965.63 6896.4 9028.61C6914.45 9038.94 6932 9049.96 6949.16 9061.66ZM10224 3148.25C10041.3 3758.85 9644.8 4127.39 9034.07 4253.63L8905.67 3946.62C8928.17 3935.56 8950.67 3924.62 8973.05 3913.56C9434.53 3671.64 9654.08 3310.34 9631.57 2829.79L9833.07 2807.54C9851.76 2788.85 9868.54 2770.29 9883.29 2751.6C9946.47 2669.86 9978 2580.61 9978 2484L10006 2466.83L10078.4 2907.97C10111.9 2997.34 10160.4 3077.43 10224 3148.25Z" fill="#CE7C56"/>
<path fill-rule="evenodd" clip-rule="evenodd" d="M8125.1 9959.44L8074.63 9950.86C8112.39 9935.03 8151.42 9920.84 8191.59 9908.27C8166.8 9927.23 8144.55 9944.27 8125.1 9959.44Z" fill="#A7C4E4"/>
<path fill-rule="evenodd" clip-rule="evenodd" d="M7636.92 10300.5L7493.9 10341.8L7664.26 10362.8L7831.43 10327.9L7636.92 10300.5ZM7608.96 10425.7L7907.71 10474.1L8074.88 10453.7L7755.15 10394L7608.96 10421.9V10425.7ZM7567 10488L7741.17 10516L7883.55 10481.1H7873.38V10477.9L7720.19 10453.7L7560.01 10484.9L7567 10488ZM8276.38 10408L8179.13 10397.8L7883.55 10338.7L7699.22 10376.8L8102.85 10439.7H8127.01L8276.38 10408ZM8287.19 10341.8L8106.03 10307.5L8081.87 10320.9L7939.49 10338.7L8207.1 10387L8235.06 10380.6L8238.24 10394L8419.4 10421.9L8488.69 10408L8485.51 10373.6L8325.33 10345.7L8287.19 10352.6V10341.8ZM7500.9 10474.1L7675.06 10453.7L7532.68 10418.8L7358.51 10449.9L7500.9 10474.1ZM7190.45 10150.5C7192.36 10152.6 7194.39 10154.5 7196.42 10156.2L7192.99 10155.6L7190.45 10150.5ZM7427.8 10331.7L7455.77 10327.9L7598.15 10296.7L7455.77 10272.6L7292.41 10296.7L7427.8 10331.7ZM7546.03 10362.8L7403.64 10387L7546.03 10411.8H7567L7713.2 10390.8V10387L7570.82 10355.8L7546.03 10362.8ZM7827.36 10280.8C7828.63 10285.1 7831.05 10289 7834.36 10292.3L7831.43 10293.5L7836.52 10294.5C7837.53 10295.2 7838.55 10296 7839.69 10296.7C7846.94 10299.5 7857.75 10300.6 7872.11 10299.9L7984.62 10317.7H7998.61L8071.7 10310.7L8074.88 10303.7L7967.2 10284C7977.88 10281.5 7989.2 10278.6 8001.15 10275.4L8627.89 10383.8L8631.71 10394L8617.72 10397.8L8575.77 10401V10404.8L7448.77 10613.3L7368.68 10610.1L7382.67 10634.2L7393.47 10666L7567 10652L9712.94 10261.8H9726.92L9737.73 10338.7C9723.74 10394.2 9684.33 10426.6 9619.5 10435.9L8348.59 10666.3L7580.99 10805.2C7497.59 10821.3 7426.78 10823.4 7368.68 10811.6C7361.95 10809.5 7354.95 10807.3 7347.71 10805.2L7092.81 10761.7L6048.8 10583.4L4923.71 10391.4L4891.29 10386L4061.46 10244.6L4026.5 10220.4L3984.54 10202.6L3932.42 10150.5L3889.2 10062.8H3889.83L7191.36 10705.4C7254.55 10717.7 7269.55 10691.2 7236.49 10626L7203.19 10559.9L7324.21 10583.4C7358.03 10590 7378.12 10585.4 7384.35 10569.7L7400.49 10571.9H7427.82L7490.75 10554.2L7383.07 10537.6C7381.93 10533.7 7380.53 10529.6 7378.88 10525.2L7521.9 10551L7685.26 10526.8L7438.63 10474.1H7427.82L7358.54 10482.6L7354.09 10473.7L7379.51 10470.9L7358.54 10456.9L7345.19 10456.3L7336.93 10440L7466.6 10411.8L7313.41 10387H7310.23L7300.44 10367.6L7361.72 10373.6L7504.74 10359.6L7493.93 10352.6L7351.55 10317.7H7341.38L7281.37 10330.1L7278.83 10325L7295.61 10320.9L7282.26 10307.5L7268.91 10305.3L7260.65 10289.1L7393.5 10261.8L7240.31 10237.6H7234.59L7225.69 10219.8L7229.5 10220.4H7247.3L7407.48 10188.7L7315.31 10174.7C7301.97 10175.4 7289.89 10173.5 7279.08 10168.9L7275.9 10168.3C7286.33 10165.5 7297.26 10161.4 7308.96 10155.9L7423.37 10175.6C7421.59 10183.2 7420.7 10190.3 7420.83 10196.9L7275.27 10223.6L7466.6 10261.8H7504.74L7668.1 10237.6L7636.06 10230.9C7645.09 10226.8 7653.6 10222.2 7661.74 10216.9L7831.46 10246.2C7829.04 10251.8 7827.39 10257 7826.37 10261.8L7730.39 10241.4H7703.06L7535.88 10279.5L7710.05 10300.5L7827.36 10280.8ZM12153.8 10637.4V9406.17C12164.9 9437.1 12239 9465.08 12376.3 9490.07C12513.6 9515.5 12673.1 9528.21 12854.9 9528.21C12907.2 9529.08 12956.9 9528.85 13004 9527.59L13013.8 9538.38V10006.2L12977 10007.5C12940.5 10008.8 12922.3 10028.5 12922.3 10066.6V10325.9C12922.3 10364.1 12940.5 10382.5 12977 10381.2L13149.9 10374.9C13186.3 10373.6 13204.5 10353.9 13204.5 10315.8V10056.4C13204.5 10018.3 13186.3 9999.86 13149.9 10001.1L13110.4 10003V9543.48C13110.4 9536.65 13109 9529.86 13106.4 9523.13C13181.4 9518.17 13248.9 9510.12 13308.8 9498.99C13324 9496.01 13338.3 9492.93 13351.4 9489.76C13425.2 9472.61 13466.9 9453.43 13476.6 9432.24V10767.1C13485.1 10798 13429.2 10824.7 13308.8 10847.2C13188 10869.6 13036.7 10880.9 12854.9 10880.9C12673.1 10877.9 12513.6 10863.9 12376.3 10838.9C12239 10813.5 12164.9 10785.5 12153.8 10755V10737.8V10637.4Z" fill="#60A2F0"/>
<path fill-rule="evenodd" clip-rule="evenodd" d="M7831.44 10246.1L7661.72 10216.9C7670.49 10211.2 7678.75 10204.8 7686.51 10197.8L7713.21 10202.6H7779.31L7875.04 10184.1C7866.65 10193.7 7858.77 10203.2 7851.14 10212.7C7842.24 10225.1 7835.63 10236.2 7831.44 10246.1ZM8089.51 9987.09L8018.95 9975.01L8023.4 9972.48C8037.26 9964.18 8051.37 9956.45 8065.73 9949.27L8074.63 9950.86L8125.1 9959.44C8112.14 9969.52 8100.31 9978.75 8089.51 9987.09ZM7423.35 10175.6L7308.94 10155.9C7319.74 10150.7 7331.06 10144.5 7343.01 10137.1L7430.73 10152.7C7427.42 10160.7 7424.88 10168.3 7423.35 10175.6ZM8646.07 10048.1L9056.32 10118.4L9671.62 10223.6L9712.94 10237.5L9723.74 10244.5L9726.92 10251.5V10261.7H9712.94L7567.01 10652L7393.48 10666L7382.67 10634.2L7368.69 10610L7448.78 10613.2L8575.77 10404.7V10400.9L8617.73 10397.7L8631.71 10393.9L8627.9 10383.7L8001.15 10275.4C8030.9 10267.6 8064.33 10258 8101.58 10246.4C8112.64 10246.4 8121.92 10244.5 8129.55 10240.7C8397.03 10147.9 8564.2 10082.9 8631.07 10045.6L8646.07 10048.1Z" fill="#DBE8F9"/>
<path fill-rule="evenodd" clip-rule="evenodd" d="M7278.42 10324.9L7268.51 10305.2L7281.85 10307.5L7295.2 10320.8L7278.42 10324.9Z" fill="#869DB8"/>
<path fill-rule="evenodd" clip-rule="evenodd" d="M10746.6 10885.3L11402.8 10769.6L12154.1 10637.1V10737.5V10754.7C12165.2 10785.2 12239.3 10813.2 12376.7 10838.6C12513.9 10863.6 12673.5 10877.6 12855.2 10880.6C13037.1 10880.6 13188.3 10869.3 13309.2 10846.9C13429.6 10824.4 13485.4 10797.7 13477 10766.8V10582.5H13644.8C13816.5 10582.5 13903.2 10497.7 13905.4 10328.2L14447.7 10232.8C14644.1 10223.6 14798.3 10300.9 14909.8 10464.9L16411.8 10236C16464 10280.5 16529 10366.1 16606.9 10492.8C16644.2 10559.8 16685.4 10667.8 16730.2 10817L16774.7 11090.3C16785.8 11284 16763.6 11460.9 16708 11621.1C16641 11802.7 16537.1 11945.5 16397 12049.6L11212.8 12952.9C11413.6 12789.2 11534.6 12584.6 11575.8 12338.8C11594.4 12104.5 11585.1 11901.7 11547.7 11730.5C11540.2 11708 11525.4 11646.6 11503.2 11546.1C11446.7 11359.4 11364.6 11214 11256.4 11110.1C11200.4 11056.2 11137.5 11013.4 11067.7 10981.6C11030.5 10966.8 10987.7 10952 10939.4 10937.1C10871 10908.6 10809.2 10893.2 10753.8 10891C10736.9 10890.3 10720.6 10890.9 10704.9 10892.6L10746.6 10885.3Z" fill="url(#paint2_linear)"/>
<path fill-rule="evenodd" clip-rule="evenodd" d="M5357.43 185.897C5496.84 214.318 5578.22 245.608 5601.52 280.041C5605.33 285.507 5607.24 289.741 5607.24 292.747V309.827C5595.79 369.128 5433.07 419.002 5119.06 459.174C4797.02 502.078 4405.46 523.394 3944.4 523.394C3486.74 523.394 3095.18 502.078 2769.74 459.174C2467.17 419.002 2306.36 370.632 2287.28 314.337V301.628C2287.28 295.616 2289.2 289.878 2293.01 284.413C2316.32 247.11 2397.67 214.318 2537.1 185.897C2602.77 171.96 2680.34 159.252 2769.74 147.774C3091.37 105.006 3481.02 83.554 3938.69 83.554H3944.4C4405.46 83.554 4797.02 105.006 5119.06 147.774C5212.3 159.252 5291.76 171.96 5357.43 185.897V185.897ZM11913.3 16046.9L9933.29 16393.1H9928.24L11212.2 12952.9L16396.3 12049.7C16395.7 12050 16395.2 12050.6 16394.6 12050.9L15973 13179.8L15759.7 13142.3L11913.3 13820.6L15497.5 14452.7L15497 14453.7L11913.3 13821.8V16046.9" fill="#EE8721"/>
<path fill-rule="evenodd" clip-rule="evenodd" d="M4958.33 8746.38C5072.31 8818.01 5150.71 8909.74 5193.52 9021.62C5235.89 9133.07 5230.38 9231.81 5176.99 9317.84C5123.16 9404.27 5036.93 9452.58 4918.28 9462.75C4799.63 9473.36 4683.51 9442.84 4569.95 9371.22C4455.54 9299.61 4377.13 9208.08 4334.76 9096.62C4291.96 8984.75 4297.48 8885.8 4351.29 8799.78C4404.68 8713.76 4490.7 8665.45 4609.36 8654.85C4728.01 8644.68 4844.33 8675.19 4958.33 8746.38ZM7384.32 10569.7C7378.1 10585.4 7358.01 10589.9 7324.19 10583.3L7203.17 10559.8L5985.55 8151.35C5952.5 8085.68 5904.41 8046.69 5841.26 8034.39L2660.5 7415.27L2636.99 7368.87C2603.93 7303.62 2618.98 7276.92 2682.12 7288.78L3772.88 7501.09L4056.38 7556.39L4783.87 7697.82L5983.65 7931.42C6046.78 7943.71 6094.88 7982.49 6127.94 8047.74L6519.49 8822.28L6578.93 8939.87L7040.06 9852.34L7086.21 9943.89L7097.01 9965.49L7167.19 10104.4L7190.45 10150.5L7193 10155.5L7225.67 10219.7L7234.57 10237.5L7260.63 10289L7268.89 10305.2L7278.81 10324.9L7281.35 10330L7300.42 10367.5L7310.21 10386.9L7336.91 10440L7345.17 10456.2L7354.07 10473.7L7358.52 10482.6L7369.32 10503.9C7373.26 10511.5 7376.44 10518.6 7378.86 10525.2C7380.51 10529.5 7381.91 10533.7 7383.05 10537.6C7386.99 10551.1 7387.38 10561.8 7384.32 10569.7" fill="#E8EFFD"/>
<path fill-rule="evenodd" clip-rule="evenodd" d="M13475.9 9432.25C13466.3 9453.44 13424.6 9472.61 13350.7 9489.76C13337.6 9492.94 13323.4 9496.02 13308.1 9498.99C13248.3 9510.13 13180.8 9518.17 13105.7 9523.13C13105.6 9522.66 13105.5 9522.24 13105.4 9521.86C13101.9 9514.23 13097.6 9507.24 13092 9500.89L13080.6 9488.17C13114.6 9484.29 13145.9 9479.22 13174.7 9472.92C13265.4 9458.09 13307.1 9439.23 13299.9 9416.36C13292.2 9393.46 13237.5 9372.7 13135.2 9354.05C13037 9335.4 12919.8 9326.08 12783.7 9326.08C12651.5 9322.27 12540 9329.68 12449.4 9348.33C12362.6 9363.59 12320.7 9382.45 12324.2 9404.9C12335.6 9427.79 12390.5 9448.76 12488.8 9467.83C12590.9 9486.48 12708.1 9495.81 12840.3 9495.81C12880.4 9496.93 12918.4 9497.03 12954.1 9496.12V9496.44H12975.1L13003.4 9527.59C12956.2 9528.85 12906.5 9529.08 12854.3 9528.22C12672.5 9528.22 12512.9 9515.5 12375.6 9490.08C12238.4 9465.09 12164.2 9437.1 12153.2 9406.17C12141.7 9373.12 12197.7 9346.64 12321 9326.72C12441.4 9304.25 12592.4 9293.03 12774.2 9293.03C12956.4 9296 13116.2 9310.19 13253.5 9335.62C13281.2 9340.08 13306.2 9344.73 13328.9 9349.61C13417.9 9369.17 13466.8 9392.48 13475.9 9419.53V9432.25Z" fill="#CBE3FF"/>
<path fill-rule="evenodd" clip-rule="evenodd" d="M13081.8 9488.19L13060.9 9464.67C13036 9437.56 13009.3 9430.15 12980.8 9442.43C12969.3 9445.82 12960.8 9455.99 12955.4 9472.94V9496.14C12919.6 9497.05 12881.6 9496.95 12841.6 9495.83C12709.4 9495.83 12592.1 9486.5 12490.1 9467.85C12391.8 9448.78 12336.9 9427.81 12325.4 9404.92C12322 9382.47 12363.8 9363.61 12450.7 9348.35C12541.3 9329.7 12652.8 9322.29 12785 9326.1C12921 9326.1 13038.2 9335.42 13136.5 9354.07C13238.7 9372.72 13293.5 9393.48 13301.1 9416.38C13308.4 9439.25 13266.7 9458.11 13175.9 9472.94C13147.2 9479.24 13115.9 9484.32 13081.8 9488.19ZM13477.2 10582.8V10355.9H13645C13670.5 10355.9 13683.2 10344.6 13683.2 10322.2V9830.81C13683.2 9805.38 13670.5 9792.67 13645 9792.67H13477.2V9570.19H13645C13818.8 9570.19 13905.6 9657.06 13905.6 9830.81V10322.2V10328.5C13903.5 10498 13816.6 10582.8 13645 10582.8H13477.2Z" fill="#1A58A0"/>
<path fill-rule="evenodd" clip-rule="evenodd" d="M17877.8 13767.8L15555.7 14177.2C15441.8 14197.5 15327.3 14197.5 15212.5 14177.2L13631.5 13898.8C13518.4 13878.7 13517 13858.5 13627.4 13838.4L15099.9 14097.7C15289.4 14131.2 15478.6 14131.2 15667.6 14097.7L17881.3 13707.4C17992.6 13727.5 17991.4 13747.7 17877.8 13767.8V13767.8ZM16297 13329.2L17877.8 13607.6C17991.4 13627.7 17992.6 13647.8 17881.3 13668C17880.3 13668.1 17879.1 13668.4 17877.8 13668.7L15555.7 14078C15441.8 14098.4 15327.3 14098.4 15212.5 14078L13631.5 13799.6C13630.2 13799.3 13629.1 13799.1 13627.7 13799C13517.3 13778.8 13518.2 13758.7 13631 13738.6L15953 13329.2C16067.9 13308.9 16182.4 13308.9 16297 13329.2Z" fill="#8EC2FF"/>
<path fill-rule="evenodd" clip-rule="evenodd" d="M12954.7 9496.05V9472.85C12960.2 9455.9 12968.7 9445.73 12980.1 9442.34C13008.6 9430.06 13035.3 9437.47 13060.2 9464.59L13081.2 9488.11L13092.7 9500.82C13098.2 9507.17 13102.6 9514.17 13106 9521.79C13106.1 9522.18 13106.3 9522.6 13106.4 9523.07C13109.1 9529.8 13110.5 9536.59 13110.5 9543.42V10003L13149.9 10001.1C13186.3 9999.8 13204.5 10018.2 13204.5 10056.4V10315.7C13204.5 10353.9 13186.3 10373.6 13149.9 10374.8L12977 10381.2C12940.5 10382.5 12922.3 10364 12922.3 10325.9V10066.5C12922.3 10028.4 12940.5 10008.7 12977 10007.4L13013.8 10006.2V9538.32L13004 9527.53L12975.7 9496.37H12954.7V9496.05Z" fill="white"/>
<defs>
<linearGradient id="paint0_linear" x1="12784.9" y1="10043.6" x2="11668.2" y2="3146.39" gradientUnits="userSpaceOnUse">
<stop stop-color="#FD9C3C"/>
<stop offset="0.29412" stop-color="#FFDC4C"/>
<stop offset="1" stop-color="#FFDC4C"/>
</linearGradient>
<linearGradient id="paint1_linear" x1="2432.41" y1="10239.4" x2="2199.91" y2="8933" gradientUnits="userSpaceOnUse">
<stop stop-color="#FD9C3C"/>
<stop offset="1" stop-color="#FFECA8"/>
</linearGradient>
<linearGradient id="paint2_linear" x1="15865.6" y1="11869.9" x2="15471.5" y2="9577.36" gradientUnits="userSpaceOnUse">
<stop stop-color="#FD9C3C"/>
<stop offset="1" stop-color="#FFECA8"/>
</linearGradient>
</defs>
</svg>
